<?xml version="1.0" standalone="no"?>
<!DOCTYPE svg PUBLIC "-//W3C//DTD SVG 20010904//EN"
 "http://www.w3.org/TR/2001/REC-SVG-20010904/DTD/svg10.dtd">
<svg version="1.0" xmlns="http://www.w3.org/2000/svg"
 width="900.000000pt" height="894.000000pt" viewBox="0 0 900.000000 894.000000"
 preserveAspectRatio="xMidYMid meet">
<metadata>
Created by potrace 1.10, written by Peter Selinger 2001-2011
</metadata>
<g transform="translate(0.000000,894.000000) scale(0.100000,-0.100000)"
fill="#000000" stroke="none">
<path d="M4930 8649 c-109 -19 -242 -53 -267 -67 -12 -6 -28 -12 -36 -12 -8 0
-48 -13 -88 -30 -41 -16 -80 -30 -87 -30 -11 0 -110 -43 -172 -75 -14 -7 -53
-13 -87 -12 -42 1 -67 -3 -80 -13 -10 -9 -66 -39 -125 -68 l-106 -53 -33 17
c-25 13 -37 14 -51 5 -10 -6 -24 -11 -32 -11 -7 0 -19 -7 -26 -15 -7 -8 -20
-15 -30 -15 -10 0 -23 -7 -30 -15 -7 -8 -20 -15 -30 -15 -9 0 -70 -27 -136
-60 -65 -33 -122 -60 -126 -60 -4 0 -30 -13 -58 -30 -28 -16 -57 -30 -64 -30
-8 0 -19 -7 -26 -16 -8 -8 -25 -14 -39 -12 -21 2 -27 9 -29 33 -2 17 -14 44
-27 60 l-23 30 -139 0 c-113 0 -147 -3 -183 -19 -25 -10 -63 -25 -85 -34 -63
-24 -166 -74 -210 -101 -63 -40 -79 -50 -95 -57 -40 -19 -200 -161 -200 -178
0 -3 -13 -25 -30 -48 -24 -33 -30 -51 -30 -92 1 -75 38 -125 110 -148 63 -19
100 -22 100 -8 0 6 7 10 16 10 9 0 14 -7 12 -17 -4 -21 -42 -30 -173 -38 -124
-8 -154 -18 -162 -57 -7 -35 -37 -58 -78 -58 -16 0 -52 -7 -80 -16 -27 -9 -68
-21 -89 -28 -50 -16 -67 -39 -45 -61 14 -14 20 -15 50 -2 37 16 112 36 174 46
22 4 50 13 62 19 18 10 25 9 38 -4 37 -38 19 -48 -223 -130 -56 -18 -108 -34
-116 -34 -8 0 -24 -8 -37 -19 -20 -16 -22 -22 -12 -44 l12 -25 78 30 c80 32
132 51 193 73 19 7 51 18 70 25 73 26 87 25 104 -8 23 -44 21 -50 -23 -68 -21
-8 -58 -26 -82 -40 -24 -14 -60 -32 -79 -40 -40 -18 -59 -27 -195 -97 -86 -45
-100 -56 -103 -79 -4 -35 13 -36 65 -7 21 12 56 30 78 41 22 11 47 24 55 29 8
5 22 12 30 15 8 3 33 15 55 27 22 11 49 25 60 30 11 6 27 14 35 19 8 4 22 11
30 14 8 4 33 15 56 25 22 11 47 19 55 19 21 0 62 -76 52 -95 -5 -8 -67 -53
-138 -99 -72 -47 -135 -89 -140 -94 -6 -5 -33 -21 -60 -37 -66 -38 -85 -54
-79 -70 12 -31 39 -26 116 23 15 9 59 37 98 62 103 65 113 71 173 113 31 20
60 37 65 37 13 0 52 -49 52 -65 0 -7 -35 -36 -78 -64 -193 -130 -214 -149
-187 -171 16 -14 47 3 193 106 90 63 95 65 124 53 34 -14 34 -14 197 169 50
56 67 69 78 61 16 -14 17 -55 3 -64 -6 -4 -23 -25 -38 -48 -23 -36 -27 -53
-27 -118 0 -86 11 -106 77 -140 51 -26 159 -25 241 2 204 67 520 267 598 378
74 105 79 115 79 174 0 31 -4 57 -10 57 -21 0 -10 49 14 62 119 64 115 63 149
49 18 -7 50 -17 72 -21 22 -5 60 -14 85 -20 52 -14 395 -5 437 11 13 5 62 9
107 9 46 0 96 4 112 10 16 5 97 16 179 25 83 9 186 24 230 32 44 9 123 19 175
24 52 4 120 12 150 17 93 18 560 15 644 -4 77 -16 163 -39 211 -55 17 -6 45
-15 63 -20 19 -6 54 -21 79 -35 25 -13 52 -24 59 -24 7 0 29 -10 48 -22 19
-13 54 -34 77 -48 68 -40 171 -149 203 -215 52 -107 45 -177 -25 -246 -73 -72
-151 -79 -434 -41 -88 12 -198 26 -243 32 -46 6 -92 15 -102 20 -10 6 -39 10
-64 10 -24 0 -57 5 -72 10 -14 6 -90 17 -168 26 -77 8 -197 22 -266 31 -152
19 -369 21 -430 5 -90 -24 -200 -93 -200 -126 0 -5 -6 -17 -13 -25 -19 -23
-47 -102 -47 -133 0 -33 -45 -88 -71 -88 -11 0 -34 -8 -52 -17 -29 -16 -101
-18 -767 -25 -716 -8 -949 -15 -1098 -36 -120 -18 -245 -43 -280 -58 -18 -8
-42 -14 -53 -14 -12 0 -33 -6 -47 -14 -15 -8 -47 -22 -72 -31 -50 -19 -97 -42
-150 -74 -19 -11 -49 -27 -66 -35 -17 -8 -67 -49 -111 -92 -63 -63 -88 -97
-123 -169 -44 -89 -45 -91 -48 -207 -3 -98 0 -126 16 -170 54 -143 140 -236
292 -318 87 -47 206 -86 305 -100 92 -13 111 -14 180 -6 28 2 82 8 120 11 39
3 93 12 120 20 28 7 75 18 105 24 30 6 87 18 125 26 190 41 271 49 475 49 197
0 274 -9 306 -34 8 -7 6 -29 -8 -82 -31 -117 -50 -218 -55 -298 l-5 -75 -62
-65 c-34 -36 -81 -90 -103 -120 -48 -65 -133 -214 -133 -233 0 -7 -5 -18 -12
-25 -12 -12 -34 -79 -45 -137 -3 -16 -9 -35 -14 -41 -5 -6 -13 -44 -18 -85 -9
-66 -13 -76 -42 -100 -37 -30 -39 -52 -20 -164 6 -33 13 -76 16 -95 5 -25 0
-50 -15 -85 -31 -72 -60 -161 -60 -184 0 -30 -17 -34 -57 -14 -36 18 -63 68
-63 121 0 12 -8 37 -18 55 -78 144 -163 202 -357 244 -128 28 -280 -3 -394
-82 -73 -49 -266 -249 -280 -289 -2 -6 -14 -24 -26 -41 -54 -72 -108 -221
-128 -355 -12 -84 -12 -308 0 -385 19 -114 102 -273 185 -351 139 -132 441
-166 571 -64 14 11 32 20 40 20 8 0 42 -26 75 -57 98 -93 120 -109 231 -164
142 -69 139 -68 212 -93 72 -25 68 -15 53 -141 -22 -182 30 -363 133 -470 83
-87 184 -135 316 -151 76 -9 69 -27 -14 -34 -35 -3 -74 -11 -86 -18 -12 -6
-35 -12 -52 -12 -17 0 -50 -6 -73 -14 -24 -7 -79 -23 -123 -36 -132 -36 -249
-71 -270 -80 -11 -5 -54 -20 -95 -34 -126 -42 -144 -49 -180 -64 -19 -8 -47
-21 -62 -29 -14 -7 -32 -13 -38 -13 -10 0 -176 -76 -220 -100 -8 -5 -76 -39
-150 -77 -74 -37 -166 -86 -205 -108 -38 -23 -77 -45 -85 -49 -17 -8 -39 -21
-97 -59 -24 -15 -45 -27 -49 -27 -3 0 -23 -13 -44 -30 -21 -16 -43 -30 -49
-30 -7 0 -25 -10 -41 -22 -37 -27 -40 -63 -7 -72 12 -3 352 -5 756 -6 403 0
738 -4 745 -8 9 -5 2012 -24 2156 -19 19 0 60 0 90 -1 30 0 142 -2 249 -2 107
-1 203 -5 212 -11 10 -5 300 -9 686 -9 453 -1 683 -5 715 -12 36 -8 54 -8 73
0 44 20 31 47 -50 107 -41 30 -79 55 -84 55 -6 0 -14 6 -18 14 -7 12 -228 166
-238 166 -2 0 -23 13 -47 29 -40 27 -104 63 -222 125 -27 14 -56 26 -64 26 -9
0 -23 6 -31 13 -9 7 -36 21 -61 32 -25 10 -74 32 -110 48 -36 17 -74 34 -85
38 -11 4 -42 17 -69 28 -27 12 -55 21 -63 21 -8 0 -27 6 -41 14 -30 15 -81 33
-127 46 -32 9 -47 14 -170 55 -44 15 -98 31 -120 35 -22 5 -71 18 -110 30 -38
13 -92 26 -120 30 -27 3 -61 11 -75 17 -14 6 -59 16 -100 23 -41 6 -115 18
-165 27 -87 15 -128 20 -340 42 -117 12 -585 12 -700 -1 -198 -22 -244 -27
-303 -38 -67 -12 -109 -7 -82 10 8 6 29 10 47 10 17 0 34 4 38 9 3 6 26 20 52
33 82 41 197 188 219 281 8 33 40 44 85 28 39 -13 242 -15 301 -2 178 39 231
54 278 82 8 5 26 14 38 19 36 15 179 117 247 174 109 93 186 178 276 305 38
54 104 196 130 276 27 86 52 144 61 145 45 1 261 142 341 222 16 15 34 28 40
28 7 0 28 -19 47 -42 38 -47 61 -70 138 -139 28 -26 60 -67 71 -92 12 -27 44
-65 79 -96 47 -40 69 -70 103 -138 24 -49 58 -109 75 -135 33 -49 126 -148
139 -148 4 0 24 -13 44 -28 20 -15 63 -42 96 -59 118 -61 306 -61 401 -1 45
29 124 115 124 136 0 8 6 26 14 40 34 64 47 121 45 198 -2 75 -1 78 28 103 17
14 38 40 46 56 19 35 47 119 47 140 0 20 -28 104 -48 143 -27 53 -118 112
-173 112 -35 0 -38 5 -48 82 -14 99 -51 195 -92 234 -16 15 -29 35 -29 43 0
19 -30 114 -60 191 -12 30 -24 63 -27 73 -3 11 -19 44 -34 75 -16 31 -29 64
-29 73 0 10 -4 20 -9 24 -6 3 -22 29 -36 58 -14 28 -41 77 -60 107 -19 30 -39
64 -44 76 -5 11 -20 33 -33 50 -13 16 -31 41 -40 55 -9 14 -50 62 -92 106 -42
44 -76 85 -76 90 0 5 19 19 43 32 137 71 268 189 360 324 26 37 47 70 47 73 0
3 12 26 28 52 44 75 95 233 122 382 26 135 -1 424 -46 512 -8 14 -14 33 -14
42 0 8 -6 30 -14 48 -8 18 -17 40 -20 48 -17 43 -90 166 -129 217 -46 59 -178
189 -236 232 -39 29 -97 62 -171 97 -30 14 -68 32 -83 40 -16 8 -37 14 -48 14
-11 0 -32 6 -47 14 -40 20 -244 40 -332 32 -41 -4 -102 -9 -135 -12 -33 -4
-68 -12 -79 -20 -11 -8 -34 -14 -51 -14 -17 0 -40 -7 -51 -15 -10 -8 -26 -15
-35 -15 -21 0 -138 -62 -219 -116 -83 -55 -198 -160 -245 -224 -40 -54 -48
-57 -92 -36 -94 46 -211 87 -358 126 -155 42 -279 50 -373 25 -69 -19 -137
-50 -148 -67 -3 -5 -18 -17 -34 -26 -25 -16 -130 -134 -130 -147 0 -4 -11 -21
-24 -38 -29 -38 -77 -124 -107 -189 -20 -45 -44 -60 -63 -41 -4 5 -38 14 -74
22 -103 22 -588 20 -707 -2 -169 -31 -230 -45 -273 -61 -89 -32 -266 -66 -350
-66 -178 0 -382 109 -442 238 -18 38 -19 48 -8 80 17 48 189 222 219 222 6 0
35 11 64 25 29 13 83 34 121 45 38 12 83 26 101 31 39 12 193 38 288 49 39 4
81 10 95 14 14 3 144 13 290 22 213 12 357 14 732 9 483 -8 668 0 730 32 15 7
35 13 45 13 10 0 35 8 54 18 105 54 149 116 149 212 0 41 6 72 18 92 40 69
152 90 342 63 63 -9 156 -20 205 -25 164 -16 349 -39 392 -50 23 -5 59 -10 80
-10 21 0 54 -5 73 -11 19 -6 67 -15 105 -19 39 -5 122 -16 185 -25 156 -22
368 -17 425 11 96 46 170 117 220 214 27 52 33 220 10 297 -9 32 -21 65 -25
73 -5 8 -19 33 -31 55 -69 127 -219 254 -424 358 -11 6 -27 14 -35 19 -8 4
-22 11 -30 14 -8 3 -46 19 -85 34 -38 16 -81 31 -95 35 -14 3 -59 15 -100 27
-100 28 -191 36 -395 37 -212 0 -488 -21 -650 -49 -33 -6 -87 -15 -120 -19
-33 -5 -71 -14 -85 -19 -14 -6 -63 -16 -110 -22 -200 -26 -222 -30 -233 -37
-13 -9 -176 -21 -370 -29 l-128 -5 17 25 c9 14 25 26 35 26 10 0 20 4 24 9 3
5 29 22 58 36 36 18 59 39 72 63 20 36 39 48 203 134 55 28 90 54 103 74 11
18 51 50 92 74 188 111 298 194 484 367 77 72 163 173 163 193 0 10 7 23 15
30 9 8 15 29 15 59 -1 55 -27 93 -82 115 -40 17 -177 20 -258 5z m251 -88 c21
-17 22 -20 9 -52 -8 -19 -29 -54 -46 -79 -38 -53 -220 -224 -314 -295 -36 -27
-69 -55 -73 -62 -4 -7 -12 -13 -18 -13 -5 0 -34 -18 -64 -40 -30 -22 -76 -52
-101 -65 -26 -14 -53 -30 -60 -36 -17 -14 -43 -5 -50 18 -22 65 -159 339 -175
349 -5 3 -9 18 -9 34 0 25 7 32 54 54 30 14 58 26 61 26 3 0 30 11 58 23 100
46 175 72 282 98 44 11 105 26 135 34 75 20 92 22 196 24 76 1 96 -2 115 -18z
m-1005 -229 c6 -4 14 -14 17 -22 4 -8 20 -37 37 -65 28 -47 108 -207 152 -305
12 -25 25 -55 31 -67 5 -12 7 -28 4 -36 -3 -7 -49 -36 -104 -63 -54 -26 -106
-55 -116 -63 -15 -13 -20 -12 -42 9 -14 13 -25 32 -25 41 0 20 -37 96 -51 105
-5 3 -9 12 -9 20 0 15 -75 171 -126 263 -28 52 -31 80 -6 87 9 3 24 10 32 15
8 5 38 20 65 35 28 14 61 32 75 40 28 15 50 17 66 6z m-360 -110 c23 -14 208
-381 244 -482 7 -19 19 -49 27 -65 8 -17 14 -39 12 -49 -4 -17 -71 -59 -194
-122 -48 -24 -66 -33 -102 -54 -10 -5 -40 -21 -68 -35 -27 -15 -63 -34 -80
-44 -136 -80 -164 -91 -228 -91 -105 0 -430 -116 -524 -186 -17 -13 -35 -24
-40 -24 -5 0 -31 -20 -60 -45 -28 -25 -57 -45 -65 -45 -7 0 -28 31 -47 68 -18
37 -37 74 -42 82 -10 18 -39 78 -69 140 -11 25 -25 52 -30 60 -5 8 -25 49 -45
90 -20 41 -44 87 -53 102 -21 34 -12 44 75 86 37 19 75 38 83 42 22 13 276
137 350 171 36 17 72 35 80 40 30 17 253 123 300 143 8 3 29 15 45 25 28 18
150 80 185 95 8 3 22 10 30 14 8 5 31 16 50 25 19 8 60 27 90 41 62 29 61 28
76 18z m-729 -151 c33 -24 31 -74 -4 -99 -24 -16 -157 -83 -561 -280 -40 -20
-75 -39 -78 -44 -3 -4 -13 -8 -22 -8 -23 -1 -54 -29 -69 -62 -11 -24 -19 -28
-52 -28 -62 0 -88 54 -61 125 22 59 201 208 325 272 252 129 450 176 522 124z
m2873 -544 c116 -18 172 -32 212 -53 14 -8 35 -14 47 -14 45 0 268 -110 357
-177 78 -58 181 -157 195 -188 5 -11 21 -40 34 -64 14 -24 25 -50 25 -56 0 -7
7 -26 15 -41 9 -17 15 -56 15 -94 0 -38 -6 -77 -15 -94 -8 -15 -15 -35 -15
-43 0 -20 -73 -114 -109 -141 -73 -54 -226 -75 -381 -52 -47 6 -119 15 -160
19 -41 4 -85 13 -97 19 -12 7 -49 12 -82 12 -33 0 -71 4 -84 9 -14 6 -105 19
-204 31 -98 11 -207 26 -243 32 -83 14 -216 27 -350 34 -225 13 -330 -53 -330
-206 0 -76 -36 -127 -117 -166 -56 -27 -86 -35 -205 -54 -31 -5 -305 -9 -610
-8 -520 1 -637 -3 -983 -31 -115 -10 -254 -29 -305 -41 -19 -5 -66 -15 -105
-24 -113 -24 -147 -34 -158 -45 -6 -6 -19 -11 -29 -11 -15 0 -116 -46 -188
-85 -42 -23 -147 -137 -174 -189 -43 -82 -33 -171 28 -252 33 -43 98 -104 112
-104 4 0 15 -6 23 -13 9 -7 36 -21 61 -31 25 -10 59 -24 75 -32 44 -20 206
-33 289 -23 66 8 114 19 241 54 28 8 95 24 150 35 55 12 109 23 120 27 34 9
274 25 380 25 140 0 322 -17 370 -35 45 -16 48 -30 18 -122 -23 -72 -28 -80
-54 -78 -31 3 -140 21 -204 34 -79 17 -419 -12 -483 -41 -13 -5 -35 -10 -50
-10 -25 0 -97 -15 -217 -45 -111 -29 -166 -36 -290 -41 -230 -9 -405 41 -567
163 -90 68 -142 142 -166 233 -24 92 -25 116 -7 177 44 157 145 290 270 359
94 52 161 84 174 84 10 0 21 4 26 9 6 4 44 18 85 30 41 13 95 29 120 37 25 8
59 14 75 14 17 0 48 7 70 15 22 8 68 14 103 15 35 0 73 5 85 12 16 9 240 14
842 19 851 8 900 10 997 52 41 17 71 65 82 132 30 177 135 251 351 247 129 -3
331 -17 343 -25 12 -8 65 -15 267 -37 50 -6 122 -16 160 -24 76 -16 194 -35
377 -62 64 -9 184 -17 266 -18 l149 -1 56 38 c55 38 74 60 109 124 23 42 25
168 4 210 -8 15 -18 35 -21 43 -26 66 -136 183 -241 255 -47 33 -221 114 -289
135 -22 7 -50 16 -63 21 -13 5 -64 18 -115 29 -83 18 -128 20 -443 21 -202 0
-362 -4 -375 -10 -13 -5 -71 -15 -129 -21 -58 -6 -118 -15 -135 -20 -32 -10
-139 -25 -270 -39 -44 -5 -107 -14 -140 -20 -61 -11 -334 -24 -480 -22 -140 2
-247 20 -205 35 8 3 116 7 240 9 203 4 279 10 530 46 106 15 245 40 310 56 30
8 80 16 110 19 30 3 109 12 175 20 66 9 143 16 170 16 28 1 59 5 70 10 33 15
389 6 505 -13z m-3482 -213 c17 -31 32 -62 32 -69 0 -8 4 -16 9 -19 16 -10 81
-153 81 -179 0 -16 -12 -39 -32 -60 -18 -18 -52 -56 -75 -83 -24 -27 -50 -57
-58 -66 -8 -10 -19 -18 -24 -18 -11 0 -81 117 -81 135 0 8 -4 16 -9 19 -7 5
-62 112 -85 166 -3 8 -24 47 -45 85 -60 107 -54 124 44 126 22 0 49 4 60 9 11
5 49 9 85 9 l65 1 33 -56z m993 -121 c17 -5 49 -53 49 -75 0 -22 -60 -108
-109 -156 -48 -47 -155 -132 -166 -132 -4 0 -24 -13 -44 -28 -20 -16 -70 -45
-111 -66 -41 -20 -82 -40 -90 -45 -44 -24 -64 -32 -119 -51 -33 -11 -82 -20
-109 -20 -41 0 -54 5 -86 35 -35 32 -38 38 -31 72 14 78 116 195 235 271 81
52 228 126 290 147 30 9 70 24 88 31 18 8 54 14 80 14 26 0 54 5 62 10 8 5 22
7 30 4 8 -4 22 -8 31 -11z m2754 -953 c95 -26 176 -53 181 -61 3 -5 15 -9 28
-9 12 0 27 -5 34 -12 7 -7 37 -26 66 -43 73 -40 151 -107 251 -215 41 -44 95
-132 141 -230 15 -30 33 -67 40 -82 16 -29 19 -71 5 -66 -5 2 -45 37 -90 80
-77 72 -187 148 -215 148 -6 0 -17 5 -22 10 -49 49 -364 76 -524 45 -47 -9
-98 -19 -115 -22 -16 -3 -37 -11 -45 -17 -8 -6 -33 -20 -55 -31 -85 -41 -193
-138 -218 -195 -4 -8 -16 -28 -27 -45 -10 -16 -29 -50 -40 -75 -12 -25 -28
-58 -36 -73 -8 -16 -14 -36 -14 -45 0 -30 -33 -102 -46 -102 -8 0 -14 4 -14
10 0 5 -18 21 -39 36 -32 20 -56 27 -120 31 -72 5 -83 4 -123 -20 -56 -32 -70
-49 -108 -126 -27 -54 -31 -71 -27 -120 11 -147 87 -248 218 -290 38 -12 140
3 186 27 30 16 29 17 54 -35 68 -143 220 -276 444 -390 11 -6 34 -18 52 -27
17 -9 42 -16 55 -16 13 0 29 -5 35 -11 7 -7 53 -21 103 -33 90 -21 118 -39 70
-44 -14 -1 -52 -9 -86 -18 -47 -12 -98 -14 -225 -11 -158 4 -224 14 -281 43
-14 8 -34 14 -45 14 -10 0 -27 7 -37 15 -11 8 -27 15 -37 15 -9 0 -22 7 -29
15 -7 8 -20 15 -29 16 -35 1 -169 109 -248 199 -46 52 -83 97 -83 101 0 4 -23
41 -50 82 -48 70 -82 144 -99 212 -4 17 -13 40 -19 52 -7 12 -12 36 -12 53 0
17 -7 47 -15 67 -38 91 -3 437 60 588 51 123 72 161 123 228 74 98 214 216
315 267 23 11 49 25 57 29 8 5 35 17 60 26 25 10 54 21 65 26 11 5 61 18 110
29 74 16 116 19 235 16 80 -3 163 -10 185 -16z m-1605 -295 c25 -7 74 -20 110
-30 109 -29 164 -46 193 -61 16 -8 34 -14 40 -14 21 0 97 -42 97 -54 0 -7 -7
-21 -15 -32 -8 -10 -15 -29 -15 -41 0 -12 -4 -25 -10 -28 -10 -6 -28 -59 -61
-185 -17 -60 -21 -110 -22 -252 -2 -191 -4 -196 -53 -178 -60 23 -498 0 -569
-30 -11 -5 -33 -11 -50 -15 -44 -9 -195 -55 -230 -70 -16 -7 -46 -20 -65 -28
-19 -9 -42 -18 -50 -21 -8 -4 -28 -15 -45 -26 -16 -11 -39 -24 -50 -29 -11 -5
-29 -18 -39 -30 -26 -29 -58 -28 -52 2 3 12 13 63 22 112 9 50 22 110 29 135
7 25 21 74 31 110 10 36 21 70 25 75 4 6 12 30 19 55 11 43 30 87 86 207 13
29 29 62 34 75 55 120 213 311 286 344 74 33 255 38 354 9z m1830 -210 c14 -8
39 -14 57 -15 17 0 46 -7 65 -16 72 -36 90 -44 99 -44 22 0 170 -123 243 -202
103 -110 126 -157 126 -256 0 -107 -40 -304 -76 -375 -8 -16 -14 -37 -14 -46
0 -18 -51 -122 -74 -151 -7 -8 -17 -26 -23 -40 -17 -40 -165 -192 -232 -238
-34 -23 -81 -47 -105 -53 -77 -19 -238 -1 -351 40 -33 12 -69 25 -80 28 -11 3
-27 11 -35 17 -8 6 -31 20 -50 30 -19 11 -54 32 -78 48 -24 15 -45 28 -48 28
-21 0 -214 165 -214 183 0 5 -12 26 -27 46 -57 74 -76 125 -52 133 13 4 33
100 29 138 -8 66 -2 200 9 240 20 67 100 228 143 285 20 28 53 61 73 74 19 13
35 27 35 32 0 5 7 9 15 9 8 0 15 3 15 8 0 7 64 38 130 62 19 7 61 16 93 21 32
5 66 13 75 19 27 15 223 12 252 -5z m-1052 -544 c62 -25 96 -61 120 -129 26
-69 28 -120 7 -148 -8 -10 -15 -26 -15 -36 0 -20 -46 -60 -89 -78 -28 -11 -41
-10 -94 5 -114 34 -147 81 -147 210 0 69 3 85 25 117 25 37 91 76 130 77 11 0
39 -8 63 -18z m-448 -216 c11 -10 20 -30 20 -44 0 -54 65 -220 120 -306 11
-16 24 -39 29 -50 33 -72 236 -280 319 -327 50 -29 229 -116 262 -128 63 -22
183 -41 295 -46 112 -5 136 -2 379 57 l50 11 55 -58 c31 -33 66 -72 79 -89 12
-16 38 -51 58 -78 52 -69 162 -261 188 -327 3 -8 10 -22 15 -30 26 -40 85
-186 100 -245 4 -17 12 -39 18 -50 6 -11 13 -34 16 -52 7 -38 -2 -43 -78 -43
-49 0 -118 -23 -235 -78 -142 -68 -339 -261 -415 -407 -20 -39 -43 -29 -123
52 -123 125 -117 112 -77 158 19 22 44 51 55 65 11 14 36 43 55 65 19 22 35
44 35 49 0 4 13 25 28 45 32 41 109 169 133 221 37 80 49 112 49 128 0 10 7
27 15 38 8 10 15 29 15 42 0 13 7 37 16 54 15 29 15 32 -8 54 -20 21 -26 22
-41 11 -10 -7 -22 -28 -27 -47 -12 -52 -32 -105 -74 -202 -81 -187 -195 -347
-385 -537 -149 -149 -169 -166 -283 -225 -145 -75 -197 -87 -403 -93 -136 -3
-198 -1 -255 10 -118 24 -174 38 -185 48 -5 5 -17 9 -27 9 -18 0 -32 6 -151
59 -37 17 -69 31 -72 31 -3 0 -34 20 -70 45 -131 90 -129 86 -95 143 13 20 20
50 20 80 0 27 5 53 11 59 8 8 8 25 -2 65 -15 62 -32 93 -71 130 -33 32 -36 63
-8 78 17 9 30 6 70 -19 27 -17 78 -42 112 -57 35 -14 67 -30 73 -35 5 -5 20
-9 33 -9 13 0 33 -5 45 -12 52 -29 229 -40 324 -20 68 14 186 70 247 117 28
21 70 45 95 54 108 40 190 104 226 178 10 21 24 50 32 65 21 41 17 173 -8 246
-26 76 -91 152 -177 205 l-59 36 -122 2 c-90 1 -127 -3 -144 -13 -12 -8 -34
-18 -49 -21 -36 -9 -132 -99 -157 -148 -18 -33 -22 -59 -22 -130 0 -49 -4 -91
-9 -94 -11 -7 -111 15 -130 29 -8 6 -32 20 -53 31 -22 10 -58 41 -82 67 -49
54 -49 54 10 133 65 87 182 205 203 205 20 0 62 31 62 45 0 34 -69 28 -130
-10 -72 -46 -225 -226 -260 -307 -6 -13 -15 -32 -22 -43 -23 -40 -28 -50 -38
-72 -5 -13 -12 -23 -15 -23 -2 0 -33 19 -68 43 -118 78 -277 148 -372 162 -27
4 -56 12 -63 18 -9 7 -100 12 -265 13 l-252 2 -3 22 c-2 12 1 27 7 33 6 6 11
27 11 47 0 19 7 44 15 54 8 11 15 31 15 44 0 13 20 65 45 116 25 52 45 97 45
101 0 3 32 49 71 101 78 103 193 216 279 273 30 21 76 52 101 69 26 18 50 32
55 32 4 0 42 13 83 29 99 38 181 61 217 61 17 0 35 5 42 12 7 7 45 16 85 21
39 4 104 12 142 17 39 4 141 7 228 6 135 -3 160 -6 177 -21z m370 -996 c60
-32 152 -127 169 -175 22 -63 24 -126 7 -169 -9 -20 -16 -44 -16 -53 0 -19
-62 -95 -100 -122 -36 -25 -60 -17 -34 11 13 15 17 37 16 108 0 77 -4 95 -25
128 -38 59 -77 89 -133 103 -87 22 -149 -2 -259 -103 -16 -15 -37 -26 -45 -25
-42 8 -9 165 47 223 36 37 125 84 183 96 59 13 142 3 190 -22z m-1565 -108
c55 -6 125 -18 155 -27 141 -39 162 -46 202 -65 24 -11 61 -30 83 -42 71 -40
205 -146 205 -162 0 -10 -183 -249 -197 -258 -24 -15 -14 -44 32 -93 25 -26
45 -53 45 -59 0 -7 7 -18 15 -25 24 -20 20 -139 -6 -192 -29 -59 -59 -79 -122
-81 -59 -1 -100 18 -159 72 -20 18 -43 31 -50 29 -7 -3 -27 -32 -43 -64 -59
-120 -117 -172 -220 -199 -53 -13 -65 -13 -120 0 -146 37 -275 132 -323 238
-45 99 -47 109 -46 267 0 154 17 267 43 293 6 6 11 19 11 28 0 9 7 22 15 29
11 9 15 32 15 82 0 38 -7 84 -15 105 -8 19 -15 49 -15 64 0 38 18 44 151 59
57 6 106 14 109 16 6 6 96 0 235 -15z m815 -192 c19 -14 65 -40 103 -57 57
-27 79 -32 142 -32 91 0 146 26 214 103 8 9 20 17 25 17 5 0 17 7 27 16 12 11
37 16 81 16 60 0 64 -2 95 -38 30 -34 33 -43 33 -106 0 -54 -6 -82 -26 -124
-31 -66 -103 -142 -164 -172 -25 -13 -52 -27 -60 -31 -37 -21 -132 -41 -194
-41 -136 0 -325 59 -453 140 -32 21 -29 34 21 99 58 75 65 104 37 141 -27 37
-27 83 0 127 l22 35 31 -34 c17 -18 47 -45 66 -59z m-1885 15 c115 -38 140
-51 185 -94 52 -51 78 -112 82 -194 3 -48 2 -50 -27 -57 -63 -14 -142 -66
-217 -142 -43 -43 -78 -85 -78 -93 0 -21 -18 -17 -95 21 -38 19 -75 35 -82 35
-7 0 -27 6 -45 14 -94 39 -213 64 -348 75 -58 4 -84 10 -83 18 4 18 65 111
110 168 81 100 195 205 225 205 8 0 19 5 26 12 44 44 251 63 347 32z m434
-413 c13 -8 13 -15 2 -49 -8 -23 -11 -53 -7 -69 4 -15 13 -57 21 -93 19 -94
38 -142 90 -225 30 -50 146 -145 215 -177 101 -48 268 -59 327 -22 12 8 28 14
35 14 25 0 117 96 143 147 14 29 30 55 35 58 5 3 28 -8 52 -24 24 -16 65 -36
91 -45 45 -15 52 -15 96 1 l48 17 34 -32 c19 -18 37 -32 41 -32 4 0 14 -7 22
-15 22 -23 149 -105 161 -105 6 0 16 -5 22 -11 16 -16 259 -99 318 -109 28 -5
75 -14 105 -20 71 -16 416 -9 447 8 43 24 41 -3 -12 -123 -7 -16 -16 -37 -19
-45 -3 -8 -10 -22 -14 -30 -5 -8 -18 -33 -28 -55 -28 -61 -154 -222 -231 -296
-88 -86 -250 -205 -333 -245 -119 -58 -305 -103 -420 -103 -78 0 -189 22 -241
47 -25 12 -51 22 -58 22 -36 0 -261 169 -261 196 0 6 19 19 43 30 116 50 242
153 342 280 94 120 224 221 318 248 26 8 22 50 -7 66 -22 11 -32 10 -81 -10
-66 -27 -167 -102 -215 -161 -159 -196 -234 -265 -339 -315 -42 -21 -84 -41
-93 -45 -62 -30 -266 -37 -385 -13 -43 9 -96 20 -118 24 -86 18 -281 95 -360
143 -56 34 -186 141 -212 174 -33 44 -63 106 -63 131 0 9 -8 31 -17 47 -24 44
-24 306 1 390 28 95 46 147 64 185 44 92 157 190 264 229 56 20 153 27 177 12z
m-854 -133 c93 -24 228 -70 245 -84 8 -6 24 -14 35 -16 27 -4 32 -57 11 -109
-9 -22 -16 -50 -16 -64 0 -36 -14 -38 -72 -10 -51 25 -81 37 -176 71 -107 38
-324 61 -379 41 -30 -11 -38 21 -18 68 8 21 15 49 15 63 0 14 8 34 17 44 15
17 30 19 148 15 71 -2 157 -11 190 -19z m4738 -54 c20 -4 32 -18 47 -51 11
-25 20 -56 20 -69 0 -14 4 -32 9 -42 5 -9 13 -48 18 -87 l8 -70 45 -6 c141
-20 190 -67 190 -184 -1 -60 -5 -76 -28 -109 -15 -22 -40 -47 -57 -56 l-30
-17 -5 -121 c-3 -77 -10 -126 -17 -134 -7 -6 -13 -20 -13 -29 0 -49 -74 -133
-139 -157 -20 -8 -78 -14 -131 -15 -85 -1 -101 2 -150 27 -30 15 -62 34 -71
42 -8 8 -19 14 -24 14 -19 0 -97 75 -147 142 -30 40 -76 117 -103 170 -26 53
-60 106 -74 117 -14 12 -41 33 -58 47 -24 18 -33 34 -33 55 0 100 243 371 407
453 69 35 202 82 248 89 30 4 39 3 88 -9z m-4803 -219 c47 -9 89 -21 95 -26 5
-5 17 -9 27 -9 28 0 152 -55 175 -78 9 -9 13 -45 13 -120 1 -67 6 -122 15
-147 8 -22 15 -50 15 -63 0 -13 7 -37 16 -53 24 -48 15 -69 -46 -103 -51 -28
-62 -30 -155 -31 -55 0 -118 6 -140 12 -22 7 -52 15 -67 18 -74 15 -212 197
-245 323 -19 71 -33 261 -21 285 8 16 21 18 121 14 62 -3 150 -12 197 -22z
m1164 -1010 c34 -10 94 -15 193 -15 l143 0 67 -68 c64 -64 211 -172 234 -172
23 0 69 -35 69 -53 0 -10 -7 -32 -15 -48 -8 -16 -23 -44 -32 -61 -9 -18 -27
-44 -40 -57 -13 -13 -23 -27 -23 -31 0 -3 -21 -22 -47 -41 -123 -88 -312 -95
-463 -18 -79 40 -136 120 -174 246 -22 72 -22 279 0 311 18 26 24 26 88 7z
m1591 -741 c61 -8 142 -19 180 -23 39 -4 90 -13 115 -19 48 -12 125 -28 205
-42 72 -12 233 -53 310 -78 89 -29 135 -42 152 -42 10 0 27 -6 38 -13 11 -7
47 -21 80 -31 33 -10 69 -23 80 -29 11 -5 33 -14 50 -18 35 -9 157 -53 200
-73 17 -8 41 -18 55 -24 60 -24 133 -59 255 -119 139 -69 147 -73 213 -115 24
-16 45 -28 47 -28 2 0 46 -28 97 -62 98 -66 158 -115 158 -130 0 -6 -56 -7
-137 -4 -224 10 -306 11 -350 5 -23 -3 -48 -2 -55 2 -8 4 -430 10 -939 13
-508 4 -955 6 -994 7 -38 0 -103 -2 -143 -6 -49 -5 -77 -4 -86 4 -13 11 -141
14 -506 12 -74 0 -146 0 -160 1 -14 0 -38 1 -55 0 -181 -2 -410 0 -416 4 -5 3
-338 7 -740 9 -402 2 -733 6 -735 8 -6 5 143 107 156 107 5 0 25 11 44 24 20
13 100 56 178 96 79 39 166 83 193 98 47 24 89 43 125 56 8 3 22 10 30 14 45
26 234 102 253 102 9 0 28 6 44 14 53 27 101 46 118 46 9 0 28 6 43 14 15 7
63 23 107 34 44 12 94 25 110 31 47 15 137 40 165 45 14 2 52 11 85 19 33 9
62 14 66 11 4 -2 23 3 43 11 19 8 55 15 80 15 25 0 57 5 73 11 15 6 64 15 108
19 44 5 107 13 140 19 33 6 113 12 178 14 64 2 121 7 125 12 12 12 497 -4 617
-21z"/>
<path d="M3630 7914 c-70 -16 -127 -37 -142 -52 -7 -7 -17 -12 -22 -12 -16 0
-79 -61 -115 -110 -58 -80 -32 -192 52 -219 64 -21 198 14 292 77 96 63 137
119 137 187 0 66 -30 109 -92 129 -27 9 -50 15 -52 15 -2 -1 -28 -7 -58 -15z
m97 -65 c58 -22 58 -68 1 -131 -63 -69 -143 -107 -259 -125 -44 -6 -89 19 -89
49 0 51 67 122 161 169 97 49 136 57 186 38z"/>
<path d="M6155 5631 c-49 -9 -93 -32 -120 -61 -25 -28 -27 -113 -3 -162 9 -18
24 -53 33 -78 9 -25 23 -58 30 -75 8 -16 16 -43 18 -60 20 -123 57 -207 103
-236 34 -20 49 -22 183 -22 169 -1 225 16 261 75 25 42 29 189 5 234 -8 16
-15 41 -15 56 0 14 -7 39 -15 55 -8 15 -24 54 -37 86 -29 77 -76 130 -142 161
-43 20 -73 26 -157 30 -57 3 -122 1 -144 -3z m225 -55 c73 -18 106 -37 137
-77 31 -42 73 -131 73 -156 0 -11 7 -28 15 -39 8 -10 15 -40 15 -66 0 -26 5
-50 10 -53 6 -3 10 -33 10 -66 0 -53 -4 -64 -28 -89 -26 -25 -37 -29 -127 -35
-185 -14 -285 9 -285 66 0 10 -4 20 -9 23 -4 3 -11 23 -15 44 -11 71 -39 155
-113 333 -17 41 -11 74 15 83 9 3 24 10 32 15 53 32 177 40 270 17z"/>
<path d="M5754 3509 c-11 -4 -33 -8 -50 -8 -74 -2 -179 -84 -201 -160 -18 -56
-16 -116 3 -154 25 -50 64 -97 87 -108 12 -5 42 -22 67 -37 41 -25 53 -27 150
-27 123 0 150 11 220 85 59 62 86 149 61 198 -4 9 -16 34 -27 56 -18 37 -95
111 -142 135 -30 16 -145 29 -168 20z m139 -107 c122 -57 161 -152 97 -240
-74 -103 -224 -110 -360 -16 -53 36 -73 82 -63 150 5 37 13 51 45 77 91 73
171 81 281 29z"/>
<path d="M4820 3110 c-69 -12 -101 -28 -142 -68 -37 -35 -38 -39 -38 -105 0
-85 20 -122 101 -192 222 -189 474 -191 569 -4 24 46 25 78 5 105 -8 10 -15
27 -15 37 0 23 -107 127 -156 152 -21 10 -46 24 -54 30 -47 34 -193 58 -270
45z m243 -118 c85 -43 157 -104 183 -154 21 -40 -1 -88 -57 -125 -39 -25 -50
-28 -125 -27 -57 1 -93 7 -116 19 -18 10 -46 25 -63 33 -58 30 -136 93 -162
133 -26 39 -26 39 -8 79 32 72 74 91 188 86 68 -2 88 -8 160 -44z"/>
<path d="M2400 3562 c-74 -20 -130 -88 -130 -156 0 -37 32 -98 66 -127 11 -8
38 -22 62 -29 50 -16 117 -4 162 29 38 27 73 105 66 145 -7 35 -46 91 -82 119
-24 18 -106 29 -144 19z m127 -84 c60 -67 15 -157 -77 -158 -36 0 -53 6 -78
28 -49 42 -51 75 -9 117 31 31 41 35 89 35 44 0 59 -4 75 -22z"/>
<path d="M6853 8595 c-19 -13 -23 -26 -23 -71 0 -30 7 -71 15 -91 23 -55 19
-78 -19 -107 -19 -14 -38 -26 -41 -26 -4 0 -29 -23 -56 -51 -82 -86 -61 -129
66 -137 45 -3 75 -9 76 -16 0 -6 0 -36 -1 -67 -3 -116 31 -169 96 -153 26 7
83 77 119 147 21 40 47 47 101 26 16 -5 60 -14 99 -19 87 -11 115 2 115 54 0
18 -7 39 -15 46 -8 7 -15 17 -15 23 0 13 -87 97 -100 97 -18 0 -10 37 12 56
33 29 78 105 78 131 0 13 -7 35 -16 48 -14 22 -23 25 -78 25 -33 -1 -79 -7
-101 -15 -78 -28 -102 -22 -164 45 -63 68 -107 85 -148 55z m127 -126 c80 -79
69 -76 200 -49 97 20 111 19 104 -4 -3 -12 -30 -46 -60 -76 -30 -31 -54 -63
-54 -71 0 -9 32 -46 70 -83 60 -56 82 -86 66 -86 -2 0 -50 9 -106 21 -57 11
-108 18 -115 15 -16 -6 -75 -93 -75 -111 0 -8 -5 -17 -11 -20 -5 -4 -14 -18
-19 -31 -5 -13 -14 -24 -20 -24 -11 0 -11 0 -13 135 l-2 90 -87 3 c-61 2 -88
7 -88 15 0 7 34 36 75 66 89 65 96 84 66 181 -22 70 -26 100 -12 100 4 0 41
-32 81 -71z"/>
<path d="M2653 4768 c-11 -13 -28 -50 -38 -83 -10 -33 -19 -62 -21 -63 -1 -2
-36 -5 -77 -6 -54 -2 -81 -8 -100 -22 -31 -22 -35 -63 -9 -84 32 -28 71 -50
87 -50 24 0 23 -50 -1 -88 -9 -14 -14 -41 -12 -70 l3 -47 43 -3 c38 -3 48 2
96 43 l54 46 56 -55 c31 -31 62 -56 70 -56 27 0 66 23 72 43 7 22 -4 104 -17
128 -9 17 21 59 44 59 26 1 57 38 57 69 0 40 -29 59 -111 72 -35 6 -64 11 -64
12 -10 19 -35 97 -35 108 0 17 -50 69 -66 69 -6 0 -20 -10 -31 -22z m57 -94
c6 -14 10 -39 10 -55 0 -26 6 -32 46 -49 25 -11 63 -20 85 -20 50 0 51 -20 2
-44 -21 -10 -45 -22 -53 -26 -20 -10 -17 -53 8 -119 12 -30 19 -58 16 -62 -14
-24 -38 -3 -104 92 -3 4 -16 10 -30 13 -20 5 -36 -4 -79 -43 -76 -69 -91 -57
-44 36 37 73 26 88 -102 128 -20 6 -20 7 -1 21 13 9 45 14 91 14 67 0 71 1 88
29 9 16 17 40 17 54 0 58 32 78 50 31z"/>
<path d="M6072 1874 c-29 -20 -52 -41 -52 -45 0 -15 -64 -10 -87 6 -12 8 -44
20 -72 26 -44 9 -56 8 -76 -5 -31 -21 -31 -41 0 -113 l25 -57 -44 -38 c-56
-49 -73 -87 -56 -127 14 -34 33 -41 120 -41 36 0 71 -4 79 -9 8 -5 24 -33 36
-63 27 -63 81 -102 109 -79 21 17 56 97 56 126 0 31 31 55 72 55 54 0 97 19
104 45 9 38 -4 62 -62 111 -57 49 -62 64 -43 119 7 18 9 44 5 59 -6 26 -39 66
-54 66 -4 0 -31 -16 -60 -36z m47 -132 l-13 -53 45 -39 c24 -22 50 -39 57 -40
6 0 12 -9 12 -20 0 -17 -7 -20 -48 -20 -26 0 -57 -7 -69 -15 -19 -13 -53 -95
-53 -128 0 -8 -7 -20 -15 -27 -19 -16 -45 3 -45 32 0 28 -37 96 -59 108 -11 5
-54 10 -95 10 -61 0 -76 3 -76 15 0 8 4 15 9 15 12 0 94 68 105 87 5 10 1 24
-12 43 -12 15 -24 40 -28 54 -5 22 -3 26 15 26 18 0 66 -17 113 -41 31 -16 50
-10 88 29 20 20 45 42 56 48 16 10 20 8 23 -10 1 -11 -3 -45 -10 -74z"/>
</g>
</svg>
