<?xml version="1.0" standalone="no"?>
<!DOCTYPE svg PUBLIC "-//W3C//DTD SVG 20010904//EN"
 "http://www.w3.org/TR/2001/REC-SVG-20010904/DTD/svg10.dtd">
<svg version="1.0" xmlns="http://www.w3.org/2000/svg"
 width="300.000000pt" height="366.000000pt" viewBox="0 0 300.000000 366.000000"
 preserveAspectRatio="xMidYMid meet">
<metadata>
Created by potrace 1.10, written by Peter Selinger 2001-2011
</metadata>
<g transform="translate(0.000000,366.000000) scale(0.100000,-0.100000)"
fill="#000000" stroke="none">
<path d="M416 3600 c-57 -22 -129 -87 -157 -143 -25 -48 -47 -136 -53 -212 -3
-33 -12 -93 -20 -133 -28 -131 -18 -332 24 -498 19 -73 19 -75 0 -137 -11 -34
-40 -95 -66 -135 -26 -40 -44 -79 -40 -87 9 -24 73 -21 253 12 29 5 31 4 26
-18 -3 -13 -27 -46 -53 -74 -57 -62 -111 -145 -162 -251 -54 -112 -56 -168 -8
-250 38 -63 195 -228 228 -238 11 -4 26 -20 32 -37 13 -30 12 -32 -57 -102
-144 -149 -253 -314 -293 -447 -22 -76 -19 -182 8 -242 l21 -48 -25 0 -24 0 0
-148 c0 -82 -3 -189 -6 -238 -3 -49 -1 -95 3 -102 7 -9 302 -12 1424 -12 778
0 1420 0 1427 0 9 0 12 57 12 250 l0 251 -325 -1 -326 -2 -22 34 c-20 30 -22
43 -19 160 l4 126 59 7 c32 4 61 11 64 16 14 21 17 110 5 138 -10 25 -19 30
-63 36 -60 8 -80 17 -83 36 -17 112 -17 107 7 111 21 3 23 7 21 48 -7 98 -71
189 -148 210 -147 41 -308 -66 -340 -228 -6 -29 -4 -32 23 -38 l29 -6 -17 -66
-17 -67 -54 -5 c-30 -3 -61 -10 -69 -17 -8 -6 -50 -18 -94 -26 -44 -7 -89 -18
-99 -22 -17 -7 -18 -5 -12 20 6 25 7 212 2 420 -1 55 -12 49 102 53 28 1 52 5
52 10 0 4 -31 44 -69 88 l-69 81 50 6 c58 7 175 59 184 81 3 8 12 12 19 10 7
-3 27 2 44 10 16 9 43 16 60 16 20 0 36 8 50 26 11 14 24 23 29 20 16 -9 89
34 101 60 14 32 14 89 0 116 -14 26 -14 26 118 79 96 38 103 40 125 25 32 -23
73 -20 100 7 13 13 57 34 98 47 85 26 101 36 76 46 -15 6 -83 -10 -143 -33 -7
-3 -13 -1 -13 5 0 8 146 72 263 115 32 11 30 33 -3 29 -12 -1 -76 -25 -142
-53 -65 -28 -122 -48 -125 -45 -4 3 -4 8 -2 10 12 11 235 117 306 145 59 24
80 37 76 47 -3 8 -6 14 -8 14 -14 0 -201 -83 -284 -125 -97 -50 -106 -52 -127
-39 -32 21 -69 8 -93 -32 -11 -19 -28 -34 -36 -34 -9 0 -77 -20 -151 -45
l-134 -44 -46 35 c-48 36 -59 37 -115 8 -27 -14 -84 -73 -91 -95 -5 -14 -111
-18 -160 -6 -17 5 -53 39 -100 94 -40 49 -92 108 -115 132 -24 25 -43 52 -43
60 -2 40 -26 73 -65 87 -22 7 -47 14 -56 14 -22 0 -32 40 -14 60 18 21 57 138
57 175 0 45 -32 117 -48 111 -12 -4 -11 0 1 24 20 38 20 114 0 130 -13 10 -1
20 73 62 102 59 112 66 112 83 0 7 -46 28 -107 47 -107 35 -108 36 -129 79
-34 71 -150 188 -216 219 -31 15 -79 47 -107 72 -90 81 -206 107 -305 68z
m214 -45 c67 -35 117 -92 150 -174 53 -129 37 -148 -51 -60 -84 84 -149 113
-238 107 -99 -7 -197 -65 -239 -143 -11 -20 -11 -20 -12 1 0 36 48 162 76 199
30 39 98 83 147 96 46 11 115 1 167 -26z m224 -144 c55 -38 132 -129 165 -194
14 -29 31 -52 36 -52 22 -1 106 -28 111 -36 3 -5 -6 -9 -20 -9 -37 0 -312 -65
-381 -90 -97 -36 -114 -43 -217 -92 -110 -53 -104 -42 -113 -193 -12 -206
-113 -386 -257 -461 -37 -19 -35 -6 5 58 68 109 87 189 63 278 -39 143 -51
363 -27 485 35 176 111 263 249 286 90 14 157 -14 239 -98 69 -71 101 -81 129
-38 15 24 15 29 -1 83 -10 31 -25 67 -33 80 -20 31 0 29 52 -7z m356 -315 c0
-5 -136 -86 -144 -86 -3 0 -6 16 -6 35 0 33 2 35 33 36 17 1 43 5 57 9 28 9
60 12 60 6z m-167 -283 c23 -26 22 -45 -5 -70 -52 -47 -92 -56 -77 -17 5 15 7
35 3 46 -8 26 -68 51 -105 43 -42 -9 -38 -35 5 -35 47 0 66 -9 66 -31 0 -22
-93 -99 -120 -99 -24 0 -68 19 -99 42 -38 28 -44 23 -38 -31 11 -93 49 -136
131 -147 58 -8 108 1 141 28 14 11 43 22 63 23 20 1 46 6 56 10 19 8 19 8 0
-24 -10 -18 -26 -36 -34 -41 -8 -4 -60 -10 -115 -14 -55 -3 -118 -11 -140 -16
-31 -7 -48 -5 -80 9 -95 43 -205 208 -213 322 l-4 59 98 46 c119 56 205 87
339 123 l100 27 5 -117 c4 -93 9 -121 23 -136z m37 95 c0 -35 -10 -59 -21 -52
-10 6 -12 87 -2 97 10 11 23 -14 23 -45z m30 -205 c0 -58 -88 -128 -137 -109
-10 4 -27 -3 -44 -19 -57 -56 -169 -39 -203 31 -21 46 -21 45 19 28 52 -21 87
-17 137 16 33 22 53 29 71 25 34 -9 91 17 118 54 26 35 39 27 39 -26z m-607
-62 c18 -40 50 -80 96 -124 67 -63 69 -65 43 -70 -35 -7 -83 22 -145 87 -47
48 -49 52 -42 91 4 22 7 48 7 58 -1 31 13 17 41 -42z m47 -204 c21 -14 23 -18
10 -26 -20 -14 -26 -14 -42 2 -7 8 -29 14 -47 14 -23 0 -40 7 -52 21 -16 21
-16 25 -2 62 l16 39 46 -47 c25 -27 57 -56 71 -65z m506 -2 c0 -17 12 -50 26
-75 46 -78 102 -233 143 -393 l22 -88 -38 -20 c-49 -25 -59 -24 -59 4 0 13 -2
26 -5 28 -6 6 -155 -15 -218 -32 -53 -13 -64 -27 -48 -57 9 -16 5 -20 -26 -30
-21 -6 -37 -10 -38 -9 -1 1 -9 38 -19 82 -27 118 -62 217 -116 333 -34 70 -44
102 -35 102 8 0 17 4 20 10 11 17 -26 72 -56 83 -16 6 -29 14 -29 18 0 11 171
54 265 65 22 3 41 7 44 9 2 2 40 3 85 2 l81 -2 1 -30z m-646 -25 c12 -12 33
-20 54 -20 18 0 39 -7 46 -15 10 -12 10 -15 -1 -15 -8 0 -38 -11 -67 -25 -30
-14 -64 -27 -75 -30 -12 -2 -40 -9 -62 -14 -67 -17 -69 -13 -13 38 29 27 60
61 67 75 17 31 25 32 51 6z m737 14 c19 -5 39 -31 30 -40 -8 -9 -87 20 -87 32
0 15 21 18 57 8z m26 -75 c34 -15 116 -215 151 -367 l14 -62 -28 -15 c-33 -17
-35 -15 -45 45 -9 61 -101 331 -126 375 -18 29 -18 35 -5 35 8 0 26 -5 39 -11z
m-563 -39 c-8 -5 -22 -10 -32 -10 -15 0 -113 -29 -150 -45 -29 -12 -22 22 9
42 14 10 56 25 92 34 58 15 68 15 81 3 13 -13 13 -16 0 -24z m1685 -39 c3 -6
-4 -15 -15 -21 -27 -15 -25 -73 3 -78 14 -3 17 1 12 21 -4 14 -2 28 4 31 16
10 24 -36 12 -67 -13 -33 -25 -34 -56 -2 -29 29 -33 79 -8 107 18 20 38 23 48
9z m-1664 -63 c65 -135 128 -319 144 -428 4 -25 9 -48 11 -52 3 -4 25 -1 51 7
53 16 63 13 63 -19 0 -16 -12 -29 -40 -45 l-40 -22 -62 29 c-35 17 -71 33 -80
36 -13 4 -18 16 -18 44 0 77 -68 317 -120 427 -16 33 -27 61 -25 63 4 4 58 18
78 21 4 1 21 -27 38 -61z m719 -48 c40 -50 81 -95 92 -101 11 -6 50 -14 87
-18 l66 -7 -39 -12 c-21 -6 -43 -18 -50 -26 -6 -9 -39 -27 -73 -40 l-62 -24
-6 31 c-13 62 -58 202 -76 239 -19 38 -22 48 -15 48 2 0 37 -41 76 -90z m-832
-12 c57 -133 131 -438 107 -438 -4 0 -17 9 -29 19 -11 11 -38 34 -59 53 l-38
33 25 37 c21 30 23 38 11 48 -11 9 -17 6 -31 -17 -10 -15 -20 -30 -22 -33 -1
-2 -7 2 -11 9 -10 16 -31 6 -31 -14 0 -7 29 -43 64 -79 56 -57 62 -67 49 -78
-22 -18 -117 -148 -137 -187 l-17 -32 -28 20 c-47 34 -149 149 -181 204 -17
30 -30 67 -30 87 0 134 221 460 305 448 14 -2 29 -25 53 -80z m1682 43 c0 -14
-13 -24 -47 -37 -27 -9 -82 -31 -123 -48 -78 -33 -123 -36 -118 -9 2 10 51 32
143 63 77 27 141 48 143 49 1 1 2 -8 2 -18z m-387 -33 c29 -15 67 -56 67 -72
0 -40 -50 -46 -94 -12 l-31 24 -43 -21 c-24 -11 -46 -17 -49 -13 -13 13 92
106 120 106 5 0 18 -5 30 -12z m-44 -117 c12 -8 12 -12 -2 -25 -8 -9 -22 -16
-30 -16 -19 0 -67 -38 -67 -54 0 -15 -101 -59 -112 -48 -5 5 -9 26 -11 47 l-2
39 90 32 c99 35 113 38 134 25z m182 -23 c38 -61 2 -143 -60 -136 -17 1 -35
-7 -53 -25 -20 -20 -34 -26 -51 -22 -15 4 -28 1 -36 -9 -8 -9 -22 -16 -32 -16
-22 0 -73 65 -63 81 5 8 9 7 16 -5 5 -9 16 -16 25 -16 12 0 14 7 9 35 -6 29
-3 36 17 50 13 8 31 13 39 10 8 -3 23 7 36 25 14 18 32 30 45 30 13 0 32 7 43
15 29 22 42 18 65 -17z m-438 -100 c4 -12 5 -23 4 -23 -1 -1 -40 -16 -87 -34
-89 -34 -216 -94 -285 -133 -94 -54 -281 -170 -337 -209 l-26 -18 -11 31 c-6
17 -11 32 -11 33 0 2 149 93 225 138 125 73 476 234 516 237 4 0 9 -10 12 -22z
m129 -88 c19 -28 23 -42 15 -48 -27 -21 -95 -51 -132 -57 -22 -3 -51 -8 -65
-11 -24 -4 -25 -2 -28 54 l-2 58 54 18 c29 10 59 15 65 12 6 -4 19 -2 28 3 29
17 38 13 65 -29z m-524 5 c2 -16 -16 -30 -89 -68 -50 -27 -92 -47 -94 -45 -6
8 -23 93 -19 97 7 7 166 40 184 38 8 -1 16 -11 18 -22z m282 -71 c0 -19 -7
-22 -71 -28 -39 -4 -83 -12 -97 -17 -13 -5 -27 -7 -30 -5 -2 3 38 25 89 49 96
45 109 45 109 1z m30 -115 c30 -34 63 -70 73 -80 9 -11 17 -23 17 -27 0 -4
-48 -13 -107 -19 -60 -7 -118 -14 -130 -17 -104 -22 -106 -21 -156 33 -25 28
-48 48 -51 43 -2 -4 -8 -36 -12 -70 -3 -34 -9 -62 -13 -62 -29 0 -183 -30
-199 -39 -33 -17 -37 -14 -38 32 -1 41 1 43 55 77 58 37 126 61 248 88 64 14
72 19 75 41 3 23 10 27 83 42 44 9 85 17 90 18 6 0 35 -27 65 -60z m-279 8
c-10 -10 -83 -28 -89 -22 -2 2 13 11 32 20 20 10 39 22 42 27 4 6 10 5 15 -3
4 -8 4 -18 0 -22z m-421 -3 l55 -25 -33 -27 c-36 -30 -36 -44 8 -134 22 -44
22 -48 6 -72 -16 -25 -29 -30 -72 -27 -14 2 -23 -5 -27 -19 -5 -18 -12 -20
-69 -19 -77 2 -106 18 -142 77 -27 45 -27 45 -10 78 10 19 45 70 77 114 l58
80 47 0 c29 0 68 -10 102 -26z m478 -199 c26 7 79 16 119 20 66 6 72 5 73 -12
7 -133 8 -438 2 -473 -7 -42 -10 -45 -42 -49 -19 -2 -92 2 -161 9 l-127 13 -5
141 c-3 78 -8 150 -11 161 -6 18 -1 22 37 32 45 12 121 73 100 80 -6 2 -39
-10 -72 -26 -39 -20 -75 -31 -103 -31 -40 0 -44 -3 -54 -32 -7 -18 -28 -73
-47 -123 -19 -49 -43 -125 -53 -167 l-18 -78 -163 0 -163 0 0 34 c0 60 20 280
28 311 8 27 12 30 46 27 39 -4 96 14 96 29 0 5 11 9 24 9 13 0 54 11 90 25 65
24 115 38 186 50 105 17 106 18 101 49 -1 5 1 22 4 38 l7 29 30 -39 30 -39 46
12z m869 -6 c57 -21 107 -90 118 -163 l6 -34 -53 -7 c-29 -3 -123 -5 -208 -3
-178 3 -176 2 -122 95 53 89 177 143 259 112z m-1602 -120 c4 -6 16 -14 28
-18 19 -7 18 -10 -20 -47 -53 -52 -130 -145 -180 -219 -112 -166 -152 -329
-100 -406 49 -73 170 -121 247 -99 43 12 40 13 40 -4 0 -7 -12 -26 -27 -42
-25 -27 -31 -29 -95 -27 -133 3 -213 52 -259 160 -66 154 35 390 275 641 71
74 80 80 91 61z m555 -144 c13 -114 13 -198 0 -211 -5 -5 -13 -38 -16 -72 -6
-56 -10 -63 -39 -81 -17 -10 -43 -26 -58 -35 l-26 -17 6 76 c4 48 2 79 -4 83
-7 5 -4 32 9 82 27 104 98 284 109 273 4 -4 13 -49 19 -98z m-524 23 c-5 -17
-23 -209 -26 -270 0 -5 -7 -8 -16 -8 -13 0 -15 -7 -10 -32 7 -34 23 -181 29
-265 4 -51 3 -52 -25 -59 -72 -15 -186 26 -222 80 -36 55 -11 186 60 314 39
69 190 262 206 262 6 0 8 -10 4 -22z m1656 -39 c29 -142 31 -535 2 -564 -31
-30 -387 -26 -418 5 -5 5 -4 50 3 117 17 144 16 143 55 143 26 0 35 6 45 26
34 75 21 169 -25 180 -25 7 -25 6 -3 96 l9 36 162 -2 163 -3 7 -34z m151 -136
c4 -2 7 -26 7 -53 l0 -50 -40 -6 c-22 -4 -43 -6 -47 -5 -5 0 -10 30 -13 66
l-5 65 45 -6 c25 -4 48 -8 53 -11z m-488 -55 c0 -31 -4 -60 -8 -65 -4 -4 -39
-8 -77 -9 l-70 -2 7 27 c4 14 7 43 6 63 -1 42 9 47 92 44 l50 -1 0 -57z m-175
-1 l0 -33 -77 -11 c-43 -6 -86 -14 -95 -18 -14 -5 -18 -2 -18 14 0 12 -6 21
-15 21 -8 0 -15 4 -15 9 0 5 35 17 78 26 42 9 82 18 87 20 6 2 20 4 33 4 18 1
22 -4 22 -32z m-383 -64 l152 -6 3 -140 3 -140 55 -14 c63 -16 122 -52 146
-88 16 -25 24 -119 10 -132 -22 -23 -392 -31 -503 -12 -70 12 -65 5 -83 119
-11 71 -13 371 -3 408 5 21 10 23 37 18 17 -4 100 -9 183 -13z m415 -43 l50 0
-6 -37 c-3 -21 -8 -74 -12 -118 -6 -75 -9 -82 -41 -112 l-35 -32 -48 33 c-43
29 -109 53 -133 47 -5 -1 -7 48 -5 109 l3 111 35 9 c101 27 114 28 129 9 10
-14 26 -19 63 -19z m-824 -141 c-2 -110 -7 -161 -16 -172 -11 -13 -9 -20 15
-44 43 -43 55 -71 61 -138 3 -45 1 -64 -10 -72 -38 -32 -333 -41 -430 -13 -35
10 -38 14 -38 46 0 39 43 134 72 160 10 10 42 25 70 35 29 10 51 21 48 26 -6
10 -69 9 -92 -1 -16 -7 -18 -1 -18 60 -1 66 -10 161 -25 234 l-6 35 186 0 186
0 -3 -156z m152 31 c0 -31 -5 -42 -22 -51 -13 -7 -40 -25 -60 -41 l-38 -30 0
44 c0 40 3 45 53 80 28 20 55 37 60 38 4 0 7 -18 7 -40z m0 -140 l0 -60 -60 0
c-51 0 -60 3 -60 18 0 15 100 102 116 102 2 0 4 -27 4 -60z m714 -39 c5 -7 61
-19 136 -27 51 -6 207 -5 255 1 102 13 96 14 118 -38 11 -26 18 -49 16 -52 -8
-7 -63 -16 -165 -25 -88 -9 -280 -1 -369 15 -11 2 -23 4 -27 4 -5 1 -8 10 -8
22 0 11 -5 29 -11 41 -9 16 -7 24 12 44 24 26 35 29 43 15z m-1566 -82 c50
-44 95 -60 185 -67 l78 -5 -8 -31 c-12 -49 -8 -94 10 -114 28 -31 112 -46 259
-45 154 1 237 19 263 55 30 44 15 142 -32 206 l-25 33 64 -3 63 -3 7 -60 c4
-33 12 -70 17 -82 16 -36 99 -48 331 -47 243 1 289 10 302 61 9 35 5 35 109
13 64 -13 399 -4 449 12 44 14 45 15 45 56 l0 42 303 0 302 0 0 -215 0 -215
-368 -2 c-202 -2 -832 -2 -1399 0 l-1033 2 0 220 c0 217 0 220 21 220 12 0 37
-14 57 -31z"/>
<path d="M820 3175 c0 -8 7 -15 15 -15 8 0 15 7 15 15 0 8 -7 15 -15 15 -8 0
-15 -7 -15 -15z"/>
<path d="M740 3160 c-11 -7 -12 -12 -3 -21 13 -13 33 -4 33 17 0 16 -9 18 -30
4z"/>
<path d="M587 3090 c-100 -49 -152 -89 -138 -103 7 -7 20 -2 43 15 30 23 152
84 201 102 22 7 13 26 -11 26 -9 -1 -52 -18 -95 -40z"/>
<path d="M945 2890 c-11 -18 7 -60 26 -60 19 0 25 23 13 54 -7 18 -30 21 -39
6z"/>
<path d="M670 2817 c0 -30 24 -62 38 -53 25 15 10 76 -19 76 -13 0 -19 -7 -19
-23z"/>
<path d="M992 2374 c1 -9 9 -19 16 -22 9 -3 13 2 10 14 -1 9 -9 19 -16 22 -9
3 -13 -2 -10 -14z"/>
<path d="M830 2369 c-25 -5 -52 -10 -60 -12 -8 -2 -30 -7 -47 -11 -33 -7 -42
-19 -24 -30 5 -4 41 1 81 9 39 8 89 15 110 15 48 0 70 8 70 26 0 16 -55 17
-130 3z"/>
<path d="M1891 1361 c-24 -47 -27 -81 -7 -81 12 0 44 72 47 105 2 26 -22 12
-40 -24z"/>
<path d="M2000 1345 c0 -42 3 -55 15 -55 12 0 15 13 15 55 0 42 -3 55 -15 55
-12 0 -15 -13 -15 -55z"/>
<path d="M2105 1379 c4 -13 12 -43 18 -66 13 -48 37 -58 36 -15 -1 43 -24 97
-44 101 -15 2 -17 -1 -10 -20z"/>
<path d="M2857 2524 c-11 -11 3 -24 24 -24 12 0 19 5 17 13 -5 14 -31 21 -41
11z"/>
<path d="M2750 2480 c-12 -7 -12 -12 -3 -21 15 -15 68 5 58 21 -8 13 -35 13
-55 0z"/>
<path d="M2916 2451 c-4 -5 3 -15 15 -21 18 -10 20 -9 17 6 -4 20 -23 30 -32
15z"/>
<path d="M2820 2423 c-8 -3 -26 -10 -39 -15 -18 -6 -21 -12 -13 -20 15 -15
122 10 122 29 0 13 -41 17 -70 6z"/>
<path d="M2680 2370 c-21 -13 0 -31 28 -24 12 4 22 13 22 20 0 16 -28 18 -50
4z"/>
<path d="M2837 2344 c-9 -10 2 -24 19 -24 8 0 14 7 14 15 0 15 -21 21 -33 9z"/>
<path d="M2665 2294 c-60 -20 -116 -37 -123 -40 -7 -2 -10 -9 -6 -15 8 -14 46
-8 167 27 68 21 97 33 95 43 -5 23 -17 21 -133 -15z"/>
</g>
</svg>
