<?xml version="1.0" standalone="no"?>
<!DOCTYPE svg PUBLIC "-//W3C//DTD SVG 20010904//EN"
 "http://www.w3.org/TR/2001/REC-SVG-20010904/DTD/svg10.dtd">
<svg version="1.0" xmlns="http://www.w3.org/2000/svg"
 width="300.000000pt" height="235.000000pt" viewBox="0 0 300.000000 235.000000"
 preserveAspectRatio="xMidYMid meet">
<metadata>
Created by potrace 1.10, written by Peter Selinger 2001-2011
</metadata>
<g transform="translate(0.000000,235.000000) scale(0.100000,-0.100000)"
fill="#000000" stroke="none">
<path d="M2177 2201 c-38 -38 -79 -72 -92 -75 -28 -7 -106 -92 -129 -140 -29
-61 -17 -86 37 -77 4 1 12 -10 16 -23 25 -64 113 -87 155 -41 18 19 32 25 57
23 40 -3 41 5 14 132 -3 14 -8 38 -11 55 -3 16 -10 35 -16 43 -9 10 -7 17 5
30 16 15 17 15 17 0 0 -9 14 -47 31 -85 71 -157 75 -167 84 -210 8 -40 36
-134 72 -245 21 -64 34 -113 28 -110 -15 10 -34 14 -100 21 -33 3 -59 11 -57
16 1 6 -1 10 -5 10 -5 0 -14 4 -20 8 -9 5 -13 3 -13 -7 0 -14 -10 -17 -55 -16
-33 1 -195 -117 -195 -141 0 -5 11 -14 24 -21 l25 -11 -46 -91 c-26 -54 -64
-111 -91 -139 -46 -47 -47 -49 -47 -112 0 -49 5 -70 21 -92 l21 -29 -53 -33
c-43 -26 -52 -37 -45 -49 7 -12 2 -26 -18 -52 -48 -63 -92 -138 -89 -153 2 -8
-17 -43 -42 -77 l-45 -62 -6 78 c-4 44 -12 149 -18 235 -5 85 -13 163 -17 172
-3 10 10 1 29 -18 81 -81 161 -26 203 140 4 17 8 38 8 47 1 9 7 23 14 29 14
15 16 48 3 68 -6 9 -6 22 -1 31 10 18 19 56 27 109 4 25 2 32 -7 26 -9 -6 -10
-1 -4 16 4 13 15 53 25 89 9 36 18 61 18 56 2 -19 41 28 41 49 0 29 -19 45
-52 45 -37 0 -64 -39 -48 -69 8 -16 6 -37 -10 -93 -12 -40 -25 -80 -30 -89 -5
-9 -14 -45 -20 -80 -8 -42 -18 -68 -31 -77 -10 -7 -19 -22 -19 -33 0 -10 -4
-19 -10 -19 -5 0 -17 -14 -26 -31 l-16 -31 -41 40 c-23 22 -55 44 -71 49 l-29
9 31 23 c38 26 78 92 87 141 5 31 -2 101 -20 180 -3 14 -8 38 -11 55 -3 16
-10 35 -15 42 -12 14 -3 103 12 118 27 27 -16 95 -61 95 -10 0 -21 7 -24 15
-7 18 -66 45 -111 52 -16 2 -40 6 -53 9 -12 2 -32 -1 -44 -7 -12 -6 -47 -13
-77 -15 -71 -4 -107 -11 -142 -30 -32 -16 -33 -16 -29 57 3 63 -18 70 -195 64
-133 -5 -393 -24 -543 -40 -29 -3 -65 -10 -79 -16 l-26 -10 7 -347 c5 -191 9
-357 10 -369 1 -21 6 -23 56 -23 30 0 69 -2 85 -5 35 -7 214 -7 410 0 205 6
266 6 328 -4 5 0 -6 -13 -23 -27 -54 -46 -96 -150 -108 -268 -7 -71 -7 -142
-1 -271 l4 -69 33 -2 c18 -1 35 2 37 7 3 4 13 5 21 2 9 -3 20 0 25 8 7 12 9
12 10 -1 0 -8 2 -23 4 -34 2 -10 6 -39 9 -65 3 -25 8 -64 11 -86 3 -22 7 -58
9 -79 2 -22 10 -45 19 -51 13 -9 11 -13 -15 -28 -19 -11 -28 -23 -26 -34 3
-15 14 -18 73 -17 39 0 80 6 92 12 13 7 34 37 47 66 23 50 29 75 41 172 3 21
7 40 10 42 2 2 27 -42 56 -99 49 -99 84 -148 103 -149 5 0 14 -6 20 -14 18
-23 270 -136 302 -136 18 0 74 23 135 56 57 31 128 69 158 85 30 16 62 29 71
29 13 0 23 18 39 68 12 37 24 76 26 87 28 125 25 118 56 111 33 -6 54 17 63
69 3 17 8 41 11 54 2 13 64 85 138 160 74 75 141 150 151 168 23 45 21 131 -3
157 -11 12 -22 37 -26 56 -9 52 -16 71 -50 145 -13 28 -34 79 -46 115 -12 36
-26 76 -32 90 -27 67 -63 169 -109 310 -27 85 -54 160 -58 165 -9 12 -85 247
-89 275 0 6 -15 10 -33 10 -26 0 -44 -13 -101 -69z m117 50 c3 -4 -6 -19 -20
-32 -31 -29 -29 -39 46 -229 32 -80 90 -233 130 -341 48 -132 76 -196 86 -196
8 0 13 5 11 11 -3 6 -37 94 -76 196 -40 102 -76 193 -82 202 -5 10 -9 22 -9
28 0 6 -8 29 -19 53 -10 23 -33 80 -51 127 -18 47 -37 90 -42 96 -5 7 0 18 12
29 11 10 20 16 20 14 1 -18 194 -570 215 -616 8 -17 15 -35 15 -41 0 -5 10
-31 21 -57 29 -65 40 -105 28 -105 -5 0 -11 11 -15 25 -4 17 -13 25 -29 25
-12 0 -28 6 -34 14 -6 7 -47 119 -90 247 -43 129 -97 273 -118 320 -22 47 -43
102 -47 122 -4 20 -10 37 -13 37 -13 0 -73 -64 -73 -78 0 -7 4 -11 9 -7 13 7
27 -20 35 -65 3 -19 8 -48 11 -65 15 -80 17 -76 -18 -69 -18 3 -45 7 -62 9
-41 4 -116 15 -140 20 -11 2 -23 4 -28 4 -12 2 49 114 78 144 34 33 70 44 90
27 13 -11 15 -8 15 16 0 21 15 42 60 86 59 57 74 66 84 49z m-1263 -288 c5 -5
12 -37 15 -69 4 -51 2 -61 -16 -72 -19 -12 -20 -10 -20 37 0 28 -4 52 -10 56
-5 3 -96 1 -202 -5 -106 -6 -259 -11 -340 -11 -95 -1 -153 -5 -163 -13 -21
-15 -30 -240 -20 -473 l7 -162 33 -7 c18 -3 200 -7 403 -7 254 -2 372 -5 380
-13 18 -19 -496 -27 -780 -12 -38 2 -48 7 -52 23 -3 11 -8 92 -11 180 -4 88
-7 162 -7 165 0 3 0 80 1 171 l1 167 67 13 c38 7 72 12 77 11 5 -2 41 2 80 9
39 7 161 15 271 18 249 7 273 7 286 -6z m-53 -80 c25 -50 23 -85 -13 -156 -37
-74 -46 -144 -22 -169 23 -23 30 -51 31 -123 2 -81 24 -132 61 -141 16 -4 25
-13 25 -25 0 -18 -11 -19 -247 -18 -137 1 -309 4 -383 8 l-135 6 2 230 c2 127
3 265 3 308 l0 77 178 1 c151 1 440 12 479 17 7 1 16 -6 21 -15z m460 2 c61
-18 81 -43 78 -95 -4 -74 -63 -122 -151 -123 -56 -1 -84 17 -107 69 -16 37
-17 50 -8 78 13 40 37 64 76 76 42 12 55 12 112 -5z m672 0 c8 -2 23 -4 33 -4
23 -1 12 -20 -16 -30 -34 -13 -96 14 -97 41 0 5 32 3 80 -7z m-872 -42 c-18
-37 -19 -69 -3 -120 5 -16 3 -23 -5 -23 -18 0 -194 -85 -231 -111 -26 -18 -33
-19 -44 -8 -19 21 4 117 40 169 49 71 149 126 231 129 l32 1 -20 -37z m333
-29 c39 -20 36 -48 -6 -51 -28 -1 -30 2 -31 33 -1 39 -2 39 37 18z m0 -74 c5
0 7 -10 5 -22 -3 -13 -5 -26 -5 -30 -1 -4 -11 -4 -23 1 -13 4 -29 6 -36 3 -10
-3 -10 4 3 28 11 21 21 30 31 26 9 -3 20 -6 25 -6z m-299 -66 c17 -16 14 -19
-55 -48 -39 -18 -107 -50 -149 -73 -43 -22 -80 -38 -83 -35 -3 3 -5 14 -5 24
0 15 32 35 133 83 72 35 134 64 136 65 3 0 13 -7 23 -16z m279 -13 c7 -8 59
-141 63 -161 13 -70 15 -109 7 -135 -8 -27 -10 -24 -11 30 -1 33 -2 64 -1 68
1 8 -67 4 -116 -7 -13 -3 -24 1 -27 10 -3 8 -13 14 -22 14 -14 0 -14 -3 -4
-15 16 -19 13 -23 -30 -30 -19 -3 -53 -11 -75 -17 -50 -13 -66 -16 -86 -17
-14 -1 -17 -14 -18 -76 -1 -41 5 -93 13 -115 14 -42 10 -47 -29 -30 -19 8 -19
9 3 9 13 1 21 5 17 10 -3 5 -21 7 -40 4 -31 -5 -39 -1 -75 35 -22 22 -40 47
-40 55 0 9 28 28 70 48 39 18 68 34 66 37 -3 2 -34 -9 -70 -26 -36 -17 -68
-27 -71 -21 -4 5 0 9 9 9 14 0 25 44 25 105 0 17 9 51 21 77 18 42 29 52 95
86 64 34 81 38 122 35 34 -3 61 1 93 15 42 18 95 20 111 3z m361 -75 c5 -6 -3
-20 -18 -32 -18 -15 -30 -42 -45 -99 -10 -43 -19 -90 -18 -104 2 -40 -25 -128
-38 -124 -14 5 -7 101 8 113 14 11 58 205 49 214 -14 14 -12 22 5 40 16 15 44
11 57 -8z m-812 -61 c-12 -13 -30 -26 -39 -28 -9 -2 -4 -3 12 -1 32 4 34 -2
10 -29 -10 -11 -12 -17 -5 -13 14 8 17 -10 2 -19 -5 -3 -10 -11 -10 -16 0 -6
4 -8 8 -5 5 3 9 -11 10 -31 1 -23 -2 -33 -8 -27 -10 10 -18 44 -19 82 -1 12
-5 22 -11 22 -13 0 -13 -101 0 -134 7 -20 6 -24 -5 -20 -37 15 -67 121 -48
171 7 20 111 83 122 76 3 -2 -6 -14 -19 -28z m1353 -70 c77 -36 170 -152 207
-257 17 -50 18 -60 6 -94 -8 -22 -22 -61 -31 -87 -13 -38 -21 -47 -35 -42 -9
3 -29 1 -43 -4 l-26 -10 15 41 c15 45 12 68 -17 109 -16 22 -17 31 -7 57 16
41 8 47 -34 23 l-34 -21 -52 35 c-43 30 -52 41 -52 65 0 33 -21 40 -53 16 -15
-12 -25 -10 -72 16 -46 25 -53 32 -49 54 7 41 -6 48 -35 20 -24 -23 -30 -25
-64 -14 l-37 11 27 30 c40 41 104 66 191 72 18 1 35 4 37 7 9 9 123 -10 158
-27z m-860 -89 l1 -79 -40 -37 c-50 -46 -129 -77 -213 -81 -64 -4 -64 -4 -73
26 -4 17 -10 65 -13 108 -5 69 -4 77 12 78 10 0 25 2 33 4 8 2 33 6 55 10 22
4 43 9 46 11 3 2 19 6 35 8 16 3 40 8 54 11 14 3 36 8 50 11 13 3 27 7 29 10
16 15 23 -11 24 -80z m560 -29 c-4 -21 4 -28 57 -55 72 -37 77 -38 103 -14 16
13 19 14 15 2 -9 -25 10 -48 69 -86 46 -30 60 -34 78 -26 19 9 22 8 18 -7 -2
-10 7 -35 21 -56 27 -39 27 -56 0 -124 -17 -40 -9 -58 16 -36 22 20 49 25 73
13 22 -11 22 -29 -3 -71 -35 -59 -107 -76 -135 -33 -13 20 -14 29 -5 46 6 12
9 24 7 27 -8 7 -41 -34 -47 -60 -11 -41 -65 -67 -144 -67 -47 -1 -78 -6 -90
-15 -29 -22 -76 -18 -121 10 -47 29 -41 31 25 9 26 -9 59 -14 72 -12 16 3 9 7
-28 15 -177 41 -254 104 -254 208 0 42 5 51 54 103 36 38 66 84 92 140 36 79
39 83 65 78 19 -3 32 1 44 14 23 25 23 25 18 -3z m-343 -147 c10 -18 -1 -60
-15 -60 -18 0 -55 26 -55 40 0 39 52 54 70 20z m-317 -30 c-6 -22 -18 -26 -28
-10 -3 6 -13 10 -22 10 -15 0 -15 -2 0 -17 14 -16 14 -20 -2 -40 -17 -20 -20
-21 -40 -7 -27 19 -27 32 2 44 l22 9 -22 0 c-23 1 -44 -16 -71 -56 -13 -21
-18 -23 -26 -11 -6 8 -29 27 -51 42 l-40 27 50 -6 c32 -4 82 1 140 14 50 11
91 20 92 20 0 1 -1 -8 -4 -19z m142 -72 c28 -32 55 -55 58 -51 4 3 3 11 -3 18
-11 13 19 84 35 84 6 0 23 -10 39 -23 l29 -24 -28 -73 c-34 -87 -65 -123 -98
-113 -35 10 -76 55 -87 94 -22 77 -30 67 -25 -30 3 -52 7 -135 10 -183 l4 -89
-62 -28 c-105 -49 -283 -57 -339 -16 -22 16 -52 137 -58 236 l-2 35 -10 -29
c-7 -19 -7 -46 0 -85 14 -78 22 -113 28 -123 3 -4 -17 -8 -45 -8 -29 0 -53 5
-58 13 -7 11 -7 223 1 257 10 49 22 79 44 115 25 41 81 105 92 105 3 0 31 -24
63 -54 74 -70 94 -77 122 -42 21 26 22 26 38 8 9 -10 15 -21 13 -23 -2 -2 -9
-39 -15 -81 l-11 -77 38 -65 c20 -36 40 -66 43 -66 13 0 51 109 44 129 -7 22
-13 51 -21 100 -3 19 -10 45 -15 58 -11 31 -1 55 21 48 13 -4 20 4 29 35 l12
41 31 -18 c17 -10 54 -44 83 -75z m1086 -38 c5 -44 -5 -67 -55 -138 -53 -75
-233 -262 -224 -232 3 8 1 26 -4 39 -7 19 -4 29 12 46 14 15 18 25 11 30 -6 3
-14 -1 -17 -9 -9 -23 -21 -20 -28 6 -3 14 1 29 9 38 13 13 17 12 31 -8 17 -25
66 -30 109 -10 32 14 68 71 72 112 1 17 13 61 25 97 20 58 25 65 41 55 9 -6
18 -18 18 -26z m-1280 3 c0 -10 2 -25 4 -33 2 -8 7 -28 10 -45 3 -16 10 -46
15 -65 10 -35 -5 -100 -22 -100 -10 0 -54 91 -53 110 5 86 18 150 31 150 8 0
14 -8 15 -17z m537 -224 c57 -69 155 -104 211 -75 16 9 53 16 81 16 28 0 67 7
87 15 20 8 37 14 38 13 8 -10 27 -98 27 -119 -1 -32 -35 -136 -49 -150 -6 -6
-32 0 -74 17 -35 15 -66 29 -68 31 -2 1 7 17 21 35 34 46 41 58 30 58 -5 0
-26 -21 -46 -47 -31 -40 -35 -50 -23 -57 12 -8 5 -21 -36 -73 -28 -35 -52 -63
-54 -63 -2 0 -11 4 -21 9 -9 6 -69 35 -132 65 -144 70 -175 94 -167 127 4 14
31 53 62 89 59 68 71 94 28 60 -18 -14 -29 -17 -34 -9 -3 6 -12 15 -18 19 -13
8 72 58 102 59 9 1 25 -8 35 -20z m-138 -99 c-6 -10 -15 -22 -20 -25 -18 -11
-50 -83 -44 -99 7 -18 -18 -31 -41 -22 -11 4 -2 23 40 82 30 42 55 80 55 86 0
5 5 6 10 3 7 -4 7 -12 0 -25z m-262 -67 c0 -10 2 -47 6 -83 12 -107 11 -153
-3 -203 -10 -36 -18 -47 -29 -42 -8 3 -23 3 -33 0 -15 -5 -16 -10 -7 -31 7
-14 23 -32 37 -39 24 -13 24 -14 5 -15 -25 0 -46 23 -64 70 -19 51 -73 154
-84 162 -15 10 -33 -9 -41 -45 -4 -17 -9 -39 -11 -47 -2 -8 -6 -32 -9 -52 -7
-52 -22 -88 -37 -89 -50 -4 -102 1 -111 10 -11 11 -12 17 -22 86 -12 88 -15
111 -20 135 -3 14 -8 49 -12 79 -5 48 -4 54 11 48 10 -4 19 -1 23 8 4 12 8 13
19 4 16 -13 126 -17 195 -7 63 9 146 37 160 54 16 19 28 18 27 -3z m-425 -17
c22 -17 22 -24 0 -22 -11 0 -19 -7 -21 -21 -2 -14 -8 -20 -18 -16 -9 3 -14 -1
-14 -12 0 -15 -2 -15 -16 -4 -13 10 -17 10 -25 -2 -7 -12 -10 -12 -18 0 -6 9
-11 10 -15 2 -19 -30 -36 32 -20 73 8 20 120 22 147 2z m723 -113 c38 -25 102
-61 143 -80 40 -19 69 -38 65 -43 -109 -99 -259 -230 -264 -230 -4 0 -26 15
-50 32 -24 18 -51 38 -60 43 -15 9 -9 20 49 87 60 70 69 77 103 78 20 0 40 5
43 10 4 6 -6 10 -23 10 -31 0 -58 22 -48 39 8 13 -4 42 -15 35 -5 -3 -9 -21
-9 -41 0 -29 -9 -46 -48 -87 -26 -28 -59 -66 -72 -83 l-25 -33 -38 25 c-36 25
-37 27 -23 53 17 32 186 232 196 232 4 0 38 -21 76 -47z m-127 20 c-28 -38
-129 -141 -129 -133 0 16 60 98 91 124 35 30 58 35 38 9z m549 -66 c-39 -54
-116 -124 -163 -147 -46 -22 -66 -21 -48 2 5 7 44 56 86 109 l77 96 34 -15 35
-16 -21 -29z m-18 -112 c-11 -39 -22 -79 -25 -89 -5 -23 -25 -46 -25 -30 0 24
40 164 52 183 20 33 20 12 -2 -64z m-208 -18 c-35 -37 -28 -52 21 -48 9 1 17
0 17 -2 0 -9 -121 -88 -165 -107 -57 -24 -93 -27 -75 -6 6 8 18 12 27 9 10 -4
14 -2 11 7 -2 8 29 43 71 80 42 37 82 74 90 84 8 9 16 14 19 11 3 -3 -4 -15
-16 -28z m164 11 c-4 -13 -9 -32 -11 -43 -18 -76 -14 -73 -172 -154 l-152 -79
3 36 c2 23 9 36 19 38 40 6 118 56 211 136 56 48 103 87 105 88 2 0 0 -10 -3
-22z m-632 -69 c27 -22 26 -45 -3 -34 -9 4 -20 8 -26 9 -20 4 -55 27 -55 36 0
18 57 10 84 -11z m28 -76 c12 -25 20 -29 73 -33 33 -3 70 -11 83 -18 12 -7 28
-12 35 -11 6 1 24 1 39 0 24 -1 26 -4 25 -41 -2 -44 -6 -46 -50 -26 -228 104
-257 122 -242 146 11 17 23 11 37 -17z m108 2 c13 -13 8 -15 -38 -15 -50 0
-66 12 -45 34 11 11 65 -2 83 -19z m-440 -7 c0 -12 -35 -27 -76 -31 -54 -6
-69 1 -43 22 21 16 119 24 119 9z"/>
<path d="M536 1790 c-100 -12 -185 -36 -193 -57 -3 -8 1 -30 10 -47 9 -17 17
-40 19 -51 2 -13 22 -29 53 -45 45 -22 64 -25 181 -27 96 -2 145 1 184 13 62
18 115 65 107 94 -3 11 1 24 9 31 34 28 10 59 -58 75 -10 2 -28 7 -40 10 -41
11 -191 13 -272 4z m264 -24 c14 -4 30 -8 35 -10 6 -2 22 -6 38 -11 27 -7 33
-16 20 -28 -3 -4 -12 -2 -19 4 -8 6 -22 8 -31 4 -10 -5 -27 -7 -39 -6 -11 1
-27 -5 -34 -14 -12 -14 -14 -14 -31 1 -23 21 -51 15 -64 -14 -11 -25 -25 -29
-25 -8 0 19 -37 27 -66 14 -18 -9 -28 -8 -36 0 -18 18 -69 15 -90 -5 -18 -16
-19 -16 -24 4 -8 28 -30 36 -49 17 -18 -19 -41 -9 -25 11 13 15 80 33 152 40
29 3 53 7 54 8 5 5 212 -1 234 -7z m-370 -128 c0 -41 -2 -43 -31 -28 -22 12
-26 69 -7 88 19 19 38 -13 38 -60z m410 18 l9 -31 0 35 c-1 51 0 55 11 44 33
-33 5 -85 -51 -99 -25 -6 -27 -4 -34 36 -6 35 -4 45 11 56 22 16 40 3 54 -41z
m-292 20 c5 -6 12 -31 16 -55 l7 -44 -38 7 c-21 3 -49 6 -63 6 -24 0 -25 3
-22 40 3 25 11 45 23 54 21 14 63 10 77 -8z m185 6 c19 -21 42 -80 34 -88 -3
-3 -26 -8 -50 -10 -41 -5 -45 -3 -51 20 -9 35 20 95 45 96 3 0 13 -8 22 -18z
m-105 -1 c7 -4 15 -23 18 -42 3 -19 7 -40 9 -46 3 -9 -8 -13 -35 -13 l-40 0 0
43 c0 55 19 77 48 58z"/>
<path d="M874 1565 c-26 -34 -76 -42 -297 -45 -109 -1 -132 1 -148 16 -27 24
-50 11 -49 -28 1 -18 -2 -45 -6 -60 -5 -23 0 -34 28 -62 75 -75 225 -74 462 5
92 30 93 31 94 64 1 19 -6 42 -18 55 -10 12 -22 35 -25 51 -8 36 -15 36 -41 4z
m32 -70 c-4 -14 -14 -29 -25 -34 -15 -9 -20 -5 -29 24 -8 27 -7 35 3 35 7 0
18 7 26 16 11 14 13 14 22 -1 5 -9 6 -27 3 -40z m-446 -16 c0 -9 -9 -24 -20
-34 -18 -17 -19 -16 -25 11 -4 16 -9 37 -11 46 -4 15 -1 15 26 5 16 -6 30 -19
30 -28z m360 -24 c-17 -20 -25 -12 -28 23 -2 22 3 31 15 34 22 4 30 -36 13
-57z m-45 34 c5 -14 0 -30 -13 -48 -32 -43 -72 -32 -72 20 0 16 -5 29 -11 29
-5 0 -7 -5 -4 -11 11 -18 -4 -58 -27 -70 -18 -10 -24 -8 -35 7 -7 10 -13 33
-13 50 l0 33 78 4 c42 1 80 4 84 5 4 1 10 -8 13 -19z m-194 -14 c1 -11 1 -24
0 -29 -1 -4 3 -14 9 -20 5 -7 7 -16 4 -19 -4 -3 6 -12 21 -19 25 -11 29 -10
47 11 14 18 22 21 30 13 18 -18 56 -14 70 7 6 10 18 17 25 14 7 -3 21 -2 31 3
9 4 31 8 47 8 21 1 33 8 40 24 13 28 29 23 33 -11 2 -17 -2 -27 -10 -28 -22
-1 -49 -7 -66 -15 -105 -45 -152 -56 -255 -59 -80 -3 -117 0 -145 12 -45 18
-72 41 -72 61 0 12 4 12 20 -3 19 -17 22 -17 36 -3 14 14 18 13 40 -9 30 -30
87 -29 92 0 4 18 2 18 -21 2 -24 -15 -26 -15 -53 8 -16 14 -28 35 -28 50 -2
25 0 26 51 24 45 -2 53 -5 54 -22z"/>
<path d="M1330 1870 c-8 -5 -10 -10 -5 -10 6 0 17 5 25 10 8 5 11 10 5 10 -5
0 -17 -5 -25 -10z"/>
<path d="M1280 1821 c-5 -11 -10 -29 -10 -41 0 -23 26 -80 38 -81 4 0 15 -2
25 -4 9 -2 17 1 17 7 0 6 -6 8 -14 5 -33 -13 -64 60 -47 106 12 31 7 36 -9 8z"/>
<path d="M1358 1805 c-14 -32 5 -57 40 -53 37 5 51 32 28 57 -26 28 -54 26
-68 -4z m62 0 c16 -19 6 -45 -18 -45 -25 0 -44 23 -36 44 8 20 38 21 54 1z"/>
<path d="M1036 1759 c-40 -48 -70 -129 -48 -129 4 0 13 20 20 44 6 25 26 61
43 80 17 20 27 36 21 36 -6 0 -22 -14 -36 -31z"/>
<path d="M1067 1751 c-24 -28 -56 -89 -50 -95 4 -3 19 16 34 43 16 27 33 52
39 56 14 8 13 -18 -1 -32 -6 -6 -8 -17 -4 -24 5 -8 14 1 26 26 11 21 19 39 19
39 0 1 -11 2 -24 2 -14 1 -31 -6 -39 -15z"/>
<path d="M1125 1729 c-11 -17 1 -21 15 -4 8 9 8 15 2 15 -6 0 -14 -5 -17 -11z"/>
<path d="M1469 1603 c-13 -15 -11 -16 11 -10 14 4 35 7 48 7 13 0 20 4 17 10
-10 16 -61 12 -76 -7z"/>
<path d="M1239 1538 c-46 -28 -34 -39 19 -17 26 12 56 25 67 30 15 6 11 8 -18
7 -21 -1 -52 -10 -68 -20z"/>
<path d="M1498 1519 c-31 -18 -19 -27 21 -16 22 6 38 14 35 19 -7 11 -35 10
-56 -3z"/>
<path d="M1284 1475 c-22 -21 -24 -25 -9 -20 11 4 35 9 53 12 35 6 39 26 5 31
-12 2 -33 -8 -49 -23z"/>
<path d="M1861 1568 c1 -19 2 -19 6 -5 3 11 11 16 19 13 8 -3 14 -1 14 4 0 6
-9 10 -20 10 -14 0 -20 -6 -19 -22z"/>
<path d="M1520 1412 c0 -5 7 -15 15 -22 8 -7 15 -8 15 -2 0 5 -7 15 -15 22 -8
7 -15 8 -15 2z"/>
<path d="M1325 1340 c-10 -11 -13 -20 -8 -20 13 0 38 29 31 35 -3 3 -13 -4
-23 -15z"/>
<path d="M1365 1340 c-3 -5 -2 -10 4 -10 5 0 13 5 16 10 3 6 2 10 -4 10 -5 0
-13 -4 -16 -10z"/>
<path d="M1435 1250 c3 -5 12 -10 20 -10 8 0 17 5 20 10 4 6 -5 10 -20 10 -15
0 -24 -4 -20 -10z"/>
<path d="M2196 1254 c-9 -23 3 -37 20 -23 8 6 14 17 13 23 0 7 -2 6 -6 -1 -2
-7 -9 -13 -14 -13 -4 0 -6 7 -3 15 4 8 4 15 1 15 -3 0 -8 -7 -11 -16z"/>
<path d="M2035 1230 c-3 -5 3 -10 15 -10 12 0 34 -7 51 -15 29 -16 49 -13 49
6 0 6 -4 8 -9 5 -5 -3 -25 1 -45 9 -42 18 -53 19 -61 5z"/>
<path d="M2022 1179 c4 -13 77 -34 86 -24 5 4 -18 15 -67 30 -17 5 -22 4 -19
-6z"/>
<path d="M2292 1143 c2 -10 23 -25 52 -36 27 -10 56 -26 63 -35 11 -13 13 -14
10 -2 -2 8 -27 28 -55 43 -29 16 -52 32 -52 38 0 5 -5 9 -11 9 -6 0 -9 -8 -7
-17z"/>
<path d="M2005 1130 c3 -5 8 -10 11 -10 2 0 4 5 4 10 0 6 -5 10 -11 10 -5 0
-7 -4 -4 -10z"/>
<path d="M2148 1112 c-10 -2 -18 -8 -18 -13 0 -11 11 -11 30 1 18 11 11 18
-12 12z"/>
<path d="M2452 1095 c-6 -13 -7 -27 -3 -30 15 -9 41 6 41 23 0 13 -3 12 -16
-4 -15 -18 -15 -18 -9 9 7 34 2 35 -13 2z"/>
<path d="M2270 1094 c0 -18 16 -33 35 -33 11 1 38 -2 60 -6 l40 -6 -35 16
c-19 9 -42 18 -50 20 -8 2 -23 6 -32 10 -10 4 -18 3 -18 -1z"/>
<path d="M1944 1071 c-1 -9 -9 -33 -18 -54 -17 -38 -17 -38 11 -66 28 -27 238
-112 316 -126 45 -9 78 10 97 54 7 17 16 28 21 25 5 -3 9 -1 9 4 0 12 -150 80
-280 127 -151 54 -156 55 -156 36z m189 -67 c89 -30 174 -63 189 -73 26 -16
27 -18 12 -40 -21 -29 -43 -24 -143 34 -41 25 -90 50 -109 56 -22 7 -32 16
-28 25 3 8 1 14 -4 14 -6 0 -10 -7 -10 -15 0 -12 -4 -13 -25 -3 -14 6 -25 17
-25 25 0 23 -36 -6 -37 -31 -1 -11 1 -15 4 -8 7 18 33 15 34 -5 0 -10 3 -13 5
-6 7 16 129 -27 202 -71 31 -20 72 -38 89 -42 38 -8 34 -24 -6 -24 -32 0 -239
68 -299 99 -24 12 -46 28 -49 37 -5 13 22 84 33 84 2 0 77 -25 167 -56z"/>
<path d="M2523 914 c-7 -3 -13 -12 -13 -19 0 -8 -7 -18 -16 -23 -14 -8 -14
-10 0 -21 13 -11 22 -9 52 14 19 15 33 32 31 38 -4 13 -35 19 -54 11z m37 -13
c0 -11 -39 -41 -53 -41 -5 0 -1 7 7 16 9 8 16 20 16 25 0 5 7 9 15 9 8 0 15
-4 15 -9z"/>
<path d="M1177 1043 c-4 -3 -4 -17 -1 -29 5 -21 2 -24 -20 -24 -30 0 -33 -19
-16 -82 19 -69 94 -92 140 -43 19 20 24 37 24 83 l1 57 -47 -2 c-34 -1 -48 2
-48 11 0 17 -25 38 -33 29z m1 -96 c2 -15 8 -27 13 -27 6 0 9 12 7 27 -3 26
-1 28 46 31 l49 4 -7 -49 c-7 -53 -25 -73 -68 -73 -33 0 -53 27 -64 84 -5 31
-4 38 7 34 8 -2 15 -17 17 -31z"/>
</g>
</svg>
