<?xml version="1.0" standalone="no"?>
<!DOCTYPE svg PUBLIC "-//W3C//DTD SVG 20010904//EN"
 "http://www.w3.org/TR/2001/REC-SVG-20010904/DTD/svg10.dtd">
<svg version="1.0" xmlns="http://www.w3.org/2000/svg"
 width="300.000000pt" height="235.000000pt" viewBox="0 0 300.000000 235.000000"
 preserveAspectRatio="xMidYMid meet">
<metadata>
Created by potrace 1.10, written by Peter Selinger 2001-2011
</metadata>
<g transform="translate(0.000000,235.000000) scale(0.050000,-0.050000)"
fill="#000000" stroke="none">
<path d="M2742 4398 c-181 -56 -422 -308 -422 -442 0 -14 -36 -59 -79 -100
-127 -119 -134 -314 -24 -636 49 -144 56 -187 43 -280 -29 -223 198 -595 450
-735 40 -23 40 -23 0 -63 -48 -49 -166 -31 -237 35 -121 113 -231 96 -377 -58
-180 -188 -124 -371 108 -356 l106 6 119 -125 c65 -69 139 -130 165 -137 32
-8 44 -22 38 -44 -38 -131 -152 -624 -152 -660 0 -44 39 -69 141 -91 102 -22
148 -179 77 -269 -100 -128 -50 -163 231 -163 l206 0 -1 235 c0 239 17 373 45
356 19 -12 98 -387 106 -501 l5 -80 190 -6 c292 -9 336 21 240 166 -73 110
-41 270 55 270 117 1 121 20 74 343 -12 82 -9 94 27 106 92 29 144 91 144 171
0 145 -237 680 -405 914 l-60 84 94 105 c203 226 343 607 257 701 -30 34 -31
57 -10 232 26 207 29 521 6 604 -13 49 -440 299 -665 389 -103 41 -400 59
-495 29z m340 -38 c119 -22 686 -299 742 -363 53 -60 64 -204 38 -477 -40
-416 -67 -475 -91 -195 -8 91 -23 204 -35 252 -17 68 -16 91 4 103 32 19 16
86 -43 180 -51 83 -74 50 -27 -41 41 -79 33 -87 -48 -47 -96 48 -348 58 -491
20 -146 -39 -498 -43 -571 -6 -78 39 -77 124 2 206 74 77 68 108 -11 57 -87
-57 -144 -206 -91 -239 32 -20 24 -60 -23 -112 -91 -103 -124 -216 -126 -425
l-1 -197 -46 147 c-108 341 -104 474 15 605 42 45 86 115 99 155 92 284 378
437 704 377z m444 -608 c143 -33 133 -23 166 -181 56 -265 32 -809 -42 -950
-125 -240 -613 -367 -914 -237 -339 146 -510 901 -285 1258 l52 83 64 -62
c101 -98 353 -172 353 -103 0 11 -35 20 -77 20 -77 0 -244 73 -257 113 -5 14
70 22 218 24 124 2 276 16 336 31 144 36 245 37 386 4z m370 -677 c5 -27 -7
-35 -55 -35 -48 0 -61 9 -61 41 0 54 106 48 116 -6z m-27 -140 c-17 -82 -114
-292 -158 -345 -18 -22 -9 8 20 67 34 71 48 125 40 157 -24 93 8 186 63 186
45 0 48 -5 35 -65z m-1491 -162 c13 -60 41 -142 63 -185 46 -91 50 -134 7 -78
-94 121 -170 322 -135 357 29 28 41 9 65 -94z m1251 -302 c-49 -74 -224 -202
-374 -272 -74 -34 -136 -71 -137 -81 -2 -10 -4 -29 -5 -43 -2 -13 -20 -28 -40
-32 -29 -5 -34 2 -24 35 15 47 -7 60 -189 110 -149 41 -437 272 -339 272 14 0
63 -35 110 -79 268 -246 590 -233 889 38 121 109 158 127 109 52z m-85 -206
c77 -92 356 -627 356 -686 0 -18 -149 -65 -274 -86 -72 -13 -59 -49 -138 377
-31 165 -55 231 -75 209 -5 -5 17 -148 48 -319 32 -170 57 -344 58 -386 1 -84
30 -154 64 -154 11 0 44 -18 72 -40 28 -22 67 -40 88 -40 20 0 37 -2 37 -5 0
-3 13 -81 30 -174 16 -92 25 -172 20 -178 -11 -11 -432 -47 -442 -38 -8 8 -68
1164 -68 1316 0 108 3 113 85 174 102 74 101 74 139 30z m-1143 -110 c114 -58
135 -176 48 -264 -42 -41 -60 -39 -108 13 -55 59 -51 89 14 106 l55 14 -47 18
c-34 13 -45 29 -37 58 10 40 -14 56 -34 23 -6 -10 -34 -13 -62 -8 -49 10 -50
12 -18 47 44 49 80 48 189 -7z m398 -130 c-96 -339 -84 -314 -157 -321 -114
-12 -123 2 -70 108 26 52 48 130 48 174 0 62 6 76 30 66 17 -7 44 -17 60 -24
21 -9 30 1 30 33 0 40 48 97 83 98 8 1 -3 -60 -24 -134z m130 -53 c-18 -188
-47 -270 -114 -319 -86 -64 -85 -56 37 381 46 167 96 127 77 -62z m356 -193
c17 -406 32 -378 -212 -379 l-178 0 13 63 c6 34 12 75 12 91 0 21 18 15 62
-22 76 -64 80 -64 145 1 52 51 53 58 53 318 0 263 8 296 70 281 12 -3 26 -150
35 -353z m-267 286 c0 -19 -14 -71 -29 -115 -27 -77 -28 -78 -19 -12 6 37 10
88 10 115 0 26 9 47 20 47 11 0 19 -16 18 -35z m-770 3 c52 -20 37 -53 -18
-40 -98 25 -176 -63 -130 -147 24 -46 117 -56 156 -17 13 13 30 16 39 8 23
-24 -56 -72 -119 -72 -31 0 -74 18 -96 40 -105 105 27 282 168 228z m332 -81
c0 -60 -15 -117 -44 -163 -51 -83 -73 -55 -27 34 17 33 31 96 31 141 0 45 9
81 20 81 11 0 20 -42 20 -93z m499 -23 c-3 -179 -221 -424 -377 -424 -121 0
-323 146 -273 196 8 8 26 -3 41 -23 181 -247 463 -133 551 223 20 81 60 100
58 28z m-829 -34 c0 -46 -86 -69 -111 -29 -27 44 3 82 59 75 37 -4 52 -18 52
-46z m890 -187 c0 -146 -29 -212 -89 -200 -80 16 -83 68 -12 215 81 167 101
164 101 -15z m-269 -228 c-4 -14 -28 -194 -53 -401 l-45 -376 -57 11 c-212 41
-201 -4 -102 413 l75 312 80 31 c105 39 111 40 102 10z m1049 7 c0 -21 -151
-74 -270 -93 -125 -21 -58 21 80 50 66 14 134 33 150 43 38 22 40 22 40 0z
m46 -133 c24 -149 -197 -287 -271 -169 -13 22 -45 40 -70 40 -36 0 -45 11 -45
56 0 52 9 58 155 97 218 58 218 58 231 -24z m-675 -54 c5 -14 17 -157 27 -319
22 -354 12 -336 185 -336 l140 0 -14 -65 c-17 -79 6 -67 -160 -83 l-141 -14
-49 206 c-55 224 -72 244 -230 270 -88 14 -91 -22 -4 -47 52 -16 64 -29 61
-68 -25 -293 -35 -358 -57 -367 -53 -20 -249 13 -249 42 0 16 -13 42 -30 59
-40 40 -38 60 10 73 22 6 40 27 41 47 1 76 75 590 87 601 6 7 28 -3 48 -21 62
-55 264 -41 264 19 0 35 58 37 71 3z m329 -865 c13 -16 31 -25 39 -20 19 11
65 -87 52 -109 -13 -20 -265 -41 -336 -27 -85 17 -81 126 5 126 33 0 60 8 60
19 0 16 29 24 133 38 12 2 33 -10 47 -27z m-692 -42 c10 -25 28 -29 80 -20 69
13 116 -32 76 -72 -40 -40 -375 -9 -367 34 15 90 181 135 211 58z"/>
<path d="M3310 3649 c-105 -54 -177 -189 -100 -189 17 0 30 8 30 18 0 108 180
168 264 88 58 -55 86 -55 64 1 -33 87 -166 129 -258 82z"/>
<path d="M2498 3462 c-34 -35 -58 -80 -58 -110 0 -70 14 -65 48 17 39 92 107
110 203 53 69 -41 109 -41 109 -1 0 92 -221 121 -302 41z"/>
<path d="M3290 3362 c-181 -80 -195 -339 -24 -443 250 -152 512 166 317 384
-59 67 -208 96 -293 59z m236 -62 c111 -88 107 -266 -8 -347 -145 -102 -366
52 -328 229 30 137 225 205 336 118z"/>
<path d="M3280 3200 c-58 -58 -60 -144 -5 -205 42 -47 168 -46 212 2 80 88 12
243 -107 243 -33 0 -78 -18 -100 -40z m90 -18 c-49 -10 -62 -25 -72 -82 -7
-39 -15 -56 -18 -40 -14 87 24 141 97 138 51 -3 51 -3 -7 -16z"/>
<path d="M2544 3229 c-180 -127 -101 -409 116 -409 163 0 267 132 222 282 -41
136 -226 205 -338 127z m219 -31 c94 -50 112 -221 31 -292 -41 -36 -41 -36 -8
13 93 137 -87 299 -209 188 -96 -86 -12 -266 112 -242 28 5 45 2 39 -8 -31
-51 -179 7 -219 86 -88 168 88 344 254 255z"/>
<path d="M3040 2656 c-140 -53 -134 -43 -75 -132 109 -165 251 -143 286 46 27
140 -20 159 -211 86z m164 -68 c-8 -70 -55 -148 -90 -148 -73 0 -99 112 -39
164 82 72 137 65 129 -16z"/>
</g>
</svg>
