<?xml version="1.0" standalone="no"?>
<!DOCTYPE svg PUBLIC "-//W3C//DTD SVG 20010904//EN"
 "http://www.w3.org/TR/2001/REC-SVG-20010904/DTD/svg10.dtd">
<svg version="1.0" xmlns="http://www.w3.org/2000/svg"
 width="900.000000pt" height="705.000000pt" viewBox="0 0 900.000000 705.000000"
 preserveAspectRatio="xMidYMid meet">
<metadata>
Created by potrace 1.10, written by Peter Selinger 2001-2011
</metadata>
<g transform="translate(0.000000,705.000000) scale(0.100000,-0.100000)"
fill="#000000" stroke="none">
<path d="M4295 6695 c-16 -8 -55 -14 -85 -15 -32 0 -63 -7 -74 -15 -11 -8 -36
-15 -55 -15 -20 -1 -47 -7 -61 -15 -14 -8 -37 -14 -51 -15 -14 0 -34 -7 -45
-15 -10 -8 -27 -15 -36 -15 -9 0 -29 -6 -45 -14 -15 -8 -62 -30 -103 -50 -95
-46 -95 -47 -211 -133 -54 -40 -112 -93 -130 -118 -18 -25 -36 -45 -41 -45
-14 0 -8 -143 7 -170 8 -14 15 -43 15 -65 0 -22 7 -51 15 -65 8 -14 15 -43 15
-65 0 -22 7 -51 15 -65 8 -14 14 -46 15 -71 0 -25 7 -54 15 -65 8 -10 15 -41
15 -67 0 -42 -6 -56 -45 -107 -25 -32 -45 -67 -45 -77 0 -10 -6 -28 -14 -39
-15 -21 -25 -148 -13 -160 3 -4 12 -3 19 0 38 20 62 35 68 46 19 30 30 -6 30
-96 0 -89 -1 -95 -22 -103 -13 -5 -40 -21 -61 -35 -21 -14 -42 -26 -46 -26
-12 0 -81 -102 -81 -120 0 -8 -7 -24 -15 -34 -21 -27 -21 -237 -1 -274 8 -15
17 -34 21 -42 20 -50 88 -130 111 -130 6 0 17 -7 24 -15 10 -12 37 -15 122
-15 108 0 119 3 188 41 73 41 72 41 81 27 5 -7 9 -73 9 -147 0 -87 5 -154 15
-192 11 -40 15 -94 13 -167 l-3 -107 -55 3 c-30 2 -67 10 -82 18 -15 8 -38 14
-52 14 -13 0 -37 6 -53 14 -26 13 -105 32 -183 43 -19 3 -44 12 -55 19 -11 8
-38 14 -60 14 -22 0 -49 7 -59 15 -16 12 -56 15 -191 15 -187 0 -214 -7 -277
-67 -31 -30 -68 -99 -68 -129 -1 -10 -7 -30 -15 -44 -19 -33 -21 -453 -3 -497
24 -60 9 -73 -92 -73 -61 0 -84 -5 -129 -27 -64 -33 -121 -98 -121 -139 -1
-35 -25 -66 -71 -91 -19 -10 -47 -29 -64 -43 -54 -44 -195 -192 -195 -205 0
-7 -6 -17 -13 -23 -7 -6 -30 -44 -50 -84 -20 -41 -47 -84 -59 -98 -12 -13 -40
-45 -62 -70 -38 -44 -165 -184 -236 -260 -107 -114 -120 -135 -120 -194 0 -30
6 -67 14 -83 8 -15 23 -46 33 -68 28 -62 122 -181 214 -274 89 -89 239 -207
287 -226 6 -3 18 -7 25 -10 6 -3 30 -16 52 -30 22 -13 49 -24 60 -25 11 0 41
-7 67 -17 45 -16 49 -16 90 2 52 23 42 13 249 246 109 121 119 130 129 124 6
-4 10 -77 10 -184 0 -136 4 -187 15 -214 8 -20 15 -58 15 -85 0 -27 7 -66 15
-85 8 -20 15 -51 15 -69 1 -18 7 -44 15 -58 8 -14 14 -35 15 -47 0 -12 7 -39
16 -60 9 -21 22 -51 28 -68 7 -16 24 -52 39 -80 14 -27 36 -70 49 -95 29 -57
141 -169 193 -194 22 -10 52 -25 67 -32 14 -8 51 -14 80 -14 50 0 58 3 91 37
20 20 37 43 37 51 0 9 6 23 13 31 22 25 41 125 32 168 -4 21 -10 59 -14 86 -4
26 -13 53 -19 59 -7 7 -12 22 -12 34 0 12 -7 27 -15 34 -8 7 -15 19 -15 27 0
8 -14 32 -30 53 -17 21 -30 42 -30 48 0 5 -7 15 -15 22 -44 36 6 53 69 24 52
-25 66 -15 66 51 0 51 2 55 24 55 13 0 29 -7 36 -15 7 -8 24 -15 39 -15 14 0
35 -7 45 -15 11 -8 29 -15 41 -15 12 0 30 -7 41 -15 14 -10 47 -14 120 -15 91
0 106 3 155 28 30 16 74 46 97 68 54 48 128 145 147 194 4 8 11 22 16 30 5 8
12 22 15 30 3 8 12 28 20 43 7 16 14 39 14 51 0 33 40 66 81 66 19 1 45 7 59
15 17 9 56 14 117 15 185 0 253 -59 253 -218 0 -42 -4 -83 -9 -91 -6 -9 -32
-16 -68 -18 -108 -7 -101 0 -106 -111 -3 -53 -8 -114 -12 -135 -5 -24 -3 -42
5 -52 10 -12 10 -18 -1 -31 -12 -15 -30 -57 -46 -107 -14 -46 60 -136 113
-137 11 0 28 -7 38 -15 12 -9 42 -15 72 -15 28 0 68 -7 87 -15 49 -20 271 -20
347 0 30 8 78 15 106 15 28 0 68 7 87 15 20 8 54 15 75 15 21 0 47 7 58 15 10
8 33 15 50 15 16 0 39 7 50 15 10 8 30 15 44 15 14 0 34 7 44 15 11 8 28 15
37 15 10 0 30 7 46 15 15 7 49 24 75 35 27 12 50 26 54 31 3 5 11 9 19 9 18 0
136 81 187 128 45 42 103 117 130 170 14 27 18 59 18 129 l0 92 -37 26 c-21
14 -45 25 -54 25 -9 0 -22 7 -29 15 -17 21 -178 21 -206 0 -10 -8 -27 -15 -37
-15 -36 0 -198 -101 -264 -164 -21 -20 -42 -36 -46 -36 -16 0 -18 29 -3 59 9
16 16 48 16 71 0 38 -2 40 -30 40 -29 0 -30 2 -30 43 1 23 7 53 15 67 8 14 14
39 15 56 0 16 7 39 15 50 11 14 14 52 15 162 0 136 -1 144 -26 184 -44 70
-125 128 -178 128 -13 0 -43 7 -66 15 -23 8 -58 15 -77 15 -42 0 -51 19 -33
68 7 21 17 93 21 162 4 69 11 148 16 175 10 54 5 69 -48 178 -30 60 -37 115
-17 135 8 8 58 12 160 12 l147 0 21 46 c11 26 20 62 20 81 0 39 37 83 69 83
11 0 23 5 26 10 3 6 43 10 88 10 46 0 100 7 122 15 22 8 73 14 113 15 41 0 88
7 109 15 39 16 119 20 127 6 3 -4 -14 -28 -37 -52 -39 -40 -145 -176 -174
-224 -7 -11 -21 -40 -33 -65 -12 -25 -28 -58 -35 -73 -10 -18 -15 -59 -15
-111 0 -73 3 -85 23 -103 33 -29 82 -46 119 -40 92 16 126 26 158 45 19 12 44
26 55 31 11 5 40 26 65 48 95 82 128 103 160 103 34 0 73 18 131 63 34 24 45
27 122 27 63 0 88 4 97 15 7 8 18 15 24 15 7 0 25 13 41 30 20 21 38 30 60 30
34 0 92 26 121 56 34 33 95 119 113 159 5 11 23 29 41 40 17 11 55 51 83 90
50 66 62 85 87 130 6 11 29 31 52 45 89 56 275 263 304 340 3 8 10 22 15 30 5
8 12 22 15 30 3 8 12 28 20 43 7 16 14 38 14 50 1 12 7 33 15 47 21 37 18 76
-10 119 -33 53 -84 111 -99 111 -40 2 -86 94 -86 176 0 39 -34 72 -121 117
-61 32 -127 45 -196 38 -17 -1 -16 -46 1 -74 7 -12 16 -48 20 -79 5 -48 4 -58
-9 -58 -9 0 -18 8 -21 18 -13 41 -60 127 -89 162 -46 57 -150 94 -214 78 -20
-5 -54 -13 -76 -18 -53 -11 -113 -34 -127 -48 -7 -7 -18 -12 -25 -12 -27 0
-11 -44 32 -88 25 -25 45 -51 45 -57 0 -7 7 -18 15 -25 21 -17 21 -168 0 -196
-8 -10 -15 -27 -15 -37 0 -27 -31 -62 -88 -101 -49 -33 -114 -85 -191 -153
-38 -35 -52 -39 -79 -24 -27 14 -108 -11 -142 -44 -36 -35 -79 -126 -99 -210
l-7 -30 -194 4 c-121 2 -218 8 -255 17 -33 7 -106 14 -162 14 -94 0 -103 2
-117 22 -9 12 -16 32 -16 44 0 47 -25 54 -192 54 -86 0 -163 3 -172 6 -12 5
-13 10 -3 32 6 15 17 34 24 43 7 8 13 23 13 31 0 9 7 21 15 28 8 7 15 20 15
30 0 10 7 23 15 30 8 7 15 23 15 35 0 12 7 28 15 35 8 7 15 22 15 34 0 11 7
30 15 40 8 11 15 28 15 38 0 27 38 98 53 98 6 -1 23 -7 37 -15 18 -10 61 -14
152 -15 131 0 133 0 246 52 47 22 127 95 143 131 5 12 21 42 34 66 14 24 25
52 25 61 0 9 7 25 15 36 8 10 15 40 15 65 0 25 7 61 16 79 18 35 14 124 -6
144 -5 5 -10 26 -10 46 0 94 -113 220 -198 220 -16 0 -34 6 -40 13 -9 8 -67
14 -185 17 l-172 5 0 310 0 310 70 5 c39 3 80 11 92 18 12 6 35 12 50 12 16 0
38 7 49 15 10 8 29 15 40 15 12 0 27 7 34 15 7 8 20 15 30 15 10 0 23 7 30 15
7 8 17 15 22 15 6 0 27 14 48 30 21 17 41 30 45 30 23 0 205 203 205 228 0 5
7 15 15 22 8 7 15 20 15 30 0 10 6 23 14 29 7 6 16 30 20 54 3 23 9 57 12 76
7 37 -11 134 -32 168 -8 12 -14 29 -14 36 0 8 -9 22 -20 32 -17 16 -37 18
-165 16 -100 -2 -156 -7 -180 -17 -19 -8 -58 -14 -87 -14 -29 -1 -64 -7 -78
-15 -14 -8 -43 -14 -66 -15 -22 0 -49 -7 -60 -15 -10 -8 -35 -15 -54 -15 -19
0 -46 -7 -60 -15 -14 -8 -37 -14 -51 -15 -14 0 -34 -7 -45 -15 -10 -8 -32 -15
-49 -15 -16 0 -39 -7 -49 -15 -28 -21 -75 -19 -82 3 -3 9 -10 24 -15 32 -5 8
-12 22 -15 30 -3 8 -9 22 -14 30 -5 8 -19 35 -31 60 -12 25 -35 61 -51 81 -15
20 -28 40 -28 44 0 3 -21 33 -46 66 l-45 59 -262 -1 c-200 0 -269 -4 -292 -14z
m498 -77 c108 -132 222 -328 215 -365 -2 -10 -12 -19 -23 -21 -11 -2 -33 -9
-50 -17 -16 -7 -47 -20 -67 -29 -87 -37 -108 -46 -203 -91 -55 -26 -107 -51
-115 -56 -8 -5 -37 -20 -65 -34 -27 -14 -57 -30 -65 -35 -8 -5 -22 -11 -30
-14 -8 -4 -28 -15 -45 -25 -56 -37 -114 -63 -125 -56 -9 5 -46 78 -64 125 -3
8 -10 22 -15 30 -26 45 -41 80 -41 93 0 9 -6 28 -14 44 -49 99 -61 178 -31
203 8 7 15 17 15 22 0 11 89 101 110 111 8 4 29 16 45 27 17 11 37 22 45 25 8
3 28 13 43 21 16 7 38 14 50 14 12 1 33 7 47 15 14 8 43 15 65 15 22 0 51 7
65 15 19 11 51 15 128 13 99 -3 105 -4 125 -30z m-629 -53 c-3 -8 -24 -28 -45
-43 -45 -33 -99 -102 -119 -150 -11 -28 -11 -45 0 -105 7 -40 19 -81 27 -92 7
-11 13 -27 13 -36 0 -10 8 -32 17 -51 9 -18 22 -45 30 -60 7 -14 13 -33 13
-41 0 -8 7 -20 15 -27 8 -7 15 -20 15 -30 0 -10 7 -23 15 -30 18 -15 20 -61 3
-78 -7 -7 -21 -12 -33 -12 -12 0 -30 -7 -41 -15 -10 -8 -28 -15 -39 -15 -11 0
-29 -7 -39 -15 -11 -8 -30 -15 -42 -15 -12 0 -27 -7 -34 -15 -7 -8 -23 -15
-35 -15 -13 0 -36 -6 -52 -14 -54 -27 -104 -46 -120 -46 -9 0 -24 -6 -32 -14
-9 -7 -30 -16 -48 -19 -27 -5 -36 -2 -53 20 -11 14 -20 40 -20 57 -1 17 -7 42
-15 56 -8 14 -15 39 -15 55 0 17 -7 39 -15 49 -8 11 -15 34 -15 50 -1 17 -7
42 -15 56 -8 14 -14 39 -15 56 0 16 -7 39 -15 50 -23 30 -18 72 13 106 114
124 199 194 302 246 25 12 52 27 60 31 8 5 33 17 55 26 22 10 53 24 68 31 16
8 39 14 52 14 12 0 28 7 35 15 7 8 27 15 44 15 17 0 38 5 46 10 22 15 40 12
34 -5z m1900 -191 c22 -21 23 -181 1 -210 -8 -10 -15 -27 -15 -38 0 -10 -13
-35 -30 -56 -16 -21 -30 -43 -30 -49 0 -17 -134 -146 -195 -188 -70 -48 -194
-113 -215 -113 -8 0 -25 -7 -38 -15 -16 -12 -42 -15 -99 -13 l-78 3 -5 82 c-3
46 -11 88 -18 95 -7 7 -12 30 -12 51 0 31 8 50 34 81 68 84 206 212 246 230 8
3 29 15 45 26 17 11 37 22 45 26 26 10 84 35 113 50 16 8 38 14 48 14 11 0 30
5 42 12 19 10 50 17 134 27 6 0 19 -6 27 -15z m-550 -93 c3 -5 -4 -16 -17 -24
-45 -30 -204 -195 -248 -257 -13 -19 -32 -43 -41 -54 -10 -11 -30 -38 -45 -60
-78 -113 -202 -230 -288 -270 -22 -11 -52 -25 -67 -33 -14 -7 -40 -13 -57 -13
-17 0 -49 -7 -71 -16 -37 -15 -44 -15 -89 0 -28 9 -60 16 -73 16 -13 0 -32 7
-42 15 -11 8 -26 15 -34 15 -27 0 -181 139 -182 163 0 12 25 36 52 47 13 5 30
14 38 19 8 5 22 12 30 15 8 3 22 10 30 15 8 5 22 12 30 15 8 4 35 17 59 31 24
14 50 25 56 25 7 0 18 7 25 15 7 8 20 15 30 15 10 0 23 7 30 15 7 8 20 15 30
15 10 0 23 7 30 15 7 8 23 15 35 15 12 0 28 7 35 15 7 8 21 15 30 15 10 0 33
8 52 17 18 9 45 22 60 30 14 7 33 13 41 13 15 0 29 6 105 44 19 9 43 16 55 16
12 0 31 7 41 15 11 8 29 15 41 15 12 0 30 7 41 15 10 8 33 15 50 15 17 0 37 7
44 15 7 8 27 15 44 15 17 1 42 7 56 15 28 16 76 20 84 6z m-259 -533 c8 -29
15 -82 15 -120 0 -38 7 -84 15 -105 11 -25 15 -74 16 -167 0 -72 5 -156 11
-186 5 -30 12 -85 15 -122 4 -58 2 -69 -16 -87 -14 -14 -34 -21 -58 -21 -21
-1 -49 -7 -63 -15 -14 -8 -36 -15 -50 -15 -14 0 -34 -7 -44 -15 -11 -8 -29
-15 -40 -15 -12 -1 -34 -12 -51 -25 -26 -22 -27 -25 -11 -31 11 -4 33 -1 50 6
17 7 60 16 96 20 36 3 78 12 93 18 19 8 104 12 251 12 180 0 226 -3 242 -15
10 -8 27 -15 38 -15 29 0 92 -56 116 -103 20 -37 22 -57 22 -165 0 -95 -4
-129 -16 -147 -9 -13 -16 -30 -16 -38 0 -31 -71 -144 -114 -180 -12 -9 -41
-27 -66 -38 -39 -18 -63 -21 -192 -20 -113 0 -154 4 -177 16 -17 8 -37 15 -46
15 -10 0 -29 6 -43 14 -15 8 -38 19 -52 25 -37 16 -101 53 -140 81 -19 14 -42
30 -51 35 -9 6 -45 33 -80 62 -102 83 -137 65 -51 -28 120 -130 117 -124 108
-221 -4 -35 -10 -101 -14 -148 -6 -77 -9 -85 -29 -88 -12 -2 -35 4 -52 12 -16
9 -43 16 -59 16 -15 0 -37 7 -48 15 -10 8 -31 15 -45 15 -14 0 -34 7 -45 15
-10 8 -28 15 -40 15 -11 0 -29 7 -40 15 -10 8 -29 15 -40 15 -12 0 -27 7 -34
15 -7 8 -17 15 -23 15 -15 0 -96 40 -103 51 -3 5 -12 9 -19 9 -25 0 -147 89
-208 153 -70 73 -92 118 -77 160 5 17 10 49 10 72 0 22 7 50 15 61 8 10 15 33
15 50 0 17 7 37 15 44 8 7 15 21 15 32 0 20 6 34 47 113 23 42 42 47 75 18 23
-20 52 -13 56 15 4 25 -23 62 -43 62 -7 0 -18 7 -25 15 -10 13 -32 15 -104 13
-90 -3 -91 -3 -91 -28 0 -22 5 -25 43 -28 46 -3 52 -15 29 -60 -8 -15 -21 -42
-30 -60 -9 -19 -17 -41 -17 -51 0 -9 -7 -26 -15 -37 -8 -10 -15 -30 -15 -44 0
-14 -7 -34 -15 -44 -8 -11 -15 -34 -15 -50 0 -17 -7 -40 -15 -50 -19 -25 -19
-105 0 -130 8 -11 15 -26 15 -34 0 -15 39 -66 97 -127 30 -32 138 -117 163
-128 8 -4 29 -16 45 -27 28 -18 35 -22 67 -35 7 -3 20 -9 28 -14 49 -27 80
-41 98 -41 11 0 25 -7 32 -15 7 -8 22 -15 34 -15 12 0 31 -7 42 -15 10 -8 30
-15 44 -15 14 0 36 -7 50 -15 14 -8 36 -14 48 -15 13 0 38 -6 55 -14 18 -8 50
-17 72 -20 22 -3 49 -7 60 -8 18 -3 21 4 26 67 4 39 12 88 18 110 6 22 11 75
11 117 0 42 5 80 10 83 6 4 23 -1 38 -12 41 -27 64 -40 100 -57 27 -13 32 -20
32 -49 0 -18 -7 -42 -15 -53 -8 -10 -15 -28 -15 -40 0 -11 -7 -29 -15 -40 -8
-10 -15 -27 -15 -37 0 -11 -6 -31 -14 -45 -8 -15 -17 -34 -20 -42 -3 -8 -10
-22 -15 -30 -5 -8 -12 -22 -15 -30 -4 -8 -15 -28 -26 -45 -11 -16 -23 -37 -27
-45 -9 -20 -119 -167 -152 -204 -30 -32 -160 -132 -208 -158 -17 -10 -40 -18
-50 -18 -11 0 -28 -7 -39 -15 -27 -20 -173 -21 -200 0 -10 8 -29 15 -40 15
-12 0 -27 7 -34 15 -7 8 -17 15 -22 15 -14 0 -84 56 -138 110 -77 76 -164 198
-199 277 -5 11 -15 24 -20 28 -6 3 -11 42 -12 88 0 45 -5 120 -10 167 -6 47
-14 193 -18 325 -6 191 -10 248 -24 278 -15 35 -37 43 -37 14 0 -34 -145 -147
-188 -147 -8 0 -29 -7 -48 -16 -31 -15 -37 -15 -96 6 -80 27 -119 57 -153 117
-25 43 -28 58 -29 148 0 81 4 107 19 135 29 51 46 70 87 96 32 21 50 24 124
24 92 0 110 -6 192 -67 40 -30 92 -93 92 -113 0 -5 5 -12 11 -15 11 -7 49 22
49 37 0 5 11 24 23 41 35 48 67 115 67 141 0 13 7 29 15 36 12 10 15 40 15
151 0 135 9 170 29 117 11 -30 47 -62 55 -50 5 9 -19 67 -34 82 -3 3 -18 24
-34 48 -16 23 -33 42 -37 42 -5 0 -9 7 -9 15 0 11 11 15 40 15 22 0 57 -7 77
-15 44 -19 123 -20 124 -2 6 71 -37 158 -108 216 -46 38 -41 61 17 75 l45 11
27 -40 c44 -64 165 -185 186 -185 5 0 15 -7 22 -15 7 -8 23 -15 35 -15 12 0
28 -6 34 -14 10 -11 111 -27 176 -27 64 0 173 15 192 27 12 8 31 14 42 14 11
0 22 4 26 9 3 6 26 20 52 33 74 36 185 158 241 264 18 32 28 24 47 -38z
m-1288 -110 c40 -17 113 -77 113 -93 0 -11 -27 -12 -140 -8 l-139 6 -5 -234
c-4 -252 -11 -328 -30 -335 -7 -3 -38 12 -69 32 -64 41 -64 33 -4 152 9 19 17
41 17 51 0 9 6 23 12 29 12 12 22 74 34 220 4 42 2 68 -7 78 -10 12 -8 19 11
39 13 14 33 25 44 25 12 0 30 7 40 15 11 8 30 15 42 15 13 0 26 5 29 10 8 13
18 13 52 -2z m-257 -130 c0 -29 -7 -66 -15 -82 -8 -15 -15 -47 -15 -70 0 -23
-5 -47 -12 -54 -7 -7 -15 -38 -19 -70 -3 -31 -11 -70 -17 -87 -6 -16 -14 -42
-17 -57 -4 -21 -11 -28 -29 -28 -18 0 -27 9 -40 43 -20 53 -20 75 -1 120 8 20
15 55 15 77 0 23 7 54 15 71 9 16 13 34 10 39 -9 15 -51 12 -65 -5 -15 -18
-50 -20 -50 -4 0 7 16 31 35 55 36 43 105 84 143 84 11 0 24 5 27 10 3 6 13
10 21 10 10 0 14 -13 14 -52z m189 -141 c12 -24 21 -54 21 -66 0 -13 7 -38 16
-56 14 -31 14 -39 0 -88 -9 -31 -16 -66 -16 -80 0 -14 -6 -38 -14 -54 -8 -15
-24 -49 -36 -75 -22 -50 -39 -59 -60 -33 -10 13 -10 19 4 33 9 10 16 32 16 48
1 16 7 40 15 54 11 19 14 65 15 186 0 138 3 174 16 174 1 0 12 -19 23 -43z
m3216 -1008 c25 -23 45 -47 45 -54 0 -7 7 -18 15 -25 8 -7 15 -20 15 -30 0
-10 7 -23 15 -30 8 -7 15 -26 15 -42 0 -16 6 -41 14 -56 7 -15 16 -76 19 -137
6 -111 21 -185 37 -185 9 0 50 79 50 97 0 6 7 16 15 23 8 7 15 25 15 39 0 15
7 36 15 47 11 15 14 54 15 177 0 126 3 157 14 157 7 0 19 -7 26 -15 7 -8 18
-15 24 -15 20 -1 56 -38 71 -74 20 -47 19 -174 0 -200 -8 -11 -15 -38 -15 -60
0 -23 -7 -50 -15 -60 -8 -11 -15 -30 -15 -42 0 -12 -7 -27 -15 -34 -8 -7 -15
-17 -15 -23 0 -19 33 -47 55 -47 23 0 65 49 65 77 0 10 7 27 15 37 8 11 15 34
15 51 0 25 12 52 36 84 7 8 54 -30 54 -43 0 -7 7 -19 15 -26 19 -16 19 -60 0
-86 -8 -10 -15 -27 -15 -37 0 -11 -6 -31 -14 -45 -8 -15 -17 -34 -20 -42 -4
-8 -15 -28 -26 -45 -11 -16 -24 -39 -29 -50 -5 -12 -21 -32 -35 -45 -14 -14
-26 -30 -26 -36 0 -18 -176 -174 -195 -174 -21 1 -57 28 -161 125 -59 55 -115
107 -123 115 -9 9 -36 32 -61 52 -25 20 -73 63 -107 96 -69 67 -68 60 -13 147
11 17 21 35 23 40 2 6 10 26 17 45 8 19 15 71 18 115 4 78 -2 103 -39 165 -32
54 -32 80 0 80 9 0 26 7 37 15 11 8 41 14 72 15 48 0 56 -4 97 -41z m-4050
-454 c22 -8 65 -14 95 -15 30 0 66 -7 80 -15 14 -8 41 -15 60 -15 19 0 44 -7
54 -15 11 -8 32 -15 47 -15 72 0 101 -71 97 -240 l-3 -115 -28 -3 c-16 -2 -39
4 -52 12 -13 9 -38 16 -55 16 -17 0 -44 7 -60 15 -29 15 -238 24 -258 11 -6
-3 -19 -24 -31 -46 -19 -37 -21 -57 -21 -235 l0 -195 50 0 c28 0 67 -7 87 -15
19 -8 44 -15 54 -15 28 0 85 -38 114 -75 23 -31 26 -43 23 -97 -3 -57 -5 -63
-26 -66 -12 -2 -36 4 -54 12 -17 9 -44 16 -60 16 -16 0 -31 6 -34 15 -16 41
-64 -11 -64 -70 0 -38 24 -50 33 -15 4 17 11 19 78 14 41 -3 80 -7 87 -10 8
-2 12 -24 12 -62 0 -54 -3 -62 -35 -95 -20 -20 -47 -40 -60 -43 -51 -13 -145
6 -217 42 -28 15 -104 19 -110 7 -1 -5 -18 -18 -36 -31 -24 -17 -47 -23 -85
-24 -51 0 -53 1 -108 62 l-56 62 -31 -16 c-51 -26 -84 -21 -125 21 l-37 36 0
117 c0 143 18 195 81 237 38 25 47 26 172 27 l132 1 3 34 c2 19 -3 50 -12 70
-10 25 -16 87 -20 201 -6 188 4 323 29 393 20 53 74 107 109 107 13 0 39 7 57
15 43 18 74 18 124 0z m580 -135 c16 -1 41 -7 55 -15 14 -8 37 -14 52 -15 15
0 45 -9 66 -20 l39 -20 6 -149 c3 -82 10 -158 16 -170 7 -12 11 -111 11 -273
0 -139 5 -293 11 -343 l11 -90 -43 -37 c-78 -67 -78 -67 -72 170 l6 207 -51
18 c-27 9 -70 17 -95 17 -24 0 -61 7 -80 15 -20 8 -64 15 -97 15 -81 0 -87 13
-40 85 11 17 24 40 29 52 5 11 15 24 20 28 6 3 11 16 11 28 0 12 7 31 15 41 8
11 15 34 15 50 1 17 7 42 15 56 11 19 14 67 15 196 0 94 3 174 6 177 4 3 16 0
28 -8 11 -8 34 -15 51 -15z m3202 -59 c12 -13 36 -33 51 -45 28 -20 142 -124
262 -236 30 -29 70 -63 88 -77 35 -27 41 -53 17 -73 -8 -7 -15 -18 -15 -24 0
-13 -101 -126 -112 -126 -5 0 -38 29 -75 65 -37 36 -74 65 -83 65 -8 0 -25 6
-36 14 -11 8 -38 16 -59 18 -39 3 -56 20 -84 85 -5 11 -15 24 -20 28 -6 3 -11
15 -11 26 0 32 -63 139 -107 183 -24 22 -43 48 -43 56 0 17 67 85 110 112 24
15 26 15 59 -15 19 -18 45 -43 58 -56z m-371 -76 c10 -8 26 -15 35 -15 20 0
139 -107 139 -125 0 -7 7 -18 15 -25 8 -7 15 -24 15 -39 0 -14 7 -35 15 -45
35 -46 -2 -188 -44 -170 -9 4 -28 9 -43 12 -29 4 -138 99 -138 118 0 6 -7 17
-15 24 -8 7 -15 21 -15 31 0 16 -37 89 -45 89 -2 0 -15 -4 -29 -10 -34 -12
-39 0 -24 51 13 41 79 119 102 119 7 0 21 -7 32 -15z m-1228 -129 c167 -12
171 -14 172 -76 0 -19 7 -46 15 -60 21 -37 21 -387 0 -414 -8 -11 -15 -29 -15
-41 0 -41 -16 -45 -176 -45 l-152 0 -9 -25 c-8 -24 -9 -24 -31 -10 -20 15 -22
25 -22 98 0 45 -7 109 -15 142 -9 40 -14 117 -15 234 0 166 1 174 23 197 16
19 28 23 47 18 14 -3 94 -11 178 -18z m-1245 -43 c18 -21 60 -67 95 -104 57
-61 62 -69 62 -111 0 -25 7 -65 15 -88 9 -25 15 -78 15 -130 0 -52 6 -105 15
-130 20 -58 21 -240 1 -240 -8 0 -16 7 -20 15 -4 11 -20 15 -56 15 -72 0 -90
-21 -90 -105 0 -84 18 -105 90 -105 51 0 79 16 93 54 12 30 27 7 27 -40 l0
-44 -48 0 c-27 0 -57 -7 -70 -16 -14 -10 -38 -14 -69 -12 l-48 3 -13 80 c-8
47 -17 214 -21 405 -5 224 -10 332 -19 347 -16 28 -17 243 -1 243 6 0 25 -17
42 -37z m-823 -8 c14 -8 43 -15 65 -15 22 0 51 -7 65 -15 14 -8 39 -14 55 -15
37 0 75 -25 75 -48 0 -25 -64 -148 -97 -185 -47 -53 -101 -91 -116 -79 -6 5
-37 12 -67 14 -30 2 -67 12 -82 22 -26 17 -28 23 -28 91 0 42 6 88 15 108 8
20 15 52 15 71 0 56 48 81 100 51z m2725 -93 c25 -7 122 -12 252 -12 l213 0
15 -36 15 -37 -42 -36 c-23 -20 -58 -51 -78 -68 -38 -36 -61 -41 -80 -18 -7 8
-27 15 -45 15 -18 0 -52 -7 -75 -15 -23 -8 -73 -15 -111 -15 -37 0 -80 -5 -96
-11 -15 -7 -74 -15 -130 -19 -56 -4 -109 -13 -117 -19 -8 -7 -30 -11 -48 -9
l-33 3 -5 120 c-3 66 -10 129 -17 141 -7 12 -9 24 -6 28 11 11 344 1 388 -12z
m-995 -60 c0 -26 7 -72 15 -102 10 -38 15 -108 15 -225 1 -122 5 -181 15 -210
17 -46 19 -84 5 -105 -6 -9 -10 -10 -10 -3 0 7 -18 30 -41 53 -31 30 -48 40
-72 40 -35 -1 -69 -24 -80 -54 -21 -54 -27 16 -25 275 l3 274 25 12 c14 7 50
32 80 56 30 25 58 42 63 40 4 -2 7 -25 7 -51z m-610 -87 c7 -8 23 -15 37 -15
13 0 40 -7 60 -15 46 -20 122 -19 173 1 69 28 71 24 68 -138 l-3 -143 -154 -3
c-197 -3 -201 -1 -201 101 0 44 -6 83 -15 101 -15 29 -21 107 -8 119 11 11 30
8 43 -8z m2199 -27 c2 -5 15 -14 30 -20 l26 -10 -45 -39 c-32 -27 -54 -39 -76
-39 -46 0 -125 -79 -147 -148 -19 -57 -22 -118 -7 -127 6 -3 10 -15 10 -27 0
-11 9 -31 20 -45 35 -45 25 -62 -85 -146 -78 -59 -107 -77 -122 -77 -10 -1
-29 -7 -43 -15 -14 -8 -39 -14 -57 -15 -43 0 -57 26 -48 93 6 46 15 69 46 127
4 8 17 33 29 56 11 23 34 54 50 70 16 16 30 34 30 40 0 15 231 252 295 302 48
39 84 46 94 20z m464 -20 c58 -46 106 -100 107 -119 0 -9 -7 -22 -15 -29 -8
-7 -15 -18 -15 -25 0 -7 -19 -31 -41 -54 -45 -44 -95 -55 -119 -26 -7 8 -18
15 -25 15 -7 0 -35 24 -64 54 -45 49 -51 60 -51 98 0 33 6 48 23 63 73 64 138
72 200 23z m-317 -105 c22 -69 78 -147 137 -188 17 -12 20 -19 11 -32 -6 -9
-17 -20 -25 -23 -8 -4 -29 -14 -47 -23 -31 -15 -36 -16 -64 -1 -34 18 -98 83
-98 100 0 7 -7 25 -15 40 -23 44 -18 70 20 109 39 38 72 45 81 18z m-3212 -58
c15 -8 53 -15 83 -15 30 0 64 -5 75 -11 11 -6 41 -14 67 -18 l46 -6 0 -190 0
-190 -70 0 c-38 0 -77 3 -85 5 -12 4 -16 -9 -21 -65 -4 -38 -12 -94 -18 -124
-6 -30 -11 -151 -11 -276 0 -220 0 -222 -24 -244 -19 -18 -33 -22 -72 -19
l-49 3 -5 58 c-7 73 -23 87 -102 87 -34 0 -72 7 -89 16 -26 13 -30 19 -24 42
4 15 13 34 21 43 8 8 14 24 14 35 0 10 7 28 15 38 8 11 15 33 15 49 0 15 6 38
13 50 6 12 14 62 17 112 4 79 7 90 25 95 28 7 95 70 95 89 0 9 7 25 15 35 9
12 15 43 15 75 1 31 7 67 15 81 19 32 20 149 1 175 -7 11 -16 32 -19 46 -10
42 8 49 57 24z m3022 -50 c7 -19 14 -45 14 -57 0 -13 14 -43 30 -68 36 -54 37
-66 8 -91 -45 -37 -98 -14 -137 61 -25 48 -27 83 -6 100 8 7 15 17 15 22 0 13
42 68 52 68 5 0 16 -16 24 -35z m-4158 -132 c-3 -35 -6 -38 -36 -41 -62 -6
-69 5 -26 43 52 46 66 45 62 -2z m2232 -2 c41 -5 83 -10 93 -10 16 -1 17 -10
15 -88 l-3 -88 -60 3 c-33 2 -105 9 -160 15 l-100 12 -3 74 c-2 41 0 81 3 88
5 16 67 14 215 -6z m-2240 -126 c22 -14 40 -33 40 -42 0 -20 58 -83 77 -83 8
0 25 -8 39 -17 22 -14 32 -15 67 -5 41 11 43 10 71 -20 30 -33 91 -78 104 -78
21 0 212 -223 212 -248 0 -5 7 -15 15 -22 8 -7 15 -19 15 -28 0 -8 7 -23 16
-33 25 -28 11 -50 -25 -43 -30 6 -93 -16 -106 -36 -10 -16 -40 -11 -86 15 -24
14 -51 28 -59 32 -39 18 -183 135 -256 207 -89 89 -174 196 -174 219 0 8 -7
20 -15 27 -8 7 -15 20 -15 30 0 10 -7 23 -15 30 -8 7 -15 27 -15 45 0 26 7 37
33 54 17 11 33 21 35 21 1 0 20 -11 42 -25z m2593 -3 c37 -38 37 -95 1 -128
-14 -13 -29 -24 -35 -24 -15 0 -89 79 -89 96 0 27 51 84 74 84 12 0 34 -13 49
-28z m207 -63 c0 -9 7 -22 15 -29 8 -7 15 -20 15 -29 0 -9 7 -25 15 -35 18
-24 20 -147 3 -179 -6 -12 -13 -67 -16 -122 -2 -56 -11 -112 -18 -127 -8 -15
-14 -52 -14 -83 l0 -55 98 0 c70 0 113 -5 151 -19 64 -22 141 -84 141 -112 0
-12 8 -34 17 -50 15 -25 16 -35 5 -81 -7 -29 -16 -73 -21 -98 -4 -25 -13 -55
-19 -67 -7 -12 -12 -34 -12 -50 0 -15 -7 -41 -15 -57 -8 -15 -15 -43 -15 -61
0 -44 -23 -65 -69 -65 -21 0 -58 -7 -81 -15 -23 -8 -66 -15 -95 -15 -29 0 -69
-7 -88 -15 -20 -8 -60 -15 -88 -15 -28 0 -73 -8 -98 -17 -71 -25 -81 -17 -81
64 -1 79 -24 155 -65 210 -41 53 -63 67 -120 75 -27 3 -73 11 -102 17 -41 9
-66 9 -125 -4 -40 -8 -90 -15 -110 -15 -20 0 -40 -4 -43 -10 -3 -5 -24 -14
-45 -20 -31 -8 -41 -17 -46 -38 -3 -15 -13 -43 -21 -62 -16 -36 -36 -83 -47
-110 -3 -8 -15 -28 -26 -45 -11 -16 -24 -39 -29 -51 -11 -25 -130 -144 -144
-144 -6 0 -19 -8 -29 -17 -26 -23 -186 -23 -222 0 -14 10 -36 17 -48 17 -13 0
-32 7 -42 15 -11 8 -29 15 -41 15 -12 0 -30 7 -41 15 -10 8 -29 15 -41 15 -45
0 -53 31 -53 215 0 114 -5 190 -15 230 -18 75 -19 139 -2 153 6 5 28 12 47 15
153 23 150 21 150 94 0 30 5 64 12 76 9 15 14 104 18 277 l5 255 87 5 c50 3
92 10 100 18 6 6 21 12 33 12 11 0 31 7 43 16 12 8 30 14 40 12 14 -3 18 -19
22 -103 l5 -100 55 -5 55 -5 2 -159 c2 -126 5 -162 18 -176 8 -9 15 -20 15
-24 0 -15 75 -81 110 -98 106 -48 103 -48 309 -48 164 0 201 3 211 15 7 8 19
15 28 15 23 0 112 71 130 105 41 75 45 100 51 280 l6 180 30 3 c17 1 50 10 74
19 l44 16 -6 91 c-3 50 -9 102 -13 115 l-7 24 26 -19 c15 -10 27 -26 27 -35z
m-916 15 c19 -19 22 -104 4 -122 -17 -17 -83 -15 -98 3 -6 8 -12 35 -12 60 0
25 6 52 12 60 16 20 75 19 94 -1z m794 -92 c-3 -36 -4 -37 -42 -37 -45 0 -57
15 -24 30 13 6 29 25 37 43 12 26 17 30 24 17 4 -8 7 -32 5 -53z m-341 26 c7
-6 13 -42 15 -86 l3 -77 100 0 100 0 3 -171 c3 -190 -7 -231 -68 -292 -64 -64
-97 -72 -302 -72 -175 0 -189 1 -239 24 -70 32 -126 87 -140 140 -11 39 -5
289 7 308 3 4 45 8 94 8 49 0 100 4 115 10 26 10 26 11 24 109 -1 54 2 104 6
111 9 15 262 5 282 -12z m133 4 c0 -10 5 -23 12 -30 7 -7 20 -12 30 -12 33 0
19 -29 -19 -39 -20 -6 -40 -8 -45 -5 -4 3 -8 27 -8 55 0 37 4 49 15 49 8 0 15
-8 15 -18z m-2628 -19 c10 -9 18 -24 18 -33 0 -9 14 -36 30 -58 17 -23 30 -45
30 -48 0 -26 299 -334 325 -334 4 0 24 -12 44 -27 45 -35 70 -50 98 -62 11 -6
24 -15 28 -20 3 -6 15 -11 26 -11 16 0 19 -7 19 -42 -1 -24 -7 -54 -15 -68 -8
-14 -14 -39 -15 -56 0 -32 -63 -115 -180 -239 -30 -32 -60 -63 -66 -69 -5 -6
-43 -49 -84 -96 -104 -118 -109 -122 -150 -117 -42 6 -106 29 -122 45 -7 7
-20 12 -29 12 -9 0 -22 7 -29 15 -7 8 -17 15 -22 15 -6 0 -27 14 -48 30 -21
17 -42 30 -47 30 -34 0 -333 312 -333 348 0 5 -7 15 -15 22 -8 7 -15 20 -15
30 0 10 -7 23 -15 30 -10 8 -15 30 -15 64 1 56 -17 32 184 246 28 30 82 90
119 134 38 44 81 91 95 106 15 15 56 60 91 99 36 39 67 71 70 71 2 0 13 -7 23
-17z m846 -67 c29 -15 107 -36 160 -44 l32 -4 0 -69 c0 -39 -7 -85 -15 -106
-8 -19 -15 -46 -15 -58 0 -12 -7 -28 -15 -35 -8 -7 -15 -19 -15 -26 0 -7 -9
-31 -21 -53 -40 -78 -69 -78 -69 -2 0 31 -5 53 -15 61 -8 7 -15 20 -15 30 0
10 -7 23 -15 30 -8 7 -15 17 -15 22 0 13 -87 127 -123 161 -34 33 -31 48 17
71 19 9 38 21 41 26 9 14 53 12 83 -4z m-63 -528 c-4 -13 -10 -43 -14 -68 -4
-25 -11 -52 -16 -60 -9 -14 -25 -220 -26 -350 -2 -102 18 -345 29 -373 7 -16
12 -44 12 -63 0 -20 5 -45 12 -57 6 -12 15 -38 19 -57 4 -19 13 -51 20 -70 6
-19 14 -39 15 -45 2 -5 8 -17 13 -25 5 -8 18 -35 30 -60 51 -105 136 -212 245
-307 20 -17 36 -36 36 -42 0 -19 -81 -12 -127 10 -44 21 -143 106 -143 122 0
5 -12 24 -26 42 -30 39 -64 104 -64 121 0 6 -7 17 -15 24 -8 7 -15 22 -15 34
0 12 -7 31 -15 42 -8 10 -15 30 -15 44 0 14 -7 34 -15 44 -8 11 -15 36 -15 55
-1 20 -7 47 -15 61 -8 14 -14 44 -15 68 0 23 -7 59 -16 80 -24 57 -25 563 -1
609 10 18 17 47 17 66 0 18 7 42 15 53 8 10 15 29 15 41 0 12 5 25 11 28 5 4
14 18 19 31 6 15 18 24 31 24 18 0 20 -4 14 -22z m323 -58 c17 0 20 -11 25
-94 3 -52 10 -103 16 -114 7 -13 11 -90 11 -199 0 -103 5 -195 12 -218 6 -22
12 -78 12 -125 l1 -85 -32 -3 c-17 -2 -45 4 -62 12 -16 9 -45 16 -64 16 -22 0
-41 8 -55 23 -20 21 -20 25 -6 77 10 38 14 114 14 250 1 135 5 213 15 255 8
33 15 96 15 141 0 44 3 83 6 86 3 4 21 0 39 -8 19 -8 43 -14 53 -14z m-236
-122 c26 -30 22 -111 -5 -116 -31 -6 -67 36 -67 78 0 60 36 79 72 38z m18
-283 c0 -8 -7 -15 -15 -15 -8 0 -15 7 -15 15 0 8 7 15 15 15 8 0 15 -7 15 -15z
m-4 -146 c11 -18 -13 -34 -31 -19 -8 7 -15 16 -15 21 0 13 38 11 46 -2z m3143
-113 c10 -11 9 -21 -3 -45 -9 -16 -16 -39 -16 -49 0 -11 -7 -25 -15 -32 -8 -7
-15 -19 -15 -27 0 -21 -155 -169 -204 -193 -22 -12 -48 -25 -56 -30 -8 -5 -22
-11 -30 -14 -8 -3 -22 -10 -30 -14 -48 -27 -84 -42 -100 -42 -9 0 -23 -7 -30
-15 -7 -8 -24 -15 -39 -15 -14 0 -35 -7 -45 -15 -11 -8 -32 -15 -46 -15 -14 0
-35 -7 -46 -15 -10 -8 -37 -15 -60 -15 -22 0 -49 -7 -60 -15 -10 -8 -41 -15
-69 -15 -27 0 -68 -7 -90 -15 -58 -21 -422 -21 -449 0 -11 8 -35 15 -53 15
-37 0 -112 36 -120 57 -11 27 13 36 48 19 46 -23 515 -24 579 -1 23 8 62 15
87 15 24 0 60 7 80 15 19 8 47 15 62 15 14 1 37 7 51 15 14 8 37 14 51 15 15
0 32 7 39 15 7 8 21 15 32 15 11 0 32 6 46 14 15 8 34 17 42 20 8 3 23 10 33
16 9 5 25 15 35 20 9 6 24 13 32 17 25 11 173 124 201 153 14 15 47 57 74 94
50 68 64 76 84 52z m-697 -41 c-12 -128 -18 -171 -24 -181 -5 -7 -76 -13 -200
-17 -106 -3 -209 -10 -228 -16 -19 -6 -112 -11 -207 -11 -158 0 -173 2 -182
19 -7 12 -7 30 0 54 13 48 75 77 163 77 35 0 73 7 90 15 17 9 55 15 95 15 44
0 74 5 87 15 12 9 43 14 85 15 37 0 83 7 102 15 20 8 62 15 94 15 32 0 65 5
73 10 8 6 24 9 35 8 16 -2 19 -9 17 -33z m-385 -309 c-8 -7 -17 -23 -19 -36
-4 -29 -21 -33 -26 -7 -4 22 36 69 51 60 6 -4 4 -11 -6 -17z m177 15 c3 -5 -5
-20 -18 -34 -13 -13 -26 -32 -29 -42 -4 -9 -11 -13 -17 -10 -15 10 -12 35 5
35 8 0 15 8 15 18 0 30 32 53 44 33z m-410 -37 c24 -64 -57 -101 -118 -53 -25
20 -25 21 -8 44 14 20 26 24 68 25 38 0 53 -4 58 -16z"/>
<path d="M5073 5363 c-9 -3 -13 -29 -14 -76 0 -88 -26 -160 -58 -165 -24 -4
-60 32 -61 59 0 9 -7 22 -15 29 -8 7 -15 24 -15 39 0 34 -17 51 -51 51 -36 0
-44 -14 -25 -42 9 -12 16 -32 16 -43 0 -48 64 -142 114 -169 l36 -19 38 26
c63 41 82 90 82 206 0 81 -3 100 -16 105 -9 3 -16 6 -17 5 -1 0 -8 -3 -14 -6z"/>
<path d="M4670 5308 c0 -29 6 -73 14 -98 12 -40 12 -50 -4 -90 -10 -25 -25
-47 -35 -48 -18 -4 -81 50 -96 83 -17 35 -35 64 -53 84 -15 16 -22 18 -42 9
-25 -12 -32 -42 -13 -53 5 -4 15 -17 20 -28 21 -47 39 -71 85 -118 44 -45 52
-49 95 -49 51 0 67 12 99 76 24 47 27 149 5 201 -8 19 -15 46 -15 59 0 20 -5
24 -30 24 -30 0 -30 -1 -30 -52z"/>
<path d="M3487 4891 c-77 -36 -101 -146 -51 -235 14 -25 49 -66 77 -91 48 -42
56 -45 108 -45 78 0 89 14 89 116 -1 54 -5 85 -15 98 -19 26 -19 56 0 56 28 0
15 30 -27 60 -22 16 -47 30 -53 30 -7 0 -26 7 -41 15 -35 18 -39 18 -87 -4z
m43 -93 c-3 -80 -1 -98 15 -98 10 0 15 10 15 31 0 26 3 30 22 27 12 -2 27 -13
33 -24 6 -12 16 -29 23 -37 8 -9 12 -35 10 -64 -4 -67 -29 -69 -90 -8 -83 81
-111 166 -65 198 34 24 39 21 37 -25z"/>
<path d="M4558 3730 c-45 -47 -76 -72 -97 -76 -17 -4 -31 -13 -31 -20 0 -10
16 -14 61 -14 69 0 114 21 149 70 25 35 25 61 3 89 -18 21 -18 21 -85 -49z"/>
</g>
</svg>
