<?xml version="1.0" standalone="no"?>
<!DOCTYPE svg PUBLIC "-//W3C//DTD SVG 20010904//EN"
 "http://www.w3.org/TR/2001/REC-SVG-20010904/DTD/svg10.dtd">
<svg version="1.0" xmlns="http://www.w3.org/2000/svg"
 width="300.000000pt" height="420.000000pt" viewBox="0 0 300.000000 420.000000"
 preserveAspectRatio="xMidYMid meet">
<metadata>
Created by potrace 1.10, written by Peter Selinger 2001-2011
</metadata>
<g transform="translate(0.000000,420.000000) scale(0.050000,-0.050000)"
fill="#000000" stroke="none">
<path d="M3063 7919 c-297 -78 -538 -267 -828 -649 -293 -387 -461 -562 -688
-716 -441 -299 -487 -457 -196 -676 69 -52 114 -103 120 -136 6 -28 20 -68 30
-87 11 -19 19 -71 19 -116 0 -45 14 -144 32 -220 l31 -139 -50 -60 c-103 -122
-122 -344 -39 -456 93 -127 349 -306 448 -314 34 -2 78 -32 119 -79 86 -97
266 -219 453 -305 83 -38 146 -73 141 -77 -4 -5 -65 -38 -135 -74 -157 -80
-461 -539 -457 -690 2 -116 -130 -601 -200 -732 -106 -198 -78 -348 71 -386
31 -7 79 -39 108 -69 66 -70 135 -59 151 23 9 43 25 58 64 63 87 10 99 216 22
406 -34 86 13 205 66 166 29 -21 38 -68 47 -265 6 -132 15 -246 20 -254 36
-59 -39 -746 -116 -1065 -128 -526 -124 -533 273 -548 387 -15 385 -17 410
516 8 182 26 371 39 420 101 369 114 374 134 50 9 -155 3 -320 -22 -555 -40
-385 -41 -381 119 -417 140 -31 655 -16 700 21 64 53 -1 188 -108 224 -70 23
-105 690 -51 947 17 77 30 166 30 197 0 50 6 56 47 46 34 -9 60 1 93 37 28 30
69 50 102 50 163 0 211 165 99 343 -57 91 -71 140 -95 327 -16 121 -46 266
-68 322 -22 56 -34 116 -27 132 6 18 -18 78 -57 139 -38 59 -106 181 -152 272
-45 91 -100 176 -122 190 -56 35 -50 49 26 63 376 71 794 475 794 769 0 90 12
140 49 206 89 156 82 326 -20 438 -40 45 1 350 56 412 54 61 66 182 27 275
-47 112 -41 147 33 184 318 160 278 491 -132 1098 -412 610 -917 878 -1410
749z m419 -59 c362 -67 733 -395 1049 -927 254 -425 275 -661 72 -780 l-63
-37 0 83 0 84 -135 61 c-668 303 -1893 234 -2655 -149 -227 -114 -290 -168
-290 -248 l0 -70 -78 61 c-219 174 -177 295 188 542 236 159 410 336 679 687
452 591 783 776 1233 693z m394 -1431 c387 -67 604 -156 604 -250 0 -50 -7
-61 -33 -51 -647 249 -1672 221 -2433 -66 -201 -76 -253 -110 -241 -159 8 -29
-15 -52 -103 -102 -134 -75 -135 -74 -146 75 l-8 115 147 83 c575 328 1505
477 2213 355z m-596 -216 c0 -46 -7 -48 -265 -71 -329 -30 -913 -158 -1169
-256 -65 -25 -18 57 49 85 486 207 1385 364 1385 242z m260 -3 c0 -47 -6 -50
-108 -50 -108 0 -137 19 -117 75 20 54 225 32 225 -25z m480 -12 c245 -48 446
-106 454 -129 18 -61 -29 -65 -205 -19 -159 41 -292 64 -604 102 -74 9 -85 17
-85 60 0 59 90 56 440 -14z m-442 -185 c13 -57 58 -193 100 -303 l76 -200 -62
-7 c-97 -10 -242 205 -341 503 -40 122 -37 125 94 117 l109 -6 24 -104z m919
-131 c57 -191 2 -278 -215 -341 -136 -40 -384 -67 -338 -38 14 9 59 17 100 17
333 1 474 153 386 415 -12 36 -8 43 15 34 16 -6 40 -45 52 -87z m-1346 9 c136
-136 36 -184 -231 -110 -284 79 -247 116 156 156 14 2 48 -19 75 -46z m-988
-40 l73 -50 -40 -125 c-34 -108 -39 -173 -35 -456 7 -453 6 -471 -30 -441 -16
13 -39 57 -52 98 -62 199 -231 354 -370 339 -59 -6 -59 -5 -92 154 -67 322
-57 338 296 470 191 71 164 70 250 11z m1959 -13 c192 -41 140 -138 -75 -138
-137 0 -187 37 -187 137 0 53 19 53 262 1z m-1642 -146 c574 -237 1349 -311
1902 -181 l53 13 -26 -147 c-14 -81 -38 -202 -54 -270 -34 -145 -32 -187 14
-391 48 -213 16 -325 -141 -495 -469 -506 -1179 -529 -1908 -60 -187 120 -216
152 -253 282 -35 127 -67 153 -67 56 0 -120 -80 -103 -292 64 -187 147 -237
297 -151 456 107 201 300 164 424 -81 102 -202 213 -298 223 -193 3 25 5 212
5 415 1 379 33 632 79 612 12 -5 99 -41 192 -80z m1997 -603 c32 -71 29 -154
-10 -250 -43 -108 -66 -71 -67 104 0 193 29 250 77 146z m-1434 -1297 c40 -7
78 -27 85 -44 14 -36 -7 -31 -208 47 -163 63 -207 99 -59 48 60 -20 142 -43
182 -51z m-325 20 c-30 -27 -218 -109 -218 -95 0 10 43 36 95 59 89 38 143 54
123 36z m204 -95 l154 -63 42 -142 c80 -271 148 -910 98 -914 -112 -9 -580 42
-605 65 -33 29 -13 476 23 531 23 34 24 46 6 46 -19 0 -22 32 -13 127 12 111
7 138 -36 220 l-50 93 95 49 c118 62 103 63 286 -12z m548 -11 c130 -64 152
-125 45 -127 -36 0 -101 -13 -144 -29 -44 -15 -80 -26 -81 -24 0 2 -12 36 -26
74 -24 66 -22 72 31 115 66 54 43 55 175 -9z m-893 -195 c32 -116 5 -286 -63
-395 -67 -108 -74 -111 -121 -59 -18 20 -78 57 -133 83 -133 62 -126 78 31 74
157 -5 168 8 169 178 0 110 -5 124 -50 144 l-49 23 43 73 43 74 55 -62 c31
-34 64 -94 75 -133z m657 72 c71 -169 172 -886 138 -975 -30 -78 -92 -29 -92
73 0 235 -64 627 -151 930 -22 76 72 51 105 -28z m638 -454 c-33 -87 -88 -69
-113 36 -14 58 -46 167 -72 244 -76 223 -54 216 75 -26 66 -125 116 -239 110
-254z m-276 356 c9 -60 -26 -70 -142 -39 -112 29 -129 58 -44 77 113 25 179
11 186 -38z m-1208 23 c36 -14 47 -216 14 -237 -44 -27 -202 -36 -202 -12 0
23 138 261 151 261 3 0 20 -5 37 -12z m1176 -116 c96 0 154 -163 83 -233 -65
-65 -216 16 -245 132 -32 128 -30 136 33 117 30 -9 88 -16 129 -16z m-149
-216 c66 -76 206 -109 247 -59 l36 45 21 -76 c37 -131 89 -445 75 -458 -7 -7
-94 -19 -193 -26 l-181 -13 0 111 c0 103 -23 338 -49 500 -6 39 -6 57 1 40 7
-16 27 -45 43 -64z m-1109 -131 c94 -58 91 -86 -38 -352 -100 -205 -103 -227
-48 -318 26 -43 40 -100 40 -169 0 -127 -35 -160 -44 -41 -5 70 -14 86 -50 91
-68 10 -89 -141 -37 -261 10 -22 7 -35 -8 -35 -13 0 -35 29 -49 65 -63 158
-58 150 -67 100 -10 -59 -75 -59 -114 1 -36 55 -24 112 65 285 33 66 85 226
115 359 60 265 98 359 135 337 13 -8 58 -36 100 -62z m1681 -369 c25 -199 40
-252 101 -362 84 -149 88 -181 28 -223 -64 -45 -96 -38 -96 19 0 28 -9 50 -20
50 -11 0 -20 -11 -20 -25 0 -40 -85 -167 -94 -141 -5 13 1 42 13 64 17 31 15
59 -8 113 -26 63 -26 81 -1 155 37 106 38 200 3 281 -65 150 -91 392 -45 425
61 43 101 -60 139 -356z m-1447 234 c0 -67 -3 -70 -55 -58 -73 18 -72 14 -20
74 61 70 75 67 75 -16z m-29 -192 c29 -57 29 -59 -23 -79 -99 -37 -170 70 -85
129 52 36 67 29 108 -50z m87 -283 c-3 -207 -24 -324 -60 -331 -48 -9 -89 398
-45 443 61 60 107 11 105 -112z m262 36 c0 -86 -25 -132 -49 -93 -17 27 10
182 32 182 9 0 17 -40 17 -89z m940 -11 c0 -55 -9 -100 -20 -100 -11 0 -20 45
-20 100 0 55 9 100 20 100 11 0 20 -45 20 -100z m-267 25 c31 -123 2 -145
-193 -145 l-180 0 0 87 c0 111 -9 106 190 104 161 -1 172 -4 183 -46z m-762
-232 c-6 -35 -19 -117 -30 -183 -38 -229 -120 -907 -133 -1098 l-14 -192 -92
0 c-51 0 -112 -6 -137 -13 -57 -15 -58 15 -6 191 61 206 98 450 113 758 l14
282 56 12 c77 17 92 42 109 180 17 148 17 147 79 135 45 -9 50 -18 41 -72z
m425 28 l67 -1 -16 -165 c-9 -91 -15 -193 -13 -228 3 -57 -5 -65 -89 -92 -153
-48 -240 -373 -244 -916 l-1 -172 -135 34 c-110 28 -134 41 -130 72 2 20 13
131 24 247 20 206 141 1190 151 1231 4 13 59 16 163 6 86 -8 187 -15 223 -16z
m612 -46 c-7 -47 -35 -215 -62 -375 -78 -465 -82 -699 -14 -1035 10 -50 6 -65
-17 -65 -22 0 -35 47 -52 201 -32 277 -30 326 27 739 28 200 50 415 50 478 0
120 8 142 54 142 20 0 23 -21 14 -85z m-98 -50 c-6 -63 -35 -290 -64 -505 -52
-391 -52 -510 -1 -888 9 -64 -288 -127 -392 -83 -64 28 -75 40 -65 79 52 208
59 632 14 867 l-16 84 86 42 c83 40 188 141 188 181 0 24 -27 23 -54 -4 -15
-15 -16 3 -4 65 9 48 17 125 17 171 l1 84 85 7 c47 5 115 10 151 12 l66 3 -12
-115z m-340 -60 c-15 -163 -47 -260 -80 -244 -22 10 -22 17 1 244 13 135 20
155 54 155 36 0 38 -10 25 -155z m-640 -1452 c175 -53 99 -112 -144 -113 -203
0 -304 55 -233 127 22 22 291 12 377 -14z m1072 -27 c82 -49 72 -79 -29 -92
-185 -26 -308 48 -159 94 124 38 120 38 188 -2z"/>
<path d="M3611 7461 c-43 -47 -140 -81 -279 -99 l-102 -13 1 -132 c7 -610 689
-630 697 -20 l2 126 -78 27 c-42 15 -106 55 -141 89 -63 61 -64 62 -100 22z
m206 -160 c161 -66 -13 -501 -200 -501 -177 0 -337 206 -337 432 0 63 4 66 95
77 52 7 136 32 185 57 l90 46 52 -43 c29 -23 81 -54 115 -68z"/>
<path d="M2522 5495 c-110 -57 -105 -158 6 -116 94 36 234 24 349 -29 163 -76
179 -38 28 64 -137 93 -295 126 -383 81z"/>
<path d="M4138 5437 c-80 -22 -216 -125 -194 -147 8 -8 56 6 107 30 77 38 113
43 211 33 130 -14 159 16 74 76 -50 34 -91 36 -198 8z"/>
<path d="M2680 5234 c-164 -83 -102 -334 83 -334 170 0 245 199 115 308 -67
57 -122 64 -198 26z m100 -84 c20 -24 20 -36 0 -60 -53 -64 -142 -17 -113 60
7 17 29 30 50 30 21 0 49 -13 63 -30z"/>
<path d="M4068 5211 c-147 -63 -94 -291 68 -291 143 0 201 206 79 280 -76 47
-68 46 -147 11z m68 -98 c9 -42 -54 -68 -77 -32 -19 32 16 84 49 73 12 -4 25
-22 28 -41z"/>
<path d="M1680 4916 c0 -15 27 -37 59 -49 32 -13 88 -64 123 -114 70 -99 121
-108 64 -11 -72 122 -246 245 -246 174z"/>
<path d="M2890 4360 c-20 -32 63 -114 138 -139 345 -113 905 -83 1013 55 57
73 16 108 -47 40 -134 -144 -884 -127 -1044 24 -32 30 -50 36 -60 20z"/>
<path d="M2745 3526 c-52 -10 -52 -13 -23 -175 34 -185 48 -206 165 -264 l108
-53 73 56 c40 30 77 75 84 99 14 56 -46 315 -78 335 -25 16 -249 17 -329 2z
m322 -39 c55 -56 -94 -102 -209 -65 -37 12 -81 26 -97 31 -26 8 -26 11 0 28
33 21 285 26 306 6z m-4 -350 c-104 -93 -254 -12 -285 153 -22 118 -18 122 82
92 96 -28 122 -115 30 -97 -58 11 -64 -1 -16 -36 30 -21 31 -29 7 -58 -25 -30
-23 -32 26 -20 41 10 53 6 53 -19 0 -18 9 -32 20 -32 11 0 19 7 18 15 -8 50 5
69 42 59 22 -6 40 -2 40 8 0 10 -13 18 -30 18 -36 0 -39 42 -5 78 21 22 18 23
-17 5 -24 -12 -48 -16 -55 -9 -19 18 -16 70 3 59 8 -6 37 7 65 28 l49 37 18
-113 c17 -110 16 -113 -45 -168z m-67 96 c4 -19 -6 -33 -22 -33 -32 0 -59 48
-39 68 20 21 55 1 61 -35z"/>
</g>
</svg>
