<?xml version="1.0" standalone="no"?>
<!DOCTYPE svg PUBLIC "-//W3C//DTD SVG 20010904//EN"
 "http://www.w3.org/TR/2001/REC-SVG-20010904/DTD/svg10.dtd">
<svg version="1.0" xmlns="http://www.w3.org/2000/svg"
 width="300.000000pt" height="213.000000pt" viewBox="0 0 300.000000 213.000000"
 preserveAspectRatio="xMidYMid meet">
<metadata>
Created by potrace 1.10, written by Peter Selinger 2001-2011
</metadata>
<g transform="translate(0.000000,213.000000) scale(0.100000,-0.100000)"
fill="#000000" stroke="none">
<path d="M216 2073 c-3 -4 -6 -301 -6 -661 1 -507 -2 -657 -11 -663 -9 -5 -10
-16 -3 -39 l9 -31 747 1 748 1 0 -120 c0 -66 3 -126 6 -135 4 -10 19 -16 38
-17 59 -1 68 -11 86 -86 l17 -71 -34 -7 c-47 -9 -73 -37 -73 -80 0 -51 28 -75
88 -75 50 1 166 27 242 55 44 16 45 16 59 -4 7 -12 22 -21 32 -21 10 0 35 -10
56 -22 33 -20 52 -23 156 -23 133 0 147 7 147 72 0 42 -27 69 -77 77 l-39 7 8
67 c4 37 7 75 7 85 1 14 10 17 54 17 98 0 98 0 92 94 -3 44 -8 100 -10 123 -4
38 0 47 50 110 30 37 64 85 74 106 19 38 19 40 0 109 -44 159 -137 314 -227
378 -31 23 -66 43 -79 46 -13 4 -23 9 -23 13 1 14 39 51 53 51 21 0 65 38 82
71 9 16 22 29 30 29 26 0 57 40 51 64 -4 16 1 24 17 31 12 6 26 22 31 37 8 23
6 32 -12 51 -17 18 -20 30 -16 58 7 43 -13 63 -56 57 -27 -4 -30 -2 -30 22 0
15 -8 34 -18 43 -24 22 -90 22 -114 0 -17 -15 -19 -15 -38 2 -17 15 -20 31
-20 102 l0 83 -1043 0 c-574 0 -1047 -3 -1051 -7z m2074 -78 c0 -36 -2 -65 -4
-65 -26 0 -36 16 -36 61 l0 49 -987 -2 -988 -3 0 -625 0 -625 133 -3 c77 -1
132 -7 132 -12 0 -6 49 -10 120 -10 73 0 120 4 120 10 0 11 835 15 889 4 17
-4 31 -10 31 -15 0 -5 -314 -8 -730 -7 l-730 3 -3 653 -2 652 1028 0 1027 0 0
-65z m-50 -9 l0 -34 -47 14 c-95 29 -214 12 -295 -41 -29 -19 -43 -24 -51 -16
-15 15 -70 14 -85 -1 -7 -7 -12 -22 -12 -35 0 -14 -6 -23 -15 -23 -19 0 -55
-40 -55 -62 0 -10 8 -23 19 -30 15 -9 18 -19 14 -49 -4 -30 -2 -39 15 -48 16
-9 20 -23 24 -89 3 -61 11 -89 33 -131 27 -49 67 -92 97 -104 9 -4 7 -9 -7
-18 -40 -25 -135 -123 -166 -170 -17 -27 -34 -49 -38 -48 -3 0 -24 22 -46 49
-22 27 -48 49 -57 49 -12 1 -18 9 -18 27 0 17 -15 40 -45 70 -25 24 -45 50
-45 59 0 19 -19 19 -41 -1 -16 -14 -22 -9 -83 78 -164 232 -203 283 -214 283
-6 0 -17 7 -24 15 -11 12 -11 12 5 1 9 -7 17 -10 17 -7 0 13 -62 98 -67 92 -3
-3 5 -20 17 -38 l22 -33 -26 30 c-14 17 -24 36 -21 43 7 19 -13 52 -30 52 -16
0 -21 -35 -6 -45 12 -7 197 -282 228 -336 11 -21 40 -65 62 -96 l41 -58 -29
-3 c-16 -2 -34 -9 -40 -16 -15 -18 -3 -46 20 -46 12 0 16 -5 13 -15 -3 -8 9
-33 29 -57 19 -24 38 -54 42 -68 9 -32 34 -60 52 -60 11 0 13 -8 8 -29 -3 -17
-2 -32 4 -36 6 -3 11 -18 11 -33 0 -20 19 -45 78 -102 l77 -75 -412 0 -413 0
0 48 0 47 -119 0 -120 0 -3 -45 c-2 -25 -6 -45 -10 -45 -5 0 -60 0 -123 0
l-115 0 0 610 0 610 975 0 975 0 0 -34z m-27 -46 c63 -24 123 -65 108 -75 -14
-8 -14 -55 -1 -55 6 0 7 -17 4 -43 -5 -34 -2 -45 14 -60 18 -17 19 -21 6 -46
-16 -32 -10 -57 17 -72 14 -7 23 -5 39 11 11 11 31 20 45 20 53 0 52 -86 -2
-142 -32 -34 -55 -36 -76 -5 -8 12 -18 19 -22 15 -4 -4 0 -18 8 -32 16 -24 15
-25 -25 -61 -64 -58 -133 -85 -235 -92 -131 -8 -135 -8 -165 27 -16 17 -32 28
-37 26 -5 -3 -29 16 -54 43 -57 61 -70 107 -65 232 3 83 8 104 36 162 55 111
147 166 279 167 49 0 90 -7 126 -20z m-373 -50 c0 -4 -16 -34 -35 -66 -19 -32
-35 -63 -35 -68 0 -25 -22 -86 -30 -86 -13 0 -13 57 0 65 17 11 11 23 -12 27
-26 4 -35 32 -17 54 8 10 21 13 41 9 27 -6 28 -5 18 19 -11 31 -4 54 18 58 22
5 52 -2 52 -12z m628 -9 c8 -5 13 -22 11 -42 -3 -39 -1 -43 23 -34 9 4 27 5
40 3 17 -2 23 -9 22 -28 -1 -14 -4 -32 -8 -42 -5 -11 -1 -18 13 -23 47 -15 31
-82 -17 -70 -21 5 -23 3 -17 -12 15 -35 10 -65 -12 -80 -22 -15 -23 -15 -23
20 0 63 -52 87 -103 47 -45 -35 -60 15 -19 63 9 9 10 17 4 17 -18 0 -42 30
-42 52 0 12 8 30 17 40 16 18 16 19 -6 25 -27 7 -24 36 4 41 11 3 24 10 28 18
9 15 64 19 85 5z m-1274 -275 c31 -44 53 -82 51 -85 -3 -2 -6 -2 -8 0 -41 53
-116 170 -108 168 5 -2 35 -40 65 -83z m154 -216 c45 -65 82 -121 82 -124 0
-3 -7 -3 -15 0 -16 7 -165 218 -165 234 0 24 21 1 98 -110z m1048 -56 c78 -47
99 -67 150 -145 52 -80 89 -161 115 -254 l19 -70 -45 -65 c-24 -36 -59 -82
-77 -103 l-33 -38 -55 17 c-63 19 -134 53 -170 82 l-24 20 42 61 c31 43 41 67
37 81 -5 16 -2 20 19 20 14 0 28 5 31 10 3 6 -4 10 -18 10 -31 0 -73 33 -81
63 -3 13 -1 39 4 57 5 19 7 36 4 39 -11 11 -24 -26 -24 -71 0 -37 5 -53 22
-70 36 -36 31 -70 -18 -140 -32 -46 -40 -66 -32 -75 7 -9 7 -13 0 -13 -6 0
-14 5 -17 10 -15 24 -55 -11 -55 -49 0 -11 131 -93 201 -126 64 -29 95 -32
102 -7 2 9 8 25 12 34 5 13 1 21 -16 28 -22 9 -20 9 11 7 l35 -2 8 -109 c4
-60 5 -111 2 -114 -9 -9 -704 -8 -764 1 -30 4 -56 9 -58 11 -2 2 -4 93 -4 202
-1 137 4 232 15 303 19 123 18 111 7 111 -8 0 -23 -84 -37 -202 -6 -51 -9 -58
-28 -58 -52 0 -206 139 -206 185 0 16 68 155 93 190 12 15 18 11 61 -39 26
-31 52 -54 57 -50 5 3 9 -2 9 -10 0 -9 5 -16 10 -16 13 0 13 27 0 35 -10 6 60
113 94 143 19 17 19 17 1 -12 -18 -28 -18 -29 0 -42 10 -8 14 -14 8 -14 -41 0
-55 -73 -29 -148 17 -48 65 -122 79 -122 10 0 239 159 292 203 25 21 27 27 16
40 -11 14 -8 16 25 19 37 3 37 3 68 90 28 78 58 128 76 128 3 0 33 -16 66 -36z
m-946 -9 c0 -7 18 -28 40 -45 22 -17 40 -40 40 -50 0 -19 -79 -150 -90 -150
-3 0 -15 6 -25 14 -18 13 -17 14 14 31 27 13 32 21 28 41 -3 17 0 24 11 24 13
0 13 3 -1 18 -10 10 -17 29 -17 41 0 12 -7 33 -16 46 -9 14 -13 32 -10 41 7
17 26 10 26 -11z m806 -27 c-7 -18 -21 -54 -30 -80 l-18 -48 -54 0 c-58 0 -69
-10 -29 -28 14 -6 25 -16 25 -20 0 -5 -33 -31 -72 -57 -40 -26 -100 -69 -133
-94 l-59 -46 23 40 c57 95 115 167 196 243 68 65 136 116 162 122 1 0 -4 -15
-11 -32z m-906 12 c13 -9 13 -11 0 -20 -20 -13 -57 -13 -66 1 -14 23 37 38 66
19z m546 -47 c-38 -78 -59 -162 -60 -250 -1 -46 -2 -83 -4 -83 -2 0 -14 25
-28 55 -35 75 -31 144 9 163 32 16 35 28 6 35 -18 5 -19 8 -9 29 17 33 82 98
97 98 10 0 6 -14 -11 -47z m64 18 c0 -4 -14 -15 -31 -25 l-31 -18 16 31 c11
20 21 28 31 25 8 -4 15 -9 15 -13z m169 -28 l-41 -37 -19 24 c-10 14 -19 30
-19 35 0 6 27 11 60 13 l60 2 -41 -37z m-101 15 c19 -19 14 -32 -17 -51 -55
-32 -87 12 -33 45 33 21 35 21 50 6z m-618 -15 c12 -11 -37 -33 -60 -28 -31 8
-34 11 -27 29 5 11 16 13 44 9 21 -3 40 -8 43 -10z m530 -36 c-1 -7 -19 -32
-40 -57 -38 -43 -39 -43 -31 -15 15 52 24 70 40 82 18 13 31 8 31 -10z m-500
-12 c0 -25 -78 -35 -83 -10 -1 5 12 13 28 16 48 11 55 10 55 -6z m619 0 c-3
-13 -89 -119 -89 -110 0 37 25 93 48 107 29 17 45 18 41 3z m-556 -111 c-28
-52 -49 -82 -51 -72 -4 19 29 88 65 136 43 57 36 28 -14 -64z m467 91 c0 -34
-41 -153 -70 -203 l-37 -63 -6 62 c-4 42 -1 74 8 95 21 50 105 137 105 109z
m-536 -36 c-19 -21 -39 -25 -49 -9 -6 10 46 41 58 33 5 -3 1 -14 -9 -24z
m-764 -314 c0 -25 -4 -45 -10 -45 -5 0 -10 20 -10 45 0 25 5 45 10 45 6 0 10
-20 10 -45z m-40 1 c0 -19 3 -41 6 -50 5 -13 -2 -16 -40 -16 l-46 0 0 50 0 50
40 0 c39 0 40 -1 40 -34z m130 7 c0 -16 3 -38 6 -50 6 -21 3 -23 -37 -23 l-44
0 3 50 c4 50 4 50 38 50 30 0 34 -3 34 -27z m1485 -103 c11 -17 139 -88 191
-105 43 -14 51 -20 47 -36 -10 -36 -50 -22 -196 64 -75 44 -80 49 -71 71 7 18
20 21 29 6z m176 -65 c16 -4 32 -11 35 -17 12 -19 -47 1 -113 38 -35 19 -63
39 -63 44 0 5 25 -7 56 -25 31 -19 69 -37 85 -40z m-726 40 c0 -14 -82 -16
-737 -18 -752 -2 -748 -2 -748 31 0 4 334 6 742 5 661 -3 743 -5 743 -18z
m377 -339 c4 -6 8 -26 8 -45 l0 -34 -77 7 c-42 3 -93 6 -113 6 -33 0 -39 4
-44 28 -4 15 -9 35 -13 46 -5 18 0 18 113 11 70 -4 122 -12 126 -19z m325 -21
c-2 -26 -7 -49 -10 -52 -4 -3 -67 -8 -141 -11 -149 -5 -140 -9 -149 60 l-6 37
142 4 c78 1 148 4 156 5 10 1 12 -8 8 -43z m-309 -85 c-4 -21 -27 -23 -135
-15 -69 5 -93 10 -93 21 0 10 23 13 115 11 96 -2 115 -4 113 -17z m302 -6 c0
-17 -50 -24 -171 -24 -97 0 -109 2 -109 18 0 15 13 17 140 17 98 0 140 -3 140
-11z m-282 -41 c2 -8 -5 -13 -18 -13 -13 0 -37 -9 -54 -19 -56 -34 -217 -62
-260 -45 -19 7 -21 47 -3 63 25 20 92 29 211 27 86 -1 121 -5 124 -13z m342
-22 c36 -13 46 -22 48 -43 4 -36 -21 -42 -155 -35 -97 5 -107 7 -130 31 -15
17 -34 26 -53 26 -23 0 -30 5 -30 20 0 18 8 20 108 23 124 3 150 1 212 -22z"/>
<path d="M2101 1853 c-11 -10 -22 -29 -23 -43 -3 -23 0 -24 40 -21 31 2 49 -3
63 -15 25 -23 33 -13 25 30 -11 58 -64 83 -105 49z m71 -20 c10 -9 18 -23 18
-32 0 -12 -3 -12 -12 -3 -7 7 -30 12 -52 12 -38 0 -39 0 -21 20 22 24 42 25
67 3z"/>
<path d="M1866 1838 c-9 -12 -16 -33 -16 -45 0 -23 1 -23 25 -7 16 11 34 14
55 9 24 -5 30 -3 30 10 0 54 -64 76 -94 33z m62 0 c20 -20 14 -28 -23 -28 -38
0 -46 13 -17 29 22 13 26 13 40 -1z"/>
<path d="M1905 1720 c-8 -14 3 -30 21 -30 8 0 14 9 14 20 0 21 -24 28 -35 10z"/>
<path d="M2130 1701 c0 -15 6 -21 21 -21 25 0 22 33 -4 38 -12 2 -17 -3 -17
-17z"/>
<path d="M1840 1670 c-11 -11 -20 -31 -20 -43 0 -13 9 -32 20 -42 27 -24 25
-42 -5 -49 -14 -4 -31 -17 -37 -31 -15 -34 12 -75 50 -75 16 0 32 -8 40 -20
13 -22 61 -27 78 -10 8 8 15 6 24 -5 18 -22 60 -19 87 7 18 17 26 19 35 10 18
-18 53 -15 71 6 47 52 -15 122 -108 122 -21 0 -35 6 -39 16 -5 13 -2 14 11 9
76 -34 127 49 61 98 -25 19 -28 19 -53 3 -20 -13 -30 -14 -46 -5 -11 6 -32 8
-45 5 -15 -4 -33 -1 -47 9 -29 20 -53 19 -77 -5z m64 -6 c23 -9 20 -23 -10
-51 -30 -28 -54 -24 -54 10 0 38 27 55 64 41z m200 -17 c22 -16 18 -55 -6 -71
-40 -24 -80 44 -42 71 10 7 21 13 24 13 3 0 14 -6 24 -13z m-97 -9 c14 -18 25
-68 15 -68 -5 0 -8 -10 -8 -22 1 -21 -4 -23 -52 -26 -31 -2 -60 2 -68 9 -22
18 -17 46 12 66 14 10 33 26 42 36 19 20 45 22 59 5z m-59 -138 c24 0 56 7 72
15 22 12 39 13 70 6 49 -11 90 -36 90 -55 0 -45 -29 -59 -66 -31 -25 19 -31
19 -37 -5 -8 -30 -54 -37 -81 -11 -21 20 -24 20 -36 6 -19 -23 -64 -15 -68 12
-3 18 -8 21 -37 16 -27 -4 -34 -2 -40 16 -8 25 0 40 29 50 13 6 28 4 41 -5 11
-8 39 -14 63 -14z"/>
<path d="M2418 1559 c-10 -5 -18 -17 -18 -26 0 -15 2 -15 18 0 10 10 24 17 30
17 7 0 12 5 12 10 0 13 -20 12 -42 -1z"/>
<path d="M1822 798 c-14 -19 4 -58 26 -58 27 0 45 25 37 50 -7 23 -46 28 -63
8z m46 -21 c2 -10 -3 -17 -12 -17 -18 0 -29 16 -21 31 9 14 29 6 33 -14z"/>
<path d="M2156 655 c-10 -28 -7 -85 8 -113 18 -35 54 -67 64 -58 4 4 0 13 -9
19 -33 25 -51 65 -48 111 3 48 -4 68 -15 41z"/>
<path d="M1819 634 c-16 -20 -1 -48 29 -52 27 -4 49 33 31 54 -15 19 -43 18
-60 -2z m46 -15 c0 -7 -8 -15 -17 -17 -18 -3 -25 18 -11 32 10 10 28 1 28 -15z"/>
</g>
</svg>
