<?xml version="1.0" standalone="no"?>
<!DOCTYPE svg PUBLIC "-//W3C//DTD SVG 20010904//EN"
 "http://www.w3.org/TR/2001/REC-SVG-20010904/DTD/svg10.dtd">
<svg version="1.0" xmlns="http://www.w3.org/2000/svg"
 width="900.000000pt" height="918.000000pt" viewBox="0 0 900.000000 918.000000"
 preserveAspectRatio="xMidYMid meet">
<metadata>
Created by potrace 1.10, written by Peter Selinger 2001-2011
</metadata>
<g transform="translate(0.000000,918.000000) scale(0.100000,-0.100000)"
fill="#000000" stroke="none">
<path d="M3695 8921 c-11 -4 -63 -11 -115 -15 -52 -4 -99 -11 -105 -16 -5 -4
-28 -11 -50 -15 -122 -20 -349 -119 -438 -189 -17 -14 -48 -38 -67 -53 -126
-99 -239 -250 -334 -446 -26 -54 -55 -100 -64 -103 -113 -35 -220 -202 -247
-385 -8 -57 -12 -62 -55 -79 -116 -45 -184 -175 -197 -377 -3 -54 -9 -103 -14
-109 -5 -5 -11 -138 -15 -295 -7 -320 -7 -319 -77 -319 -22 0 -54 -4 -71 -9
-17 -6 -71 -14 -121 -20 -120 -13 -218 -31 -229 -42 -6 -5 -24 -9 -41 -9 -17
0 -40 -7 -51 -15 -10 -8 -26 -15 -35 -15 -22 0 -131 -58 -146 -77 -7 -10 -33
-17 -65 -20 -106 -8 -186 -40 -311 -126 -85 -58 -214 -186 -230 -229 -4 -11
-15 -32 -25 -47 -11 -14 -29 -57 -42 -96 -12 -38 -26 -78 -31 -87 -4 -9 -11
-47 -15 -85 -3 -37 -12 -81 -19 -98 -7 -16 -18 -91 -24 -165 -21 -255 -38
-435 -41 -435 -2 0 -9 -83 -17 -185 -39 -524 -38 -463 -28 -1580 3 -356 9
-578 15 -584 6 -6 10 -35 11 -65 0 -92 34 -311 54 -356 55 -126 89 -183 123
-210 10 -8 13 -116 12 -519 0 -281 -2 -512 -5 -514 -11 -11 -111 -42 -136 -42
-15 0 -32 -7 -39 -15 -7 -8 -25 -15 -39 -15 -15 0 -36 -7 -47 -15 -10 -8 -31
-15 -46 -15 -15 0 -46 -7 -68 -16 l-40 -16 0 -329 0 -329 183 -2 c256 -2 247
-1 262 -21 11 -15 14 -15 18 -3 7 17 103 21 113 4 4 -5 13 -3 23 6 14 13 28
13 86 5 38 -5 76 -7 85 -3 23 9 362 11 389 2 13 -5 28 -4 35 1 7 5 1083 10
2709 10 l2698 2 60 44 c33 25 87 54 120 66 32 12 59 25 59 29 0 4 -17 10 -37
14 -21 3 -1531 6 -3356 6 -3266 0 -3318 0 -3325 19 -4 11 -5 95 -2 187 l5 167
100 33 c55 18 147 47 205 64 58 17 119 36 135 42 39 13 80 24 135 38 25 7 58
18 73 26 16 8 39 14 51 14 12 0 31 6 42 14 11 8 41 17 67 21 26 4 50 11 53 16
3 5 15 9 27 9 12 0 35 7 51 15 15 8 39 15 52 15 12 0 25 4 28 9 3 4 24 11 47
15 23 4 54 13 70 21 15 8 39 15 52 15 14 0 30 7 37 15 7 8 24 15 38 15 28 0
151 38 167 52 5 4 20 8 33 8 13 0 63 14 112 30 90 30 144 38 155 21 9 -16 245
-131 365 -178 63 -24 129 -51 145 -58 95 -42 130 -55 148 -55 11 0 28 -6 36
-14 9 -7 50 -24 91 -36 41 -12 80 -26 85 -31 15 -11 196 -69 217 -69 10 0 26
-4 36 -10 19 -11 82 -25 197 -45 44 -8 89 -19 100 -24 11 -5 36 -12 55 -15 20
-3 71 -24 115 -46 93 -47 125 -49 193 -15 83 42 216 207 263 328 17 43 48 44
134 2 41 -21 78 -42 81 -46 3 -5 14 -9 26 -9 11 0 32 -6 46 -14 59 -32 322
-60 345 -37 6 6 20 11 32 11 28 0 93 36 132 72 30 29 32 30 54 14 13 -9 31
-16 41 -16 28 0 38 -33 38 -134 l0 -95 48 -48 c59 -60 81 -72 137 -80 25 -3
48 -10 51 -14 7 -13 351 -11 359 1 3 6 21 10 39 10 19 0 39 7 46 15 7 8 19 15
28 15 47 0 162 151 162 213 0 13 5 28 11 34 6 6 15 81 20 169 14 262 30 418
43 438 12 18 24 19 187 17 171 -2 174 -3 201 -28 28 -27 61 -48 91 -59 30 -11
19 -42 -25 -71 -24 -16 -47 -33 -53 -39 -5 -6 -23 -19 -40 -29 -16 -10 -34
-24 -38 -32 -4 -7 -14 -13 -20 -13 -28 0 -197 -196 -197 -228 0 -5 -17 -33
-39 -63 -41 -58 -81 -138 -81 -164 0 -39 130 -145 178 -145 10 0 22 -4 28 -10
12 -12 131 -50 158 -50 11 0 34 -7 50 -15 16 -8 40 -15 55 -15 14 0 61 -3 104
-6 49 -4 94 -2 121 6 40 11 46 17 81 88 20 43 44 91 53 107 9 17 24 47 35 68
10 20 23 37 27 37 4 0 11 8 14 18 9 25 33 64 43 71 5 3 32 38 61 76 145 198
185 245 231 270 20 12 55 33 78 48 24 15 47 27 52 27 5 0 11 7 15 15 3 8 14
15 24 15 10 0 32 13 48 30 16 16 34 30 39 30 13 0 40 20 117 87 111 97 158
177 158 268 0 63 13 77 118 124 38 18 145 93 172 121 14 15 33 30 43 33 9 4
20 15 24 24 3 10 18 29 32 43 54 52 121 182 121 236 0 11 6 26 12 32 20 20 16
277 -5 324 -27 60 -89 118 -125 118 -27 0 -38 -9 -77 -62 -25 -34 -45 -65 -45
-69 0 -4 -20 -38 -45 -76 -25 -37 -45 -72 -45 -76 0 -5 -20 -36 -45 -68 -25
-33 -45 -62 -45 -66 0 -15 -55 -63 -72 -63 -29 0 -47 46 -78 200 -5 25 -20 80
-34 123 -14 43 -26 86 -26 96 0 10 -6 31 -14 47 -8 16 -16 52 -18 79 l-3 50
600 0 600 0 5 -1165 c3 -769 8 -1164 15 -1163 6 1 11 10 13 20 2 10 9 34 17
53 7 19 25 65 39 102 l26 66 0 1096 c0 1080 0 1095 -20 1106 -23 12 -1279 9
-1320 -4 -24 -7 -28 -3 -65 69 -22 42 -46 87 -52 99 -19 35 -129 153 -208 225
-109 99 -112 101 -121 101 -4 0 -15 7 -24 15 -15 13 -16 32 -12 137 6 143 0
160 -89 253 -52 55 -57 65 -64 119 -4 33 -11 66 -15 75 -5 9 -12 51 -15 93 -4
43 -11 80 -16 84 -5 3 -9 15 -9 27 0 24 -25 93 -53 144 -10 19 -39 45 -70 63
-42 24 -63 30 -114 30 -66 0 -75 5 -115 63 -46 66 -194 92 -270 47 -21 -12
-38 -28 -38 -35 0 -7 -7 -19 -16 -26 -14 -12 -19 -10 -38 14 -12 15 -35 52
-51 83 -47 87 -51 94 -79 123 -14 15 -26 34 -26 43 0 8 -7 21 -15 28 -8 7 -15
20 -15 30 0 10 -7 23 -15 30 -8 7 -15 17 -15 22 0 18 -64 94 -113 133 -173
140 -320 200 -544 224 -72 8 -72 8 -137 72 -36 35 -95 89 -132 119 -36 30
-100 87 -142 126 -88 81 -146 122 -246 174 -69 35 -71 37 -68 71 1 19 8 39 15
44 19 16 47 71 47 93 0 11 7 25 15 32 8 7 15 24 15 38 0 17 19 46 63 91 124
132 138 154 248 387 10 22 19 45 19 51 0 14 55 117 91 171 16 24 29 46 29 49
0 3 14 22 30 43 17 21 30 40 30 43 0 3 24 41 53 84 30 43 64 101 76 128 13 28
29 63 37 78 8 16 14 37 14 47 0 12 20 32 53 54 66 44 97 73 97 91 0 8 6 18 13
22 21 14 62 75 101 153 35 69 39 83 43 182 l6 106 -37 73 c-20 40 -49 88 -65
108 -44 57 -86 124 -98 156 -7 17 -14 80 -16 140 -4 120 -19 162 -82 237 -58
69 -191 152 -279 174 -15 3 -29 10 -32 15 -3 5 -18 9 -33 9 -15 0 -31 4 -37
10 -10 10 -66 24 -179 44 -38 7 -77 15 -85 18 -22 9 -129 20 -175 19 -22 -1
-53 5 -70 13 -51 26 -679 58 -730 37z m190 -101 c4 -6 56 -10 123 -10 165 -1
378 -24 512 -54 112 -26 164 -41 187 -54 12 -6 33 -12 47 -12 14 0 27 -4 30
-9 3 -5 26 -14 51 -20 25 -6 70 -23 101 -36 31 -14 63 -25 70 -25 20 0 164
-69 183 -88 50 -50 56 -71 56 -205 l0 -128 50 -45 c161 -146 191 -206 183
-370 -4 -87 -14 -117 -56 -188 -34 -56 -65 -41 -68 35 -2 28 -8 57 -13 62 -6
6 -11 22 -11 34 0 13 -6 36 -14 51 -8 15 -17 46 -21 67 -17 93 -86 202 -157
251 -24 16 -61 46 -83 66 -47 43 -121 98 -133 98 -4 0 -23 11 -42 24 -71 47
-380 156 -446 156 -14 0 -34 4 -44 10 -46 25 -523 50 -590 31 -19 -5 -75 -14
-125 -19 -107 -12 -185 -28 -199 -42 -6 -6 -19 -10 -29 -10 -10 0 -31 -6 -45
-14 -15 -8 -47 -22 -72 -32 -25 -11 -74 -39 -110 -63 -161 -110 -243 -248
-259 -439 -5 -60 -10 -75 -27 -85 -12 -7 -33 -20 -48 -31 -15 -10 -29 -16 -33
-12 -3 3 0 31 7 61 10 42 11 64 2 93 -6 20 -14 48 -17 62 -19 77 -79 160 -139
195 -16 9 -15 13 13 40 17 17 31 35 31 42 0 6 7 19 16 28 9 8 37 44 62 78 58
79 81 105 167 192 75 75 130 125 138 125 2 0 35 20 73 45 37 25 72 45 78 45 5
0 17 6 25 13 22 19 102 47 132 47 14 0 30 5 35 10 6 6 44 14 85 17 41 3 81 9
89 14 21 12 228 11 235 -1z m459 -467 c4 -5 40 -13 79 -20 89 -14 153 -31 190
-49 16 -8 36 -14 45 -14 9 -1 35 -12 57 -25 22 -14 49 -29 60 -35 11 -6 34
-19 50 -30 17 -11 37 -23 45 -27 8 -3 33 -20 55 -37 22 -17 45 -34 50 -38 6
-4 42 -35 80 -69 108 -95 165 -190 165 -275 0 -16 5 -35 11 -41 14 -14 6 -183
-14 -288 -15 -83 -29 -130 -53 -178 -8 -16 -14 -35 -14 -44 0 -8 -13 -34 -30
-58 -16 -24 -30 -47 -30 -50 0 -4 -13 -24 -30 -45 -16 -21 -30 -41 -30 -44 0
-3 -21 -36 -46 -73 -46 -67 -164 -288 -164 -308 0 -19 -66 -142 -102 -191 -59
-80 -296 -304 -322 -304 -5 0 -17 -6 -25 -14 -47 -40 -272 -136 -322 -136 -9
0 -31 -8 -50 -17 -49 -26 -439 -26 -514 -1 -27 9 -77 25 -110 34 -33 10 -67
24 -76 31 -8 7 -23 13 -31 13 -9 0 -21 7 -28 15 -7 8 -17 15 -22 15 -19 0
-116 80 -184 153 -81 84 -163 205 -216 317 -41 87 -55 130 -107 326 -6 23 -14
83 -18 133 -3 50 -10 94 -15 97 -12 8 -10 35 5 53 8 9 19 36 26 60 16 54 4 72
-33 47 -27 -17 -131 -23 -141 -7 -3 5 -18 12 -35 16 -37 8 -110 61 -110 79 0
8 -5 16 -12 18 -34 12 69 58 129 58 16 0 38 7 49 15 10 8 28 15 40 15 23 0 51
28 80 77 16 29 17 37 5 70 -8 21 -15 72 -17 113 -1 41 -7 87 -13 103 -9 23
-16 27 -49 27 -35 0 -45 -6 -86 -52 -78 -88 -88 -96 -114 -103 -33 -8 -44 11
-26 46 8 16 14 34 14 41 0 31 73 149 118 192 23 21 44 30 79 33 74 7 96 -6
132 -80 29 -60 31 -71 31 -175 0 -63 4 -113 10 -117 6 -3 10 -17 10 -31 0 -37
25 -30 105 31 40 31 97 68 126 83 l54 27 6 100 c10 149 30 221 71 253 9 7 23
18 30 25 24 22 77 57 87 57 5 0 11 7 15 15 3 8 12 15 20 15 8 0 28 7 45 15 17
8 45 22 62 30 17 8 38 15 47 15 9 0 26 7 36 15 11 8 33 15 49 15 15 0 38 5 50
12 31 17 145 38 262 49 55 6 111 14 125 18 31 11 374 14 384 4z m-1798 -774
c9 -16 -53 -76 -106 -101 -25 -12 -51 -28 -58 -35 -7 -7 -18 -13 -23 -13 -11
0 -101 -61 -122 -82 -25 -25 -50 -83 -65 -153 -29 -130 -15 -907 17 -966 5 -9
12 -42 16 -75 21 -165 178 -482 276 -556 17 -13 41 -33 54 -46 23 -22 23 -23
6 -67 -28 -74 -36 -77 -84 -23 -23 25 -60 70 -82 98 -22 29 -48 59 -57 68 -10
9 -18 22 -18 28 0 6 -12 29 -28 50 -15 21 -39 64 -54 94 -30 64 -98 262 -98
288 0 10 -4 22 -10 28 -5 5 -12 50 -16 99 -3 50 -10 99 -15 110 -19 40 8 752
31 803 5 13 10 45 10 73 0 53 28 164 54 215 20 38 96 110 134 126 15 7 34 17
42 24 26 21 184 32 196 13z m-216 -359 c0 -32 162 -120 221 -120 19 0 23 -18
40 -179 11 -98 10 -108 -11 -173 -12 -37 -26 -71 -31 -74 -5 -3 -9 -15 -9 -27
0 -12 -10 -34 -23 -49 -21 -25 -27 -26 -144 -31 -89 -4 -123 -2 -123 6 -5 139
2 482 10 497 5 10 10 40 10 66 0 30 7 59 21 80 21 35 39 37 39 4z m343 -649
c9 -20 17 -43 17 -49 0 -10 34 -84 61 -132 5 -8 20 -36 33 -62 64 -123 232
-310 346 -386 62 -42 139 -81 158 -82 7 0 20 -4 30 -9 36 -18 89 -34 127 -38
22 -3 44 -9 50 -14 5 -5 30 -9 55 -9 25 0 51 -5 57 -11 18 -18 -41 -120 -111
-194 -84 -87 -246 -195 -294 -195 -10 0 -23 -5 -30 -12 -15 -15 -142 -12 -192
5 -19 6 -51 24 -71 39 -20 15 -41 28 -45 28 -11 0 -114 102 -114 113 0 5 -13
26 -28 46 -15 20 -38 57 -50 82 -12 26 -29 53 -38 60 -23 19 -107 147 -131
199 -38 82 -43 100 -43 152 0 61 5 78 75 263 49 127 103 245 113 245 4 0 15
-18 25 -39z m-302 -151 c-2 -8 -10 -60 -17 -115 -22 -172 -26 -195 -38 -195
-23 0 -38 46 -46 139 -5 53 -12 109 -15 124 -11 44 17 69 74 65 35 -2 45 -7
42 -18z m-477 -66 c27 -11 20 -72 -16 -128 -18 -28 -35 -53 -38 -56 -8 -7 -41
-59 -61 -95 -56 -103 -71 -128 -103 -174 -20 -28 -36 -54 -36 -59 0 -17 -72
-112 -80 -107 -6 4 -10 28 -10 54 0 26 -3 51 -7 55 -5 4 -13 44 -19 89 -12 88
-23 123 -60 202 -30 61 -30 66 -1 94 24 22 161 77 228 90 19 4 41 11 48 15 11
7 86 22 123 25 9 0 23 -2 32 -5z m-646 -278 c51 -32 122 -115 122 -142 0 -12
7 -35 15 -50 8 -16 15 -45 15 -64 0 -20 4 -40 9 -45 6 -6 13 -62 16 -125 4
-63 11 -127 16 -141 11 -29 17 -218 24 -772 3 -242 9 -405 15 -417 5 -10 10
-49 11 -87 0 -37 5 -102 10 -143 14 -103 39 -341 45 -420 3 -36 9 -74 14 -85
5 -11 13 -60 19 -110 14 -120 30 -212 47 -258 8 -20 14 -50 14 -65 0 -15 6
-34 12 -40 24 -24 56 -195 57 -300 l1 -72 -52 -34 c-97 -63 -348 -337 -348
-380 0 -20 8 -19 45 5 17 10 37 22 45 26 8 3 29 19 45 35 49 46 102 88 110 88
5 0 15 7 24 15 70 66 190 132 258 141 46 6 52 4 86 -26 43 -38 45 -50 13 -84
-31 -34 -89 -144 -81 -156 5 -9 51 16 107 59 14 12 31 21 36 21 5 0 30 12 56
26 l46 26 33 -26 c17 -15 37 -30 43 -35 9 -8 38 -21 149 -72 69 -31 173 -69
189 -69 11 0 27 -6 35 -14 9 -7 44 -24 79 -36 34 -13 65 -27 68 -31 3 -5 17
-9 32 -9 15 0 36 -6 47 -14 11 -7 40 -17 65 -21 24 -4 51 -11 60 -15 23 -12
120 -40 138 -40 9 0 29 -4 46 -10 104 -32 173 -50 196 -50 15 0 33 -7 40 -15
7 -8 24 -15 39 -15 14 0 46 -6 71 -14 81 -26 289 -65 385 -73 39 -3 74 -9 79
-14 6 -5 20 -9 33 -9 13 0 23 -6 23 -12 0 -7 -20 -53 -45 -103 -25 -49 -45
-98 -45 -108 0 -9 -4 -25 -10 -35 -19 -36 -166 -508 -174 -562 -3 -19 -9 -57
-15 -85 -5 -27 -10 -78 -10 -112 -1 -34 -6 -65 -11 -68 -5 -3 -10 -15 -10 -26
0 -11 -4 -29 -10 -39 -8 -16 -14 -17 -42 -8 -18 6 -40 14 -49 19 -9 4 -37 10
-63 14 -25 4 -48 11 -51 15 -3 5 -36 18 -73 31 -37 12 -76 28 -87 35 -11 8
-27 14 -36 14 -10 0 -32 8 -51 17 -18 9 -41 20 -51 25 -10 5 -49 18 -85 30
-37 11 -71 24 -77 28 -5 4 -28 11 -50 15 -21 3 -52 13 -67 21 -15 8 -38 14
-51 14 -14 0 -30 6 -36 14 -6 8 -24 16 -39 19 -30 6 -101 30 -147 52 -16 7
-73 30 -125 50 -52 20 -114 46 -137 56 -23 10 -48 19 -56 19 -7 0 -22 7 -33
15 -10 8 -30 15 -44 15 -14 0 -34 6 -45 14 -11 7 -51 24 -88 36 -37 13 -70 27
-73 31 -3 5 -15 9 -27 9 -12 0 -31 7 -41 15 -11 8 -27 15 -36 15 -9 0 -37 11
-61 24 -92 51 -246 126 -257 126 -6 0 -15 6 -19 13 -11 18 -319 167 -344 167
-8 0 -24 7 -35 15 -10 8 -26 15 -34 15 -39 0 -275 109 -331 152 -20 16 -40 28
-44 28 -28 0 -145 167 -145 207 0 7 -6 27 -14 45 -24 56 -37 131 -47 264 -30
422 -36 480 -50 504 -12 21 -14 129 -14 690 0 610 2 668 18 704 11 24 17 65
18 110 0 39 5 107 10 151 5 44 16 141 24 215 41 382 39 365 54 450 6 30 17 91
25 135 8 44 21 103 30 130 31 102 52 165 59 171 4 4 7 13 7 20 0 7 17 48 37
91 58 124 198 250 308 277 11 3 50 3 87 1 49 -3 77 -10 106 -29z m772 27 c7
-124 14 -182 26 -200 8 -12 14 -33 14 -46 0 -13 7 -32 15 -43 8 -10 15 -28 15
-40 0 -11 13 -38 30 -60 16 -21 30 -44 30 -49 0 -6 8 -22 18 -35 32 -45 227
-241 258 -260 36 -23 46 -42 68 -130 10 -36 22 -78 28 -95 5 -16 14 -48 18
-70 17 -80 32 -141 46 -191 8 -28 14 -71 14 -95 0 -25 5 -50 12 -57 6 -6 13
-28 14 -49 1 -21 5 -70 7 -109 3 -39 10 -80 16 -90 23 -42 48 -712 50 -1352 1
-426 0 -453 -16 -450 -10 2 -20 14 -23 28 -3 14 -17 49 -32 78 -16 30 -28 59
-28 66 0 13 -32 79 -48 99 -5 7 -13 23 -17 37 -12 42 -126 273 -151 307 -13
17 -24 36 -24 42 0 5 -12 29 -27 53 -44 67 -51 80 -74 123 -12 22 -24 42 -28
45 -11 9 -51 69 -51 77 -1 4 -14 19 -30 33 -17 13 -30 29 -30 35 0 6 -14 24
-31 41 -34 31 -105 124 -128 164 -16 29 -33 95 -33 130 -1 41 18 130 31 143 6
6 11 20 11 31 0 12 14 41 30 66 16 25 30 49 30 54 0 4 14 25 30 46 17 21 30
42 30 47 0 5 14 23 30 41 17 18 30 36 30 39 0 5 28 41 73 93 7 9 23 32 35 52
26 42 37 27 -88 131 -42 34 -84 67 -95 74 -11 7 -51 31 -90 55 -38 24 -144 82
-235 129 l-165 86 -7 89 c-3 49 -7 125 -8 169 -3 79 -2 82 39 145 23 35 45 67
49 70 4 3 27 37 52 75 62 97 67 105 91 150 12 22 24 42 28 45 9 8 51 68 51 75
0 3 7 13 16 23 9 9 36 45 60 80 40 56 63 76 64 55z m2422 -143 c-6 -59 -141
-291 -226 -391 -17 -19 -46 -54 -65 -77 -19 -23 -39 -42 -45 -42 -5 0 -20 -9
-32 -21 -20 -19 -23 -19 -38 -4 -17 17 -21 53 -8 70 4 6 20 20 35 32 32 25
115 146 124 182 7 29 60 130 79 152 8 8 14 20 14 25 0 15 52 62 91 84 48 25
75 22 71 -10z m-323 -154 c9 -11 7 -20 -12 -41 l-23 -27 -18 27 c-10 14 -15
33 -12 41 7 18 50 18 65 0z m-194 -22 c20 -5 35 -31 50 -84 4 -14 14 -33 22
-42 19 -22 8 -42 -56 -98 -94 -84 -142 -120 -162 -120 -25 0 -25 -1 11 180 6
30 13 67 16 83 2 15 11 41 19 57 12 24 22 30 48 30 17 0 41 -3 52 -6z m561
-34 c17 0 187 -119 232 -163 77 -74 127 -166 134 -246 l3 -33 -110 -35 c-60
-19 -136 -48 -168 -64 -31 -16 -63 -29 -70 -29 -7 0 -32 -14 -56 -32 -53 -39
-73 -31 -82 33 -3 24 -17 69 -32 100 -15 31 -27 61 -27 66 0 6 -7 16 -15 23
-8 7 -15 19 -15 27 0 8 -9 26 -20 40 -35 44 -31 55 82 214 18 25 49 64 68 87
31 36 37 39 51 26 8 -8 20 -14 25 -14z m-868 -342 c3 -40 -28 -88 -58 -88 -10
0 -22 -4 -25 -10 -7 -11 -148 -14 -158 -4 -13 13 14 43 60 65 27 12 67 37 91
55 55 41 85 35 90 -18z m-877 -17 c57 -28 124 -57 149 -67 117 -43 246 -84
270 -84 14 0 32 -6 38 -12 18 -18 294 -17 347 0 39 13 94 37 125 53 8 4 35 18
60 31 25 12 61 33 80 46 19 13 44 28 55 33 11 5 34 18 50 28 48 31 59 27 72
-30 12 -49 12 -53 -11 -74 -12 -11 -52 -36 -87 -54 -35 -18 -91 -48 -124 -66
-33 -19 -79 -43 -103 -55 -23 -12 -67 -44 -97 -71 -52 -48 -71 -79 -112 -184
-17 -44 -23 -50 -59 -58 -21 -5 -76 -6 -122 -4 -69 4 -88 9 -108 28 -13 12
-24 27 -24 32 0 5 -18 47 -39 93 -35 73 -47 89 -101 129 -34 25 -67 45 -73 45
-6 0 -18 6 -26 14 -9 8 -54 34 -101 59 -153 80 -185 98 -208 121 l-23 23 23
36 c13 20 28 36 34 37 6 0 58 -22 115 -49z m1419 -48 c0 -17 9 -36 79 -170 45
-86 41 -102 -32 -110 -26 -3 -52 -12 -58 -19 -6 -8 -21 -14 -33 -14 -23 0 -86
-41 -149 -97 -79 -69 -134 -256 -136 -459 -1 -50 -7 -96 -17 -119 -9 -22 -15
-61 -14 -89 2 -28 2 -60 1 -72 -1 -25 -69 -106 -82 -98 -5 3 -9 31 -9 63 0 31
-5 62 -10 67 -12 12 -7 686 5 766 8 52 18 64 90 103 28 15 64 40 80 55 17 15
48 39 70 52 71 45 146 109 155 134 11 29 60 35 60 7z m1145 -122 c39 -6 79
-16 90 -21 11 -5 31 -12 45 -15 56 -15 209 -97 258 -140 30 -25 57 -45 62 -45
9 0 54 -70 55 -85 0 -5 -35 -8 -86 -6 -110 3 -175 -17 -233 -75 -62 -61 -80
-129 -71 -259 4 -55 10 -104 15 -110 18 -23 24 -328 9 -490 -18 -191 -21 -307
-10 -318 22 -22 9 -51 -55 -120 -36 -40 -71 -83 -77 -97 -7 -14 -31 -53 -54
-88 -24 -34 -43 -65 -43 -68 0 -11 -63 -89 -124 -152 -70 -73 -134 -112 -147
-90 -23 35 -5 67 97 180 13 14 24 29 24 32 0 3 18 29 40 59 22 30 53 78 69
108 75 139 161 320 181 379 12 35 26 73 32 83 12 24 3 48 -16 41 -13 -5 -69
-75 -201 -249 -34 -45 -175 -239 -177 -245 -7 -15 -158 -97 -228 -122 -30 -12
-61 -26 -69 -32 -20 -16 -344 -21 -401 -6 -25 6 -58 14 -75 17 -16 3 -39 12
-50 19 -11 8 -27 14 -36 14 -50 0 -289 165 -289 200 0 6 23 10 54 10 30 0 57
4 60 9 3 4 19 11 36 15 37 7 125 68 160 109 33 41 41 102 18 149 -29 60 -105
89 -246 94 -59 2 -95 8 -125 23 -24 12 -53 21 -65 21 -12 0 -22 5 -22 10 0 19
47 84 90 125 68 65 159 221 230 395 12 30 33 78 45 105 13 28 30 66 39 85 81
182 219 333 366 401 19 9 63 30 98 48 34 17 73 31 86 31 13 0 29 7 36 15 7 8
23 15 37 15 13 0 36 6 51 14 15 8 59 17 97 21 39 4 77 11 85 16 20 12 245 5
335 -10z m-2408 -191 c5 0 22 -14 98 -78 28 -23 76 -89 100 -136 11 -21 32
-52 47 -69 23 -24 28 -38 28 -82 0 -30 5 -57 10 -60 6 -3 10 -48 10 -100 0
-52 -4 -97 -10 -100 -13 -8 -14 -494 -1 -527 5 -13 12 -160 16 -327 6 -224 11
-311 21 -330 8 -15 14 -61 15 -111 0 -47 5 -110 9 -140 5 -30 14 -89 20 -129
6 -41 15 -80 19 -85 5 -6 11 -31 15 -56 8 -54 23 -105 42 -142 8 -14 14 -33
14 -41 0 -7 14 -33 30 -55 17 -23 30 -47 30 -53 0 -15 100 -118 140 -144 20
-12 50 -26 68 -29 17 -4 34 -12 37 -17 4 -5 37 -9 74 -9 62 0 70 -2 85 -25 17
-26 21 -82 7 -104 -6 -9 -18 -12 -37 -7 -27 7 -125 25 -239 45 -27 5 -63 14
-78 20 -16 6 -47 11 -71 11 -23 0 -46 4 -51 9 -6 5 -41 14 -80 20 -71 10 -166
32 -220 49 -92 30 -135 42 -151 42 -11 0 -34 9 -51 20 l-33 20 0 92 c0 73 4
95 18 111 16 18 17 59 17 566 0 456 -3 550 -15 571 -9 16 -18 88 -27 205 -7
99 -19 243 -27 320 -8 77 -19 192 -25 255 -6 63 -15 138 -21 165 -10 54 -14
81 -33 250 -7 61 -15 115 -19 120 -9 14 -22 191 -14 203 4 6 53 -21 117 -64
61 -41 114 -74 116 -74z m-1214 -151 c81 -40 317 -162 390 -201 20 -11 37 -24
37 -29 0 -14 -23 -61 -49 -104 -42 -65 -50 -79 -57 -95 -4 -8 -27 -41 -51 -72
-24 -31 -43 -58 -43 -61 0 -2 -20 -35 -45 -73 -25 -37 -45 -75 -45 -84 0 -8
-7 -24 -15 -34 -20 -27 -21 -212 -1 -253 7 -15 22 -46 32 -68 11 -22 52 -89
91 -149 40 -59 73 -112 73 -116 0 -5 3 -10 8 -12 9 -4 82 -106 82 -115 0 -4 8
-16 19 -27 10 -12 44 -59 76 -106 226 -332 265 -390 265 -398 0 -4 11 -23 25
-42 14 -19 35 -55 46 -80 12 -25 44 -92 72 -150 27 -58 53 -114 57 -125 4 -11
15 -39 25 -62 24 -58 15 -77 -33 -68 -20 3 -47 13 -59 21 -12 8 -29 14 -38 14
-9 0 -42 14 -73 31 -31 18 -70 39 -87 48 -16 9 -37 22 -46 29 -30 24 -133 72
-154 72 -11 0 -25 4 -30 9 -6 5 -28 11 -49 13 -65 5 -76 33 -86 212 0 11 -101
-2 -117 -15 -7 -6 -20 -9 -29 -7 -14 3 -17 21 -20 133 -4 171 -8 213 -22 227
-7 7 -12 28 -12 47 0 20 -5 54 -11 76 -5 22 -16 78 -24 125 -8 47 -20 110 -26
140 -12 58 -15 78 -24 150 -4 25 -10 54 -15 65 -5 11 -13 54 -19 95 -27 196
-40 269 -49 286 -5 11 -13 61 -17 113 -4 52 -11 101 -16 110 -13 25 -45 530
-35 557 7 19 8 19 99 -27z m2477 25 c0 -3 -11 -20 -25 -39 -26 -33 -135 -242
-135 -258 0 -5 -11 -32 -24 -60 -13 -29 -31 -70 -39 -92 -8 -22 -18 -47 -21
-55 -3 -8 -10 -22 -15 -30 -5 -8 -12 -23 -15 -33 -22 -70 -21 84 1 208 14 78
62 205 97 257 40 61 102 106 144 107 17 1 32 -2 32 -5z m-596 -106 c3 -40 10
-161 16 -268 7 -122 16 -210 26 -236 8 -23 15 -75 16 -115 0 -41 1 -103 2
-139 1 -59 -3 -71 -34 -120 -32 -50 -35 -60 -34 -130 0 -65 5 -83 33 -135 18
-33 40 -67 47 -76 8 -8 14 -20 14 -26 0 -6 7 -16 15 -23 11 -9 15 -35 16 -94
1 -79 10 -184 29 -336 5 -41 16 -131 24 -200 9 -69 19 -154 24 -190 5 -36 7
-68 5 -72 -14 -27 -93 34 -125 96 -11 22 -27 46 -34 54 -8 7 -14 23 -14 36 0
12 -5 27 -10 32 -9 9 -28 71 -52 169 -5 22 -9 53 -9 69 0 16 -4 35 -9 41 -10
12 -15 119 -30 670 -6 230 -15 404 -20 409 -6 6 -10 114 -10 266 l0 257 40 32
c33 26 40 38 40 66 0 24 5 35 14 35 11 0 16 -19 20 -72z m2223 6 c79 -35 105
-50 130 -76 15 -16 32 -28 39 -28 7 0 24 -15 38 -32 70 -90 130 -169 156 -208
8 -12 29 -41 45 -64 28 -39 49 -77 83 -156 8 -19 19 -43 23 -52 5 -9 12 -36
15 -60 4 -24 11 -48 16 -55 14 -17 13 -202 -1 -216 -6 -6 -11 -28 -11 -48 0
-38 -21 -119 -46 -177 -8 -18 -14 -41 -14 -50 0 -10 -4 -22 -9 -27 -5 -6 -14
-28 -21 -50 -25 -78 -64 -151 -109 -197 l-45 -48 -80 0 c-69 0 -88 4 -145 32
-75 36 -176 130 -207 193 -11 22 -31 58 -45 80 -13 22 -35 71 -48 108 -22 63
-23 78 -17 193 4 69 14 141 22 159 10 25 14 80 14 206 0 169 -1 174 -32 258
-44 119 -45 193 -3 252 49 69 169 99 252 63z m-2433 -189 c14 -20 16 -59 16
-249 0 -139 -4 -227 -10 -231 -5 -3 -10 -26 -10 -50 0 -24 5 -47 10 -50 6 -4
10 -84 11 -203 2 -231 13 -456 29 -562 6 -41 12 -96 14 -121 1 -25 6 -52 11
-59 8 -13 20 -74 44 -217 19 -113 86 -257 142 -307 62 -56 112 -76 195 -76 40
0 76 5 79 10 3 6 21 10 39 10 19 0 39 7 46 15 7 8 18 15 24 15 31 0 197 97
231 135 6 6 24 20 40 30 17 10 44 31 60 47 94 89 163 148 174 148 6 0 14 7 17
15 4 8 12 15 20 15 11 0 14 -17 14 -72 l-1 -73 -44 -32 c-24 -18 -47 -33 -51
-33 -3 0 -23 -13 -44 -30 -21 -17 -41 -30 -45 -30 -4 0 -37 -26 -73 -58 -95
-83 -210 -171 -246 -187 -17 -8 -38 -19 -46 -24 -94 -59 -254 -80 -347 -45
-43 15 -153 106 -153 126 0 4 -13 26 -28 50 -15 24 -36 70 -46 103 -10 33 -24
74 -31 90 -8 17 -17 53 -20 80 -4 28 -10 59 -15 70 -8 19 -20 93 -39 260 -5
39 -12 79 -15 90 -11 32 -28 499 -27 740 1 275 10 656 16 673 7 21 42 13 59
-13z m3026 -75 c39 -37 120 -192 120 -228 0 -10 4 -22 10 -28 5 -5 12 -36 16
-69 3 -33 13 -70 20 -82 38 -61 4 -116 -67 -111 -42 3 -44 5 -58 48 -8 25 -20
59 -28 77 -7 17 -13 36 -13 42 0 16 -32 82 -62 128 -16 23 -28 44 -28 47 0 3
-20 33 -45 67 -25 34 -45 67 -45 73 0 17 61 73 85 78 33 7 54 -3 95 -42z m346
-118 c15 -10 42 -88 49 -147 4 -27 12 -56 17 -63 6 -7 13 -66 16 -132 l5 -119
-28 -7 c-61 -15 -144 73 -160 173 -4 21 -11 49 -16 63 -5 14 -13 52 -18 85 -6
33 -13 73 -17 88 -11 45 17 67 85 67 31 0 61 -4 67 -8z m-101 -516 c44 -7 81
-19 95 -31 28 -21 97 -38 134 -31 50 10 64 -16 66 -119 1 -44 1 -86 1 -92 -2
-23 -47 -14 -89 17 -23 17 -48 30 -56 30 -8 0 -18 5 -21 11 -4 5 -17 15 -28
20 -52 24 -237 147 -237 158 0 15 74 50 95 45 11 -3 29 -6 40 -8z m-159 -171
c18 -14 35 -25 38 -25 3 0 25 -13 49 -30 25 -16 50 -30 56 -30 6 0 11 -4 11
-9 0 -5 10 -13 23 -17 12 -4 40 -18 62 -32 22 -14 67 -40 100 -58 107 -56 129
-69 220 -129 50 -33 135 -103 191 -160 89 -87 107 -111 143 -188 23 -48 41
-92 41 -97 0 -5 14 -51 30 -102 17 -51 30 -109 30 -130 0 -20 4 -39 9 -42 5
-4 12 -41 16 -84 4 -42 11 -81 15 -87 4 -5 10 -45 12 -88 3 -52 10 -83 22 -95
9 -10 16 -27 16 -38 0 -11 7 -29 15 -40 8 -10 15 -27 15 -37 0 -11 6 -33 14
-50 36 -83 45 -255 21 -402 -17 -101 -100 -205 -210 -260 -22 -11 -59 -32 -82
-48 -24 -15 -46 -27 -50 -27 -5 0 -31 -20 -60 -45 -28 -25 -56 -45 -62 -45 -6
0 -17 -12 -25 -28 -8 -15 -24 -36 -37 -47 -27 -24 -212 -274 -254 -343 -21
-35 -53 -70 -166 -184 -93 -93 -123 -118 -153 -123 -20 -4 -39 -11 -42 -16 -7
-12 -181 -12 -188 0 -3 4 -23 11 -43 15 -21 4 -65 24 -98 44 -52 32 -60 42
-63 71 -2 18 3 40 10 49 8 10 23 34 33 56 20 39 325 356 343 356 6 0 17 6 24
13 32 31 230 137 257 137 10 0 26 9 36 20 11 12 28 19 43 18 14 -2 26 2 28 7
3 6 -48 10 -139 11 -123 0 -147 3 -179 20 -73 41 -160 117 -193 169 -49 77
-55 97 -55 192 0 50 4 94 9 97 5 3 12 34 16 68 7 62 67 254 86 273 5 5 9 18 9
28 0 22 30 79 48 90 6 4 12 13 12 19 0 21 65 113 117 167 50 50 63 71 46 71
-20 -1 -99 -33 -125 -51 -42 -30 -52 -21 -49 42 l3 54 -21 -27 c-12 -14 -24
-48 -27 -75 -4 -26 -10 -52 -14 -58 -4 -5 -11 -42 -15 -82 -5 -56 -16 -90 -47
-150 -45 -88 -94 -236 -110 -333 -10 -62 -13 -211 -6 -295 l3 -40 -88 3 c-145
4 -197 46 -161 131 8 18 14 63 15 100 0 68 7 127 34 316 9 61 19 128 21 150 3
22 9 49 14 60 5 11 14 58 19 105 5 47 13 99 16 115 l7 30 -24 -28 c-13 -16
-31 -50 -41 -75 -10 -26 -25 -60 -32 -75 -8 -16 -15 -36 -15 -46 0 -9 -5 -22
-11 -28 -6 -6 -13 -29 -15 -52 -3 -22 -11 -55 -19 -73 -7 -18 -16 -76 -20
-128 -4 -52 -10 -99 -14 -105 -3 -5 -12 -122 -18 -260 -7 -137 -17 -293 -23
-345 -6 -52 -13 -117 -15 -145 -16 -164 -37 -279 -67 -355 -34 -91 -100 -170
-167 -202 -41 -20 -61 -23 -196 -23 -183 0 -228 13 -292 83 -37 40 -43 53 -43
89 0 27 5 43 13 44 6 0 42 0 80 -1 61 -1 71 2 105 28 21 17 44 42 51 56 19 34
6 48 -81 92 -76 38 -87 53 -66 87 8 12 23 45 33 72 26 70 50 95 95 95 29 0 45
8 73 35 39 38 43 53 28 101 -5 16 -12 41 -15 55 -6 26 -5 26 39 21 50 -5 95
16 95 46 0 9 7 26 15 36 20 26 19 89 -1 129 -9 18 -35 51 -57 74 l-41 43 38
37 c20 21 45 56 55 78 17 39 17 43 2 84 -10 23 -30 55 -45 72 -31 33 -31 38
-1 199 30 159 34 185 34 246 1 34 8 78 16 97 21 52 19 139 -4 178 -13 20 -18
43 -15 63 3 17 1 49 -4 71 l-9 40 -7 -52 c-4 -29 -5 -56 -2 -61 8 -13 -14
-175 -25 -187 -5 -5 -9 -28 -9 -51 0 -24 -4 -46 -10 -49 -5 -3 -10 -20 -9 -38
0 -18 -5 -57 -11 -87 -6 -30 -16 -93 -23 -140 -14 -101 -31 -113 -71 -53 -14
21 -26 41 -26 45 0 4 -10 22 -22 40 -13 19 -85 158 -162 311 l-138 277 23 20
c13 11 29 19 34 20 6 0 42 33 81 73 84 86 122 137 158 215 8 18 38 56 66 86
27 29 50 58 50 64 0 7 5 12 10 12 6 0 15 11 20 24 5 14 18 30 29 35 17 9 23 6
42 -22 12 -17 27 -36 33 -42 6 -5 27 -30 46 -55 50 -65 73 -90 87 -90 6 0 24
-12 40 -28 67 -66 208 -134 278 -135 29 0 91 19 111 35 45 35 111 109 132 149
12 24 27 51 32 59 31 52 110 264 110 295 0 27 25 95 34 95 5 0 24 -11 42 -25z
m-2603 -402 c4 -7 17 -13 28 -13 11 0 22 -7 25 -15 4 -8 11 -15 17 -15 5 0 25
-11 44 -26 35 -27 42 -58 21 -97 -6 -12 -17 -51 -24 -87 -7 -36 -19 -94 -28
-130 -18 -70 -33 -139 -40 -183 -6 -35 -14 -47 -31 -47 -10 0 -15 25 -19 103
-9 185 -31 394 -43 409 -12 13 -16 123 -6 141 5 9 42 -18 56 -40z m1034 -146
c-3 -18 -11 -52 -17 -77 -18 -65 -24 -190 -11 -203 6 -6 11 -19 11 -28 0 -10
12 -41 27 -71 32 -62 53 -116 53 -139 0 -55 -66 -113 -121 -103 -147 27 -221
136 -221 326 0 51 5 95 11 101 6 6 11 19 11 29 0 22 36 92 56 109 17 14 29 6
18 -13 -26 -39 -47 -268 -25 -268 17 0 29 26 39 90 23 143 75 274 116 290 35
13 59 -7 53 -43z m-710 -8 c6 -6 71 -13 153 -16 118 -5 143 -9 147 -22 3 -9 9
-26 15 -38 19 -39 2 -66 -83 -128 -44 -33 -98 -76 -119 -97 -21 -21 -41 -38
-45 -38 -7 0 -42 -29 -117 -96 -14 -13 -33 -24 -42 -24 -8 0 -19 -6 -23 -12
-12 -20 -72 -50 -87 -45 -15 6 -10 62 10 92 6 11 15 48 19 83 4 34 11 65 16
68 5 3 9 15 9 26 0 23 35 141 51 170 5 10 9 25 9 35 0 40 60 69 87 42z m385
-529 c3 -9 0 -54 -18 -275 -6 -72 -23 -105 -54 -105 -15 0 -58 -21 -165 -79
-16 -9 -69 -43 -116 -74 l-86 -58 -94 3 -94 3 -3 98 -3 97 28 11 c15 6 42 21
60 35 17 13 35 24 39 24 9 0 102 58 124 77 13 11 180 134 300 220 46 33 76 41
82 23z m530 -78 c61 -136 83 -209 74 -255 -8 -45 -32 -54 -83 -31 -30 14 -75
18 -217 20 -98 2 -181 5 -184 8 -4 5 -6 113 -3 156 1 6 44 10 110 10 97 0 113
3 157 26 56 29 104 71 104 91 0 26 25 11 42 -25z m3016 -60 c2 -60 -2 -92 -13
-114 -8 -17 -15 -41 -15 -52 0 -32 -96 -173 -160 -236 -73 -72 -163 -140 -184
-140 -18 0 -18 3 -16 77 1 28 -4 61 -10 73 -9 17 -8 21 7 27 33 11 104 87 159
170 30 45 54 85 54 90 0 11 80 124 114 161 48 52 61 41 64 -56z m-3128 -287
c30 -9 80 -23 110 -32 30 -9 64 -23 75 -30 11 -7 27 -13 36 -13 22 0 81 -31
92 -47 4 -7 14 -13 21 -13 7 0 31 -18 54 -40 50 -47 55 -84 18 -119 -21 -19
-30 -22 -70 -16 -25 4 -49 11 -52 16 -3 5 -16 9 -30 9 -31 0 -107 35 -130 61
-10 11 -38 29 -62 39 -55 25 -177 27 -206 5 -11 -8 -25 -15 -32 -15 -25 0
-195 -89 -234 -122 -11 -10 -20 -24 -20 -32 0 -16 -7 -17 150 33 53 17 105 31
116 31 11 0 25 5 30 10 6 6 40 12 75 13 56 2 74 -3 144 -37 178 -86 222 -106
232 -106 6 0 24 -6 40 -14 15 -7 44 -21 64 -31 33 -15 37 -22 43 -65 18 -139
-67 -147 -304 -27 -169 85 -220 102 -315 102 -59 0 -80 -5 -135 -33 -71 -35
-158 -113 -110 -98 14 5 48 11 76 15 29 4 58 12 65 18 8 6 34 14 59 18 25 4
51 12 57 17 15 12 51 4 105 -22 21 -10 52 -22 68 -25 17 -4 32 -10 35 -15 3
-5 34 -22 69 -39 65 -30 176 -130 176 -158 0 -7 6 -22 13 -33 10 -17 9 -22 -3
-31 -15 -10 -115 -3 -135 9 -37 23 -153 53 -226 58 -86 7 -213 -9 -225 -27 -3
-5 -13 -9 -23 -9 -27 0 -121 -32 -121 -41 0 -4 21 -25 48 -45 26 -21 67 -57
92 -80 45 -42 196 -151 254 -183 17 -9 49 -28 71 -42 22 -15 50 -29 62 -33 22
-7 37 -32 27 -47 -16 -26 -223 7 -258 42 -6 5 -18 9 -28 9 -15 0 -52 21 -203
112 -11 7 -42 26 -70 42 -27 17 -76 49 -107 73 -59 45 -90 52 -123 30 -11 -7
-41 -21 -67 -31 -54 -20 -180 -18 -308 5 -84 16 -93 27 -66 84 9 18 16 40 16
49 0 9 4 24 9 34 10 18 67 187 81 237 11 38 29 91 46 133 8 18 14 41 14 51 0
21 21 41 75 70 54 29 75 42 111 71 18 14 44 34 58 45 15 11 42 32 60 48 19 15
38 27 44 27 5 0 12 7 16 15 3 8 14 15 25 15 11 0 24 6 28 13 11 17 129 77 151
77 10 0 23 5 29 11 5 5 25 12 43 14 18 3 35 7 39 11 11 11 184 -3 241 -21z
m-4164 -463 c21 -15 73 -42 114 -61 41 -18 89 -39 107 -47 17 -8 36 -14 41
-14 6 0 23 -6 39 -14 15 -8 48 -22 73 -31 25 -10 57 -23 72 -31 14 -8 32 -14
39 -14 8 0 36 -11 64 -24 84 -40 279 -137 302 -150 106 -60 140 -96 90 -96
-13 0 -28 -5 -34 -11 -6 -6 -28 -13 -49 -16 -22 -3 -51 -11 -66 -19 -15 -8
-34 -14 -42 -14 -9 0 -56 -13 -106 -30 -50 -16 -97 -30 -105 -30 -9 0 -23 -4
-33 -9 -24 -14 -152 -51 -173 -51 -10 0 -20 -4 -23 -9 -3 -5 -27 -12 -53 -16
-27 -3 -58 -13 -70 -21 -12 -8 -28 -14 -36 -14 -15 0 -140 -36 -172 -50 -11
-5 -31 -11 -45 -13 -14 -3 -35 -9 -47 -12 -18 -6 -25 -2 -32 18 -5 13 -8 37
-5 53 2 16 8 72 14 124 6 52 17 158 26 235 8 77 17 192 20 255 3 63 7 121 9
128 7 20 39 14 81 -16z m4088 -460 c-8 -46 -12 -52 -29 -52 -20 0 -103 58
-115 80 -9 18 -5 19 52 22 87 4 100 -3 92 -50z m210 2 c22 -9 20 -22 -15 -92
-32 -65 -49 -74 -84 -48 -17 12 -18 17 -7 40 7 15 12 42 12 60 0 18 3 36 7 39
8 9 66 9 87 1z m-1046 -197 c2 -9 -16 -45 -41 -80 -24 -35 -51 -78 -60 -96
-29 -57 -129 -190 -164 -217 -18 -14 -38 -22 -44 -18 -20 12 -2 127 36 236 19
56 35 109 35 117 0 9 9 31 20 49 l20 33 97 -3 c84 -3 98 -5 101 -21z m407 -12
c62 -36 166 -88 198 -99 34 -11 15 -40 -33 -50 -105 -20 -262 -8 -320 25 -46
26 -100 83 -100 105 0 29 62 52 140 53 45 1 66 -5 115 -34z"/>
<path d="M3730 8040 c-8 -5 -36 -10 -62 -10 -47 0 -127 -25 -139 -43 -4 -5
-17 -14 -30 -21 -37 -18 -35 -41 6 -66 36 -22 37 -22 78 -4 58 27 306 27 335
1 10 -9 28 -17 39 -17 11 0 42 -16 69 -35 47 -34 74 -44 74 -27 0 15 -40 87
-70 124 -37 45 -116 85 -185 91 -27 3 -61 8 -75 11 -14 4 -32 2 -40 -4z"/>
<path d="M3467 7648 c-76 -41 -107 -111 -113 -253 -3 -67 0 -87 19 -124 67
-134 417 -193 522 -88 40 40 55 88 54 172 -1 106 -24 176 -77 230 -70 72 -109
85 -248 84 -100 0 -125 -4 -157 -21z m253 -83 c7 -8 18 -15 24 -15 28 0 93
-107 83 -134 -8 -20 -46 -20 -71 -1 -29 22 -118 19 -148 -4 -21 -17 -65 -95
-82 -143 -7 -23 -15 -22 -51 7 -30 25 -30 26 -30 126 l0 101 45 39 c45 39 45
39 131 39 65 0 90 -4 99 -15z"/>
<path d="M4775 7517 c-17 -8 -36 -21 -43 -30 -12 -13 -7 -18 34 -36 25 -12 54
-21 63 -21 9 0 42 -15 73 -33 59 -34 99 -77 125 -136 11 -26 17 -31 26 -22 16
16 11 150 -6 170 -7 9 -19 29 -27 44 -25 50 -67 72 -145 75 -43 1 -81 -3 -100
-11z"/>
<path d="M4650 7235 c-7 -8 -18 -15 -25 -15 -30 0 -81 -85 -119 -197 -17 -49
-17 -55 0 -113 18 -63 35 -82 113 -122 46 -24 138 -24 171 -1 49 35 103 102
144 183 52 101 27 196 -67 250 -45 26 -62 30 -128 30 -56 0 -80 -4 -89 -15z
m142 -73 c28 -12 68 -80 68 -117 0 -54 -30 -115 -58 -115 -5 0 -24 23 -43 51
-33 49 -79 79 -120 79 -30 0 -23 32 14 67 17 17 39 33 47 36 21 8 72 7 92 -1z"/>
<path d="M4337 6743 c-4 -3 -7 -17 -7 -29 0 -13 -4 -26 -10 -29 -5 -3 -10 -17
-10 -30 0 -57 -135 -136 -181 -107 -10 7 -29 12 -41 12 -37 1 -163 68 -212
113 -33 30 -96 70 -96 59 0 -9 22 -67 43 -113 9 -20 28 -51 43 -69 28 -33 136
-90 172 -90 11 0 24 -4 27 -10 8 -13 212 -13 220 -1 3 5 19 13 36 16 17 4 49
25 70 46 37 37 39 42 39 105 0 79 -27 134 -64 134 -13 0 -26 -3 -29 -7z"/>
<path d="M3357 6588 c-9 -28 96 -143 168 -185 38 -22 108 -53 119 -53 6 0 20
-6 31 -14 11 -7 41 -16 67 -20 26 -4 50 -11 53 -17 4 -5 22 -9 40 -9 19 0 54
-6 77 -14 24 -8 72 -17 108 -21 35 -4 72 -12 82 -19 23 -14 53 3 53 30 0 12
-10 20 -30 25 -16 4 -55 14 -85 23 -30 8 -75 21 -100 27 -25 6 -58 17 -73 25
-16 8 -40 14 -53 14 -14 0 -50 11 -79 25 -30 13 -67 28 -82 31 -30 8 -139 60
-157 75 -31 26 -121 89 -127 89 -4 0 -9 -6 -12 -12z"/>
<path d="M4175 4602 c-26 -18 -46 -66 -48 -115 l-2 -52 42 -3 c30 -2 47 2 61
16 55 55 67 107 32 142 -20 20 -66 26 -85 12z"/>
<path d="M4814 4490 c-23 -10 -44 -26 -48 -35 -24 -64 24 -144 88 -145 55 0
113 52 118 105 4 52 -2 65 -38 80 -46 19 -69 18 -120 -5z"/>
<path d="M7815 293 c-60 -6 -64 -21 -9 -28 27 -3 76 -12 109 -20 37 -9 145
-16 285 -19 124 -3 267 -11 319 -17 89 -12 94 -12 108 7 22 30 28 65 12 75
-13 8 -742 10 -824 2z"/>
</g>
</svg>
